<svg xmlns="http://www.w3.org/2000/svg" width="87.451" height="62.536" viewBox="0 0 87.451 62.536">
  <g id="features-icon01" transform="translate(-13 -313.848)">
    <path id="Path_19" data-name="Path 19" d="M13,376.9l29.784,4.181a8.572,8.572,0,0,0-.118-1.3c-.063-.449-.134-.958-.164-1.547a13.42,13.42,0,0,0-.326-1.874,17.587,17.587,0,0,1-.536-4.023,11.67,11.67,0,0,0-.568-4.324,6.723,6.723,0,0,1-2.819-2.98l-.09-.227-.067-.172a30.7,30.7,0,0,0-2.92-6.014,5.906,5.906,0,0,1-.85-2.014,7.447,7.447,0,0,1-1.373.291.158.158,0,0,0,.04-.154l-.218-.83,1.106.375a.11.11,0,0,0,.136-.077.16.16,0,0,0-.042-.176l-.306-.243.476-.089a18.563,18.563,0,0,1-.195-2.409,9.259,9.259,0,0,1-1.531.262.152.152,0,0,0-.035-.07l-.435-.454.213.149a.1.1,0,0,0,.129-.012.159.159,0,0,0,.037-.151l-.037-.145.956.532a.1.1,0,0,0,.141-.045.166.166,0,0,0-.008-.178l-.5-.668,1.04-.155a.108.108,0,0,0,.025-.01q0-.35.01-.693l-.183.215a.192.192,0,0,0-.025.185.072.072,0,0,0,.008.014,3.961,3.961,0,0,1-1.473-.362l.519-.257a.151.151,0,0,0,.069-.164.12.12,0,0,0-.123-.106c-.016,0-1.5.158-2.042-.506l.366-.161a.147.147,0,0,0,.074-.161.122.122,0,0,0-.122-.11,1.3,1.3,0,0,1-1.183-.6.109.109,0,0,0,.084-.052.168.168,0,0,0,.016-.144l-.063-.174.25.14a.1.1,0,0,0,.118-.016.161.161,0,0,0,.044-.136l-.028-.2.764.439a.1.1,0,0,0,.136-.035.166.166,0,0,0,.009-.17l-.127-.23.771.112a.117.117,0,0,0,.125-.1.149.149,0,0,0-.067-.165,6.9,6.9,0,0,1-2.076-1.577l.031.012a.107.107,0,0,0,.131-.058.165.165,0,0,0-.01-.168l-.149-.21.8.221a.116.116,0,0,0,.138-.1.145.145,0,0,0-.082-.169,2.221,2.221,0,0,1-.947-.685l.53.232a.106.106,0,0,0,.137-.06.163.163,0,0,0-.02-.176l-.168-.189.7.2a.111.111,0,0,0,.131-.078.16.16,0,0,0-.037-.172l-.294-.259h.445a.128.128,0,0,0,.114-.135.133.133,0,0,0-.106-.146,1.929,1.929,0,0,1-1.322-.9l.116.029a.107.107,0,0,0,.122-.065.166.166,0,0,0-.01-.162l-.019-.029.549.231a.108.108,0,0,0,.14-.068.159.159,0,0,0-.035-.178,5.054,5.054,0,0,1-1.413-2.057,13.145,13.145,0,0,1-.239-2.074.116.116,0,1,0-.23,0,13.083,13.083,0,0,1-.24,2.074,2.58,2.58,0,0,1-.942,1.486.156.156,0,0,0-.052.168.113.113,0,0,0,.127.093l.292-.056-.087.128a.165.165,0,0,0-.01.163.107.107,0,0,0,.122.065l.311-.08a3.934,3.934,0,0,1-1.437,1.381.15.15,0,0,0-.069.157.123.123,0,0,0,.113.113h.325l-.195.283a.165.165,0,0,0-.008.167.107.107,0,0,0,.129.058l.417-.152-.126.141a.164.164,0,0,0-.021.176.107.107,0,0,0,.138.06l.46-.2a4.238,4.238,0,0,1-.86.616c-.114.065-.2.112-.159.238s.139.092.2.072l.67-.206-.14.2a.165.165,0,0,0-.01.168.106.106,0,0,0,.13.058l.4-.15a6.938,6.938,0,0,1-2.1,1.574.149.149,0,0,0-.069.165.119.119,0,0,0,.125.1l.77-.112-.127.23a.164.164,0,0,0,.016.18.1.1,0,0,0,.148.012l.389-.349-.017.123a.161.161,0,0,0,.044.136.1.1,0,0,0,.118.016l.25-.14-.063.174a.168.168,0,0,0,.016.144.105.105,0,0,0,.112.05l.208-.05a1.449,1.449,0,0,1-1.4.339.116.116,0,0,0-.137.1.145.145,0,0,0,.079.17l.467.168c-.548.654-2.018.5-2.033.5a.118.118,0,0,0-.118.089.161.161,0,0,0,.037.163l.6.558a4.168,4.168,0,0,1-1.685.405.13.13,0,0,0-.112.134.136.136,0,0,0,.1.146l1.04.155-.5.668a.165.165,0,0,0-.008.178.1.1,0,0,0,.14.045l.956-.532-.037.145a.159.159,0,0,0,.037.151.1.1,0,0,0,.129.012l.213-.149-.435.454a.164.164,0,0,0-.027.173.107.107,0,0,0,.133.069l.737-.254-.206.283a.165.165,0,0,0-.007.176.1.1,0,0,0,.139.047l.884-.465-.143.364a.167.167,0,0,0,.017.153.1.1,0,0,0,.123.041l.44-.177c-1,1.118-3.868,1.193-3.9,1.193a.128.128,0,0,0-.112.132.136.136,0,0,0,.1.148l.77.142-.307.244a.159.159,0,0,0-.045.166.115.115,0,0,0,.123.091l.9-.137-.229.868a.159.159,0,0,0,.04.154.1.1,0,0,0,.132.006l.687-.545-.157.334a.162.162,0,0,0,.027.179.1.1,0,0,0,.15,0l.489-.542-.281.681a.166.166,0,0,0,.015.154.1.1,0,0,0,.121.044l.728-.276-.15.563a.162.162,0,0,0,.035.151.105.105,0,0,0,.067.033,8.683,8.683,0,0,1-3.066.584h0a.123.123,0,0,0-.112.108.153.153,0,0,0,.063.159l.78.453-.085.285a.161.161,0,0,0,.025.144.1.1,0,0,0,.117.037l.765-.291a1.287,1.287,0,0,1-.909.52.127.127,0,0,0-.11.123.143.143,0,0,0,.082.152l1.205.425-.676.6a.161.161,0,0,0-.034.178.107.107,0,0,0,.14.067l.77-.324-.19.268a.167.167,0,0,0-.013.161.109.109,0,0,0,.119.069l.1-.02a13.179,13.179,0,0,1-3.472.206.119.119,0,0,0-.117.1.153.153,0,0,0,.053.162l.692.484-.291.306a.163.163,0,0,0-.031.161.115.115,0,0,0,.118.084l.792-.1a2.021,2.021,0,0,1-1.153,1,1.532,1.532,0,0,0-.232.1.154.154,0,0,0-.062.166.118.118,0,0,0,.123.1l.731-.1-.074.364a.163.163,0,0,0,.035.138.1.1,0,0,0,.116.029l.531-.227-.065.164a.164.164,0,0,0,.025.164.1.1,0,0,0,.136.019l1.476-1.025a3.909,3.909,0,0,1-1.276,1.38.154.154,0,0,0-.056.18.109.109,0,0,0,.144.079l.439-.185-.138.4a.162.162,0,0,0,.035.163.1.1,0,0,0,.138.005l.89-.759-.1.537a.159.159,0,0,0,.046.145.1.1,0,0,0,.127,0l.6-.448-.38.555a.166.166,0,0,0,0,.181.1.1,0,0,0,.146.029l.521-.379-.116.285a.165.165,0,0,0,.014.151.111.111,0,0,0,.073.05c-1.6.649-4.706.3-4.743.294a.122.122,0,0,0-.123.108.147.147,0,0,0,.072.163l.7.317a8.85,8.85,0,0,1-2.787-.025.119.119,0,0,0-.128.11.145.145,0,0,0,.08.164l1.192.426-.349.405a.165.165,0,0,0-.022.167.109.109,0,0,0,.125.072l1.42-.356a10.573,10.573,0,0,1-2.019.833.142.142,0,0,0-.087.161.12.12,0,0,0,.127.114l1.385-.2-.464.428a.159.159,0,0,0-.037.166.114.114,0,0,0,.123.084l.48-.091-.593.839a.164.164,0,0,0,0,.179.1.1,0,0,0,.144.037l1.14-.735.142.49a.123.123,0,0,0,.092.092.1.1,0,0,0,.11-.058l.534-.922-.014.36a.148.148,0,0,0,.056.127.1.1,0,0,0,.118,0l.728-.535a13.433,13.433,0,0,1-1.53,1.454.159.159,0,0,0-.04.179.108.108,0,0,0,.141.071l.916-.38-.266.541a.16.16,0,0,0,.03.184.1.1,0,0,0,.153-.016l.388-.513-.022.347a.143.143,0,0,0,.08.145.107.107,0,0,0,.134-.061l.4-.815,0,.316a.142.142,0,0,0,.082.136.1.1,0,0,0,.129-.057l.411-.76-.094.852a.145.145,0,0,0,.072.149.1.1,0,0,0,.136-.05l.416-.723-.025.229a.154.154,0,0,0,.047.132.1.1,0,0,0,.118.012l.279-.168a3.378,3.378,0,0,1-2.145.969.13.13,0,0,0-.113.131c0,.076-.006.109.115.144v.005h.015c.094.025.252.053.517.1l.068.012c-.664.268-1.4.561-1.465.58a.145.145,0,0,0-.1.138c0,.123,0,.14.659.262l-.157.1a.154.154,0,0,0-.058.165.119.119,0,0,0,.122.1l.5-.061a8.336,8.336,0,0,1-3.086,1.081,5.236,5.236,0,0,0-2.054.48.155.155,0,0,0-.08.149c.009.117.009.117.642.218l.362.057-.226.433a.167.167,0,0,0,0,.16.1.1,0,0,0,.124.05l.911-.324-.014.029a.167.167,0,0,0,0,.155.1.1,0,0,0,.118.057l.943-.24-.508.431Zm21.006-21.967-.106.251-.126-.045Zm-.184,10.185a.09.09,0,0,0,.139.032l.5-.405-.11.3a.2.2,0,0,0,.012.161.108.108,0,0,0,.07.054,6.949,6.949,0,0,1-2.65.418,3.6,3.6,0,0,1-.816-.386l.356.049a.108.108,0,0,0,.11-.064.167.167,0,0,0,0-.149l-.089-.176.51.288a.1.1,0,0,0,.142-.046.165.165,0,0,0-.01-.178l-.365-.471.593.376a.1.1,0,0,0,.123-.013.157.157,0,0,0,.042-.142l-.059-.325.125-.059.155.138-.056.185a.186.186,0,0,0,.032.174.086.086,0,0,0,.131.006l.146-.14.431.383a.1.1,0,0,0,.139,0,.161.161,0,0,0,.035-.164l-.137-.4.142.06,0,.031a.182.182,0,0,0,.043.155.085.085,0,0,0,.121.005l.1-.082.04.016a.108.108,0,0,0,.142-.073.167.167,0,0,0,0-.1l.281-.238-.36.592A.193.193,0,0,0,33.822,365.121Zm-.012-4.888a.1.1,0,0,0,.113.074l.093-.022a7.794,7.794,0,0,1-1.548.234l-.452-.4,1.179-.28-.022.022a.189.189,0,0,0-.033.191c.025.065.081.1.133.072l.73-.345-.18.285A.2.2,0,0,0,33.809,360.233Zm-.205-1.1.21.083-.156.156a1.72,1.72,0,0,1-1.054-.527Zm-.788-2.233a.109.109,0,0,0,.018.012c-.437.046-.739.046-.749.046h0c-.05,0-.095.048-.106.116a.171.171,0,0,0,.059.168l.741.483-.041.151a13,13,0,0,1-1.954-.634.11.11,0,0,0,.04-.034.163.163,0,0,0,.025-.139l-.15-.562.727.275a.1.1,0,0,0,.122-.043.17.17,0,0,0,.015-.155l-.281-.68.489.541a.1.1,0,0,0,.149.005.162.162,0,0,0,.028-.179l-.123-.262ZM31.6,353.973a.1.1,0,0,0,.148-.03.165.165,0,0,0,0-.183l-.206-.283.435.15a.183.183,0,0,0-.032.1.144.144,0,0,0,.093.157l.732.153-.291.26a.183.183,0,0,0-.043.176c.018.065.065.106.116.1l.858-.146-.127.539a11.663,11.663,0,0,1-2.991-1.516.121.121,0,0,0,.054-.048.168.168,0,0,0,.013-.146l-.109-.277Z" transform="translate(0 -8.333)" fill="#616161"/>
    <path id="Path_20" data-name="Path 20" d="M80.336,395.094c.026-.048.049-.1.078-.144a16.829,16.829,0,0,0,2.058-4.819,10.372,10.372,0,0,0-1.05-6.3c-.708-1.465-1.191-2.484-1.5-3.156a30.338,30.338,0,0,1-7.122,1.336c-1.125.072-2.194.108-3.178.108-.781,0-1.5-.022-2.146-.066-.144,2.039-.375,5.061-.542,6.118-.026.165-.055.338-.084.516l0,.025a15.44,15.44,0,0,0-.3,4.392c.054.364.131.748.206,1.119l0,.015c.057.279.11.55.156.813l6.868.964Z" transform="translate(-17.047 -21.305)" fill="#616161"/>
    <path id="Path_21" data-name="Path 21" d="M98.986,394.764a11.5,11.5,0,0,0-1.038-3.928,26.764,26.764,0,0,1-2.077,4.864c-.257.518-.5,1.007-.674,1.382-.073.156-.136.313-.2.469l3.867-.543A9.212,9.212,0,0,0,98.986,394.764Z" transform="translate(-26.143 -24.545)" fill="#616161"/>
    <path id="Path_22" data-name="Path 22" d="M58.913,350.8a9.954,9.954,0,0,1-.223-1.74.107.107,0,1,0-.214,0,9.94,9.94,0,0,1-.223,1.74,2.184,2.184,0,0,1-.877,1.246.124.124,0,0,0-.048.142.106.106,0,0,0,.118.078l.272-.047-.082.108a.128.128,0,0,0-.01.136.121.121,0,0,0,.047.046l.189-.02.168-.039c-.005.008-.012.016-.017.024.6-.056,1.285-.1,2.025-.114A3.735,3.735,0,0,1,58.913,350.8Z" transform="translate(-14.131 -11.189)" fill="#616161"/>
    <path id="Path_23" data-name="Path 23" d="M69.317,343.741c-.013,0-1.187.174-1.616-.555l.291-.177a.189.189,0,0,0,.058-.177c-.01-.076-.052-.127-.1-.121a.941.941,0,0,1-.936-.658.089.089,0,0,0,.066-.058.244.244,0,0,0,.012-.158l-.05-.191.2.154a.062.062,0,0,0,.093-.018.216.216,0,0,0,.035-.148l-.022-.219.6.482c.037.029.082.014.108-.04a.242.242,0,0,0,.006-.187l-.1-.252.61.123c.046.01.088-.039.1-.114a.2.2,0,0,0-.054-.181,6,6,0,0,1-1.644-1.73l.025.014c.039.02.08-.006.1-.064a.242.242,0,0,0-.007-.185l-.119-.229.632.242c.049.018.1-.031.108-.113a.181.181,0,0,0-.065-.186,1.852,1.852,0,0,1-.749-.752l.42.254c.041.025.087,0,.108-.065a.237.237,0,0,0-.016-.194l-.134-.207.551.221c.042.017.086-.019.1-.086a.225.225,0,0,0-.029-.189l-.233-.285h.353c.048,0,.089-.065.091-.148s-.035-.153-.084-.16a1.542,1.542,0,0,1-1.046-.986l.091.032c.038.014.077-.015.1-.071a.244.244,0,0,0-.008-.178l-.015-.031.435.254c.043.025.09-.007.11-.075a.226.226,0,0,0-.027-.2,5.831,5.831,0,0,1-1.119-2.257,19.872,19.872,0,0,1-.189-2.277c0-.083-.042-.15-.091-.15s-.09.067-.091.15a19.674,19.674,0,0,1-.189,2.277,3.017,3.017,0,0,1-.746,1.631.213.213,0,0,0-.042.185c.014.071.057.115.1.1l.232-.062-.069.141a.246.246,0,0,0-.008.178c.02.057.059.085.1.072l.246-.088a3.769,3.769,0,0,1-1.138,1.516.194.194,0,0,0-.054.172c.008.072.046.124.089.124h.257l-.155.311a.249.249,0,0,0-.006.184c.022.057.063.082.1.063l.33-.166-.1.155a.235.235,0,0,0-.016.193c.022.063.068.091.109.065l.364-.221a3.618,3.618,0,0,1-.681.676c-.091.072-.155.123-.126.261s.11.1.159.079l.53-.226-.11.215a.242.242,0,0,0-.007.185c.022.058.064.083.1.064l.318-.166a6.006,6.006,0,0,1-1.663,1.728.193.193,0,0,0-.054.18c.011.075.053.124.1.115l.61-.123-.1.252a.237.237,0,0,0,.012.2c.032.052.081.057.116.013l.309-.382-.014.135a.216.216,0,0,0,.035.148.062.062,0,0,0,.093.018l.2-.154-.05.191a.24.24,0,0,0,.012.158c.021.046.056.066.089.055l.165-.056a.915.915,0,0,1-1.111.373c-.048-.02-.1.031-.108.112a.186.186,0,0,0,.063.187l.37.184c-.434.717-1.6.547-1.61.546-.04-.006-.078.033-.093.1a.229.229,0,0,0,.03.178l.478.612a1.962,1.962,0,0,1-.869.381,21.345,21.345,0,0,1,4.238.461,7.18,7.18,0,0,0,1.5.126c.29,0,.6-.011.92-.027l0,0,.9-.174-.025.12c.963-.078,2.017-.2,3.112-.326a55.421,55.421,0,0,1,6.157-.486h.042a14.6,14.6,0,0,1-4.033-2.408.134.134,0,0,0,.054-.061.266.266,0,0,0,.013-.187l-.109-.352,1.354,1.275c.048.046.112.029.148-.038a.259.259,0,0,0,0-.234l-.206-.36.737.324c.052.025.107-.014.133-.088a.254.254,0,0,0-.027-.22l-.435-.578.214.19a.084.084,0,0,0,.129-.016.245.245,0,0,0,.037-.193l-.037-.185.956.677c.05.035.108.012.14-.058a.257.257,0,0,0-.008-.225l-.5-.851,1.041-.2c.059-.011.1-.093.1-.186s-.052-.168-.112-.17a3.563,3.563,0,0,1-1.628-.473l.519-.328a.215.215,0,0,0,.069-.208c-.014-.086-.067-.144-.123-.136-.016,0-1.5.2-2.041-.644l.366-.205a.207.207,0,0,0,.074-.206c-.012-.087-.065-.146-.122-.14a1.206,1.206,0,0,1-1.182-.764.107.107,0,0,0,.083-.066.262.262,0,0,0,.016-.184l-.063-.221.249.178a.083.083,0,0,0,.118-.02.239.239,0,0,0,.044-.172l-.028-.253.764.559c.047.033.1.016.136-.046a.262.262,0,0,0,.008-.216l-.127-.293.771.142c.057.012.11-.046.125-.132a.214.214,0,0,0-.067-.21,7.284,7.284,0,0,1-2.076-2.007l.032.016c.048.023.1-.007.13-.074a.261.261,0,0,0-.01-.215l-.15-.267.8.282c.062.021.122-.038.137-.132a.2.2,0,0,0-.082-.215,2.265,2.265,0,0,1-.947-.872l.53.295c.051.029.109,0,.137-.076a.253.253,0,0,0-.02-.223l-.168-.241.7.257c.054.02.108-.022.131-.1a.247.247,0,0,0-.037-.219l-.294-.33h.445c.061,0,.112-.076.114-.172s-.044-.178-.106-.185a1.919,1.919,0,0,1-1.322-1.144l.116.038c.048.016.1-.018.122-.082a.264.264,0,0,0-.01-.206l-.02-.037.549.294c.054.029.114-.008.14-.087a.246.246,0,0,0-.034-.227,6.609,6.609,0,0,1-1.414-2.617,21.155,21.155,0,0,1-.239-2.64c0-.1-.052-.174-.114-.174s-.113.077-.115.174a21.125,21.125,0,0,1-.239,2.64,3.4,3.4,0,0,1-.943,1.891.232.232,0,0,0-.052.215c.018.082.071.133.127.118l.292-.072-.088.163a.261.261,0,0,0-.01.206c.025.065.074.1.122.082l.311-.1a4.471,4.471,0,0,1-1.438,1.758.212.212,0,0,0-.069.2c.011.084.058.144.113.144h.325l-.195.361a.262.262,0,0,0-.007.213c.028.066.08.1.129.074l.417-.193-.126.18a.254.254,0,0,0-.02.224c.028.072.086.1.137.076l.46-.256a4.419,4.419,0,0,1-.86.784c-.114.083-.2.144-.159.3s.14.118.2.093l.669-.263-.14.249a.261.261,0,0,0-.01.215c.028.067.081.1.13.074l.4-.191a7.271,7.271,0,0,1-2.1,2,.215.215,0,0,0-.068.211c.014.087.067.144.125.133l.771-.142-.127.293a.254.254,0,0,0,.016.229.086.086,0,0,0,.147.015l.39-.444-.018.156a.242.242,0,0,0,.044.172.083.083,0,0,0,.119.02l.249-.178-.063.221a.258.258,0,0,0,.016.184.1.1,0,0,0,.112.063l.208-.065a1.22,1.22,0,0,1-1.4.433c-.061-.023-.121.035-.137.129a.2.2,0,0,0,.079.217l.467.213c-.548.832-2.018.635-2.034.633-.05-.007-.1.039-.118.113a.244.244,0,0,0,.038.207l.6.71a3.432,3.432,0,0,1-1.685.516c-.06,0-.109.077-.112.17s.042.175.1.186l1.04.2-.5.851a.259.259,0,0,0-.008.225c.032.069.091.093.141.058l.956-.677-.037.185a.245.245,0,0,0,.037.193.085.085,0,0,0,.129.016l.213-.191-.435.579a.253.253,0,0,0-.026.22c.025.074.08.112.132.088l.737-.324-.206.36a.259.259,0,0,0-.007.223c.031.068.089.093.139.06l.884-.592-.143.464a.259.259,0,0,0,.018.195c.031.054.078.074.123.052l.439-.225c-.753,1.067-2.549,1.388-3.415,1.482a.231.231,0,0,0,.026-.149C69.4,343.785,69.362,343.734,69.317,343.741Zm.343.841-.044.044a2.257,2.257,0,0,1-.419-.153Z" transform="translate(-15.87 -3.496)" fill="#616161"/>
    <path id="Path_24" data-name="Path 24" d="M120.463,372.515l-.223-.426.358-.057c.625-.1.625-.1.634-.215a.14.14,0,0,0-.077-.145,5.17,5.17,0,0,0-2.032-.475,10.339,10.339,0,0,1-3.2-1.347l.537.065a.117.117,0,0,0,.12-.1.151.151,0,0,0-.057-.162l-.155-.1c.653-.121.653-.137.652-.258a.135.135,0,0,0-.1-.137c-.061-.017-.784-.306-1.44-.569l.067-.012c.262-.047.418-.074.511-.1h.016v-.005c.121-.035.119-.067.114-.143a.127.127,0,0,0-.114-.129,3.336,3.336,0,0,1-2.116-.955l.275.166a.1.1,0,0,0,.117-.012.154.154,0,0,0,.046-.131l-.025-.225.411.713a.1.1,0,0,0,.134.049.145.145,0,0,0,.072-.147l-.093-.84.405.749a.105.105,0,0,0,.128.057.138.138,0,0,0,.08-.134l0-.311.4.8a.106.106,0,0,0,.132.06.142.142,0,0,0,.078-.143l-.025-.391.507.563a.1.1,0,0,0,.148,0,.16.16,0,0,0,.026-.178l-.264-.533.905.375a.106.106,0,0,0,.139-.072.153.153,0,0,0-.044-.176,12.871,12.871,0,0,1-1.66-1.492l.875.591a.1.1,0,0,0,.114,0,.148.148,0,0,0,.054-.124l-.014-.354.527.909a.1.1,0,0,0,.108.056.12.12,0,0,0,.091-.091l.136-.468.9.7a.1.1,0,0,0,.141-.018.161.161,0,0,0,.017-.171l-.42-.834.292.077a.107.107,0,0,0,.123-.067.161.161,0,0,0-.016-.163l-.345-.444,1.239.208a.118.118,0,0,0,.127-.111.141.141,0,0,0-.085-.16,10.489,10.489,0,0,1-2-.822l1.4.351a.108.108,0,0,0,.124-.071.162.162,0,0,0-.022-.165l-.345-.4,1.178-.42a.143.143,0,0,0,.079-.161.119.119,0,0,0-.126-.109,8.767,8.767,0,0,1-2.753.025l.689-.313a.144.144,0,0,0,.072-.153.122.122,0,0,0-.111-.114c-.044,0-4.068-.046-5.531-1.029l.351.048a.106.106,0,0,0,.108-.064.161.161,0,0,0,0-.146l-.028-.056.088-.033.356.2a.1.1,0,0,0,.14-.045.161.161,0,0,0-.01-.176l-.361-.465.586.371a.1.1,0,0,0,.121-.013.154.154,0,0,0,.042-.14l-.095-.52.988.875a.1.1,0,0,0,.137,0,.158.158,0,0,0,.035-.162l-.136-.4.434.182a.107.107,0,0,0,.14-.072.156.156,0,0,0-.044-.177,5.32,5.32,0,0,1-1.249-1.352l1.437,1a.1.1,0,0,0,.127-.012.157.157,0,0,0,.037-.148l-.079-.321.5.48a.1.1,0,0,0,.128.01.149.149,0,0,0,.055-.141l-.08-.587.925.446a.108.108,0,0,0,.146-.074.153.153,0,0,0-.056-.181,5.832,5.832,0,0,1-1.361-1.079l.775.1a.113.113,0,0,0,.116-.083.16.16,0,0,0-.03-.16l-.287-.3.684-.478a.154.154,0,0,0,.052-.165.115.115,0,0,0-.123-.093,9.755,9.755,0,0,1-4.157-.183h.509a.114.114,0,0,0,.1-.08.161.161,0,0,0-.017-.148l-.187-.263.76.319a.107.107,0,0,0,.138-.067.158.158,0,0,0-.034-.176l-.645-.573,1.839-.436a.137.137,0,0,0,.092-.148.126.126,0,0,0-.11-.127,1.874,1.874,0,0,1-1.238-.541l1.106.317a.1.1,0,0,0,.111-.043.162.162,0,0,0,.022-.14l-.075-.249.736-.191a.137.137,0,0,0,.09-.14.131.131,0,0,0-.1-.132,19.616,19.616,0,0,1-3.69-1,.115.115,0,0,0,.039-.034.16.16,0,0,0,.025-.136l-.148-.554.718.272a.1.1,0,0,0,.121-.043.164.164,0,0,0,.015-.152l-.278-.67.484.533a.1.1,0,0,0,.148.005.16.16,0,0,0,.027-.177l-.122-.257.98.877a.1.1,0,0,0,.134,0,.156.156,0,0,0,.042-.155l-.216-.817,1.093.369a.109.109,0,0,0,.134-.076.156.156,0,0,0-.042-.173l-.3-.24.761-.14a.131.131,0,0,0,.1-.129.136.136,0,0,0-.084-.141,16.811,16.811,0,0,1-4.112-1.907.119.119,0,0,0,.054-.047.163.163,0,0,0,.013-.144l-.108-.273L113,351a.1.1,0,0,0,.146-.03.163.163,0,0,0,0-.181l-.2-.279.728.251a.106.106,0,0,0,.131-.067.16.16,0,0,0-.026-.17l-.429-.449.21.147a.1.1,0,0,0,.128-.012.159.159,0,0,0,.037-.149l-.037-.143.944.525a.1.1,0,0,0,.14-.045.163.163,0,0,0-.009-.175l-.5-.659,1.028-.153a.133.133,0,0,0,.1-.144.127.127,0,0,0-.111-.132,4.311,4.311,0,0,1-1.608-.366l.513-.254a.147.147,0,0,0,.067-.161.119.119,0,0,0-.121-.1c-.016,0-1.482.156-2.017-.5l.362-.159a.145.145,0,0,0,.072-.159.12.12,0,0,0-.12-.108,1.291,1.291,0,0,1-1.168-.591.108.108,0,0,0,.082-.052.163.163,0,0,0,.016-.142l-.063-.171.247.138a.1.1,0,0,0,.117-.016.154.154,0,0,0,.042-.134l-.027-.2.755.433a.1.1,0,0,0,.135-.035.161.161,0,0,0,.007-.168l-.125-.227.762.11a.116.116,0,0,0,.123-.1.146.146,0,0,0-.067-.163,6.809,6.809,0,0,1-2.051-1.554l.031.012a.105.105,0,0,0,.129-.057.163.163,0,0,0-.01-.166l-.148-.206.789.218a.114.114,0,0,0,.135-.1.144.144,0,0,0-.081-.168,2.19,2.19,0,0,1-.935-.674l.524.227a.1.1,0,0,0,.136-.059.163.163,0,0,0-.02-.174l-.167-.186.687.2a.109.109,0,0,0,.129-.078.157.157,0,0,0-.037-.17l-.291-.255h.44a.127.127,0,0,0,.114-.134.131.131,0,0,0-.1-.143,1.907,1.907,0,0,1-1.306-.886l.114.029a.106.106,0,0,0,.121-.064.162.162,0,0,0-.01-.159l-.02-.029.543.228a.107.107,0,0,0,.138-.067.159.159,0,0,0-.034-.176,4.975,4.975,0,0,1-1.4-2.026,12.824,12.824,0,0,1-.236-2.044.115.115,0,1,0-.228,0,12.854,12.854,0,0,1-.236,2.044,2.552,2.552,0,0,1-.93,1.465.153.153,0,0,0-.052.166.112.112,0,0,0,.125.091l.289-.056-.087.127a.165.165,0,0,0-.01.16.107.107,0,0,0,.121.064l.307-.079a3.878,3.878,0,0,1-1.42,1.361.145.145,0,0,0-.068.155.122.122,0,0,0,.111.112h.322l-.192.279a.162.162,0,0,0-.008.165.1.1,0,0,0,.127.057l.412-.15-.125.139a.161.161,0,0,0-.02.174.1.1,0,0,0,.136.059l.455-.2a4.229,4.229,0,0,1-.849.608c-.113.064-.195.111-.158.234s.138.091.2.071l.661-.2-.138.193a.162.162,0,0,0-.01.166.1.1,0,0,0,.129.057l.4-.148a6.849,6.849,0,0,1-2.075,1.551.148.148,0,0,0-.067.163.117.117,0,0,0,.123.1l.762-.11-.125.227a.161.161,0,0,0,.015.177.1.1,0,0,0,.146.012l.385-.343-.017.121a.156.156,0,0,0,.043.134.1.1,0,0,0,.117.016l.247-.138-.063.171a.163.163,0,0,0,.016.142.1.1,0,0,0,.11.05l.206-.05a1.434,1.434,0,0,1-1.386.334.114.114,0,0,0-.135.1.144.144,0,0,0,.078.168l.462.166a1.228,1.228,0,0,1-.522.342,17.269,17.269,0,0,1-4.5-2.236.138.138,0,0,0,.061-.056.207.207,0,0,0,.014-.174l-.122-.329,1.52,1.189a.111.111,0,0,0,.167-.036.205.205,0,0,0,0-.217l-.232-.336.827.3a.118.118,0,0,0,.149-.081.2.2,0,0,0-.03-.205l-.488-.54.24.177a.107.107,0,0,0,.145-.014.2.2,0,0,0,.042-.18l-.042-.172,1.074.632a.113.113,0,0,0,.158-.054.206.206,0,0,0-.01-.211l-.566-.794,1.168-.184a.159.159,0,0,0,.114-.173.151.151,0,0,0-.126-.159,4.652,4.652,0,0,1-1.828-.441l.582-.306a.182.182,0,0,0,.077-.194.137.137,0,0,0-.137-.127c-.018,0-1.685.188-2.292-.6l.411-.191a.179.179,0,0,0,.082-.192.14.14,0,0,0-.137-.131,1.431,1.431,0,0,1-1.327-.712.121.121,0,0,0,.093-.062.209.209,0,0,0,.018-.172l-.071-.206.28.167a.106.106,0,0,0,.133-.019.194.194,0,0,0,.049-.16l-.032-.237.858.522a.111.111,0,0,0,.153-.042.2.2,0,0,0,.01-.2l-.143-.273.866.133c.065.01.124-.044.14-.124a.182.182,0,0,0-.076-.2,7.8,7.8,0,0,1-2.331-1.871l.036.014a.117.117,0,0,0,.146-.069.205.205,0,0,0-.011-.2l-.168-.249.9.262c.07.02.138-.034.155-.123a.176.176,0,0,0-.093-.2,2.486,2.486,0,0,1-1.062-.813l.595.274a.116.116,0,0,0,.154-.071.2.2,0,0,0-.023-.208l-.189-.225.781.24a.124.124,0,0,0,.148-.093.2.2,0,0,0-.042-.2l-.33-.309h.5a.15.15,0,0,0,.129-.16.157.157,0,0,0-.119-.172,2.154,2.154,0,0,1-1.484-1.067l.129.035a.119.119,0,0,0,.137-.077.206.206,0,0,0-.011-.192l-.022-.034.616.274a.119.119,0,0,0,.157-.081.2.2,0,0,0-.039-.212,5.985,5.985,0,0,1-1.586-2.441,16.441,16.441,0,0,1-.269-2.462.132.132,0,1,0-.258,0,16.372,16.372,0,0,1-.268,2.463,3.072,3.072,0,0,1-1.058,1.764.192.192,0,0,0-.059.2.128.128,0,0,0,.142.11l.328-.067-.1.153a.205.205,0,0,0-.012.193.119.119,0,0,0,.137.077l.349-.1a4.519,4.519,0,0,1-1.614,1.64.18.18,0,0,0-.078.187.143.143,0,0,0,.127.134h.365l-.219.336a.206.206,0,0,0-.009.2.116.116,0,0,0,.144.068l.469-.18-.142.168a.2.2,0,0,0-.023.208.116.116,0,0,0,.154.071l.517-.238a4.8,4.8,0,0,1-.965.732c-.128.077-.221.134-.179.282s.157.109.225.086l.751-.245-.157.233a.207.207,0,0,0-.011.2.117.117,0,0,0,.146.068l.45-.178a7.831,7.831,0,0,1-2.358,1.869.18.18,0,0,0-.076.2c.016.081.075.134.14.125l.866-.133-.143.273a.205.205,0,0,0,.018.213.108.108,0,0,0,.166.014l.437-.414-.019.146a.193.193,0,0,0,.048.16.1.1,0,0,0,.133.019l.281-.167-.071.206a.208.208,0,0,0,.017.172.115.115,0,0,0,.126.059l.234-.06a1.561,1.561,0,0,1-1.575.4c-.068-.021-.136.033-.154.12a.177.177,0,0,0,.089.2l.525.2c-.615.775-2.266.591-2.283.589a.133.133,0,0,0-.132.106.2.2,0,0,0,.043.193l.676.663a4.458,4.458,0,0,1-1.892.482.151.151,0,0,0-.126.159.159.159,0,0,0,.114.173l1.168.184-.566.794a.207.207,0,0,0-.009.211.113.113,0,0,0,.158.054l1.073-.632-.041.172a.2.2,0,0,0,.042.18.106.106,0,0,0,.145.014l.24-.178-.488.541a.2.2,0,0,0-.03.205.118.118,0,0,0,.148.081l.828-.3-.232.336a.2.2,0,0,0-.009.208.114.114,0,0,0,.156.056l.992-.552-.16.432a.2.2,0,0,0,.02.183.11.11,0,0,0,.137.048l.494-.21a4.518,4.518,0,0,1-2.433,1.172c.408.126.795.26,1.155.405a4.764,4.764,0,0,1,3.3,3.393c.4,2.211-.95,3.9-1.679,4.807-.115.144-.217.271-.294.376-.548,1.334-1.324,3.768-1.137,4.816.114.642,1.4,2.077,2.256,3.028,1.17,1.3,2.18,2.428,2.4,3.471a55.813,55.813,0,0,1,.17,8.313c0,.2-.008.376-.011.51s-.009.264-.018.412l22.875-3.211-6.522-.915A.162.162,0,0,0,120.463,372.515Zm-13.436-23.769a2.272,2.272,0,0,1-.6.235l-.123-.492Zm-2.881,1.114-.168-.668.816.328a.112.112,0,0,0,.137-.052.207.207,0,0,0,.016-.183l-.315-.808.55.643a.108.108,0,0,0,.168.005.2.2,0,0,0,.031-.212l-.139-.311.527.5c-.224.026-.38.031-.385.031a.126.126,0,0,0-.11.132.132.132,0,0,0,.1.144l.853.127.114.108-.437.577a.162.162,0,0,0-.008.175.1.1,0,0,0,.139.045l.945-.525-.037.143a.157.157,0,0,0,.037.149.1.1,0,0,0,.127.012l.211-.147-.429.449a.159.159,0,0,0-.027.17.106.106,0,0,0,.131.067l.729-.251-.2.279a.162.162,0,0,0-.007.173.1.1,0,0,0,.137.046l.874-.458-.142.36a.161.161,0,0,0,.017.151.1.1,0,0,0,.121.04l.435-.174a2.245,2.245,0,0,1-.584.446.138.138,0,0,0-.1-.1,21.313,21.313,0,0,1-4.193-1.207.136.136,0,0,0,.044-.04A.2.2,0,0,0,104.146,349.859Zm3.954,4.755a.1.1,0,0,0,.066.033,6.119,6.119,0,0,1-1.378.411,5.629,5.629,0,0,1-2.043-.392h.578a.132.132,0,0,0,.118-.1.2.2,0,0,0-.02-.178l-.213-.317.864.384a.119.119,0,0,0,.156-.08.2.2,0,0,0-.038-.212l-.733-.69.96-.241-.131.5a.156.156,0,0,0,.039.152.1.1,0,0,0,.131.006l.678-.537-.156.329a.159.159,0,0,0,.027.176.1.1,0,0,0,.148-.005l.484-.533-.277.67a.166.166,0,0,0,.014.153.1.1,0,0,0,.121.042l.718-.271-.148.554A.158.158,0,0,0,108.1,354.614Zm-1.982-2.646.1.031-.067.009Zm13.334,20.463-.015-.028.573.2-.546-.077A.158.158,0,0,0,119.451,372.43Z" transform="translate(-26.53 -5.013)" fill="#616161"/>
    <path id="Path_25" data-name="Path 25" d="M88.738,348.831l.718-.112-.119.231a.175.175,0,0,0,.01.167l.156.014.349-.338-.016.123a.167.167,0,0,0,.04.136.087.087,0,0,0,.11.016l.232-.142-.059.175a.179.179,0,0,0,0,.107c.1.014.188.03.281.046l.03-.008-.01.012c.118.02.234.043.347.067l.256.054c.469.1.92.195,1.361.291a1.24,1.24,0,0,1-.323-.37.1.1,0,0,0,.078-.052.181.181,0,0,0,.014-.146l-.058-.175.232.142a.086.086,0,0,0,.11-.016.167.167,0,0,0,.04-.136l-.026-.2.712.443a.091.091,0,0,0,.127-.036.179.179,0,0,0,.007-.172l-.118-.231.717.112c.054.009.1-.037.116-.1a.156.156,0,0,0-.063-.166,6.49,6.49,0,0,1-1.934-1.589l.03.012a.1.1,0,0,0,.121-.059.176.176,0,0,0-.01-.17l-.139-.211.743.223c.058.017.114-.029.128-.1a.15.15,0,0,0-.077-.17,2.067,2.067,0,0,1-.881-.69l.493.233a.1.1,0,0,0,.128-.06.178.178,0,0,0-.019-.177l-.157-.191.648.2a.1.1,0,0,0,.122-.078.171.171,0,0,0-.035-.174l-.274-.262H93.3a.126.126,0,0,0,.107-.136.134.134,0,0,0-.1-.147,1.778,1.778,0,0,1-1.231-.905l.107.03a.1.1,0,0,0,.114-.065.178.178,0,0,0-.01-.163l-.018-.029.512.234a.1.1,0,0,0,.129-.069.172.172,0,0,0-.032-.18,5.091,5.091,0,0,1-1.316-2.072,14.2,14.2,0,0,1-.222-2.09.111.111,0,1,0-.215,0,14.133,14.133,0,0,1-.223,2.09,2.616,2.616,0,0,1-.877,1.5.164.164,0,0,0-.048.17c.017.065.066.1.118.093l.272-.057-.082.13a.178.178,0,0,0-.01.163.1.1,0,0,0,.114.066l.289-.081a3.782,3.782,0,0,1-1.338,1.391.154.154,0,0,0-.064.159.119.119,0,0,0,.1.113h.3l-.181.285a.179.179,0,0,0-.007.169.1.1,0,0,0,.12.058L90,345.8l-.117.142a.176.176,0,0,0-.019.178.1.1,0,0,0,.127.06l.429-.2a4.009,4.009,0,0,1-.8.621c-.107.065-.183.113-.149.239s.13.093.187.073l.623-.208-.13.2a.176.176,0,0,0-.009.17.1.1,0,0,0,.121.058l.373-.151a6.5,6.5,0,0,1-1.956,1.586.155.155,0,0,0-.063.166C88.635,348.794,88.684,348.839,88.738,348.831Z" transform="translate(-24.108 -8.2)" fill="#616161"/>
    <path id="Path_26" data-name="Path 26" d="M42.851,355.791a.082.082,0,0,0,.1.02c.012-.505.03-1,.047-1.46.014-.369.026-.7.033-1.007a3.8,3.8,0,0,1-.608-.011.113.113,0,0,0-.112.095.186.186,0,0,0,.036.174l.572.595a3.589,3.589,0,0,1-1.6.433c-.057,0-.1.064-.106.142a.143.143,0,0,0,.1.156l.988.165-.478.712a.193.193,0,0,0-.008.189.092.092,0,0,0,.134.048l.908-.567-.035.155A.19.19,0,0,0,42.851,355.791Z" transform="translate(-8.994 -12.588)" fill="#616161"/>
    <path id="Path_27" data-name="Path 27" d="M78.041,350.5c.179-.223.389-.485.6-.782.1-.148.208-.306.307-.472q.075-.125.145-.255c.073-.136.141-.279.2-.426a4.7,4.7,0,0,0,.249-.721,4.1,4.1,0,0,0,.11-.645,3.946,3.946,0,0,0-.05-1.054,3.378,3.378,0,0,0-1.393-2.134,6.7,6.7,0,0,0-1.355-.753l-.215-.089a22.106,22.106,0,0,0-3.2-.941c-.731-.169-1.512-.334-2.334-.508l-.211-.045-.045-.009a12.368,12.368,0,0,0-2.069-.24q-.194-.008-.4-.012t-.413,0h0q-.361,0-.731.011c-.738.022-1.5.073-2.272.142-.514.046-1.032.1-1.55.155s-1.036.116-1.55.176a47.006,47.006,0,0,1-4.962.413q-.246,0-.471-.009a7.783,7.783,0,0,1-.811-.069c-.12-.017-.232-.037-.337-.061a18.575,18.575,0,0,0-2.164-.339q-.571-.057-1.17-.085t-1.223-.029h0c-.211,0-.42,0-.625.007l-.3.008c-.2.007-.4.016-.586.027-.475.026-.914.063-1.3.1-.155.016-.3.033-.44.051-.275.035-.514.072-.706.107a3.3,3.3,0,0,1-.558.062,1.033,1.033,0,0,1-.156-.008c-.133-.021-.214-.095-.428-.344a.728.728,0,0,1-.1-.166c-.023-.05-.048-.112-.072-.178s-.048-.135-.072-.212a10.147,10.147,0,0,1-.313-1.419,7.633,7.633,0,0,1,.326-3.925c.09-.347.174-.677.24-.986a.857.857,0,0,1,.171-.343A4.722,4.722,0,0,1,47,333.6c.24-.147.466-.286.673-.437a3.83,3.83,0,0,0,.524-.463q.086-.091.17-.19a4.817,4.817,0,0,0,.322-.431,5.432,5.432,0,0,0,.873-3.111,3.218,3.218,0,0,0-.062-.608,1.841,1.841,0,0,0-.147-.441,8.026,8.026,0,0,0,.955-.442,5.877,5.877,0,0,0,.875-.584,9.635,9.635,0,0,0,1.708-1.784,9.52,9.52,0,0,0,1-1.719q.074-.162.138-.319c.131-.314.24-.611.336-.883.064-.181.123-.352.179-.511a2.081,2.081,0,0,1,.233-.452,4.151,4.151,0,0,1,.331-.425c.122-.14.253-.279.386-.424a8.261,8.261,0,0,0,.59-.693,3.881,3.881,0,0,0,.337-.54,3.288,3.288,0,0,0,.338-1.817c-.012-.15-.03-.294-.054-.433a4.668,4.668,0,0,0-.11-.484,4.415,4.415,0,0,0-.181-.517c-.036-.085-.074-.167-.113-.245s-.092-.176-.14-.259a4.214,4.214,0,0,0-.267-.4,4.037,4.037,0,0,0-.343-.394,3.226,3.226,0,0,0-.723-.568h0a7.959,7.959,0,0,1,.669,1.473,6.005,6.005,0,0,1,.183.663,4.108,4.108,0,0,1,.1,1.055,2.807,2.807,0,0,1-.037.347,2.309,2.309,0,0,1-.215.659c-.046.089-.091.172-.136.25l-.046.075c-.03.049-.06.1-.089.144-.018.028-.036.052-.054.078s-.052.076-.078.111l-.057.073c-.025.03-.048.062-.072.09l-.058.064c-.022.025-.046.05-.067.073s-.038.037-.057.055l-.063.06-.055.046c-.02.016-.04.033-.06.048s-.034.025-.051.037l-.056.038-.048.029-.05.029-.044.022-.045.022-.04.016-.04.015-.033.012-.034.01-.029.007-.027.005-.022,0-.02,0h-.042a1.6,1.6,0,0,1-.073-.151,2.439,2.439,0,0,1-.1-.293,2.942,2.942,0,0,1-.092-.424,2.99,2.99,0,0,1-.028-.347c0-.062,0-.125,0-.191a3.1,3.1,0,0,1,.043-.41q.018-.107.045-.219a1.657,1.657,0,0,0-.223.335,2.774,2.774,0,0,0-.181.425,3.3,3.3,0,0,0-.136.6,2.511,2.511,0,0,1-.825-1.023,4.894,4.894,0,0,1-.253-.6q-.059-.172-.114-.364a8.4,8.4,0,0,1-.277-1.941,5.274,5.274,0,0,0-.258,1.554c0,.09,0,.182,0,.275s.01.189.018.287a4.472,4.472,0,0,0,.087.549c.008.038.018.076.027.115a4.127,4.127,0,0,0,.176.548c.21.513.379.884.51,1.163l.093.2a3.367,3.367,0,0,1,.2.489.574.574,0,0,1,.021.14.442.442,0,0,1-.04.19.1.1,0,0,1-.05.052.249.249,0,0,1-.027.008.222.222,0,0,1-.06.012.6.6,0,0,1-.08-.007l-.024,0a.98.98,0,0,1-.132-.037c-.013,0-.028-.011-.041-.016-.037-.014-.074-.029-.115-.047l-.063-.031c-.037-.018-.075-.037-.115-.059-.025-.013-.05-.028-.075-.043s-.081-.048-.123-.074l-.083-.053c-.045-.03-.091-.061-.138-.095l-.084-.059c-.054-.039-.11-.082-.166-.127l-.069-.053q-.121-.1-.247-.206l-.048-.043c-.069-.061-.139-.124-.21-.191-.031-.029-.062-.06-.093-.09-.058-.056-.116-.112-.174-.172-.035-.035-.07-.073-.106-.11-.056-.059-.112-.118-.17-.18l-.11-.123c-.057-.065-.114-.132-.172-.2-.036-.042-.072-.084-.108-.129-.063-.076-.125-.155-.188-.235l-.093-.118c-.093-.123-.187-.249-.28-.38a7.409,7.409,0,0,0,1.027,2.042,6.193,6.193,0,0,0,1.9,1.781.579.579,0,0,1,.153.129.614.614,0,0,1,.1.17.625.625,0,0,1,.02.4,8.4,8.4,0,0,1-.407,1.135A6.5,6.5,0,0,1,51.4,324.5a4.662,4.662,0,0,1-.518.615,3.721,3.721,0,0,1-.412.354,10.856,10.856,0,0,1-1.429.863c-.392.2-.8.4-1.185.568l-.192.084c-.443.194-.856.361-1.187.49l-.137.053c-.394.152-.644.238-.644.239a21.809,21.809,0,0,0,2.542-1.527c.063-.044.127-.09.189-.136a8.3,8.3,0,0,0,1.783-1.662,3.816,3.816,0,0,0,.48-2.2c0-.077,0-.152-.008-.223-.007-.142-.018-.27-.028-.377-.021-.215-.043-.347-.043-.347a2.453,2.453,0,0,1-.033.43,4.492,4.492,0,0,1-.6,1.629c-.057.095-.118.191-.185.287-.1.142-.212.286-.334.43a6.006,6.006,0,0,1-.428.46,7.543,7.543,0,0,1-1.133.879c-.294.189-.589.356-.865.5-.184.1-.36.181-.522.255a10.46,10.46,0,0,1-.971.394l.034-.054c.022-.035.053-.089.091-.159.057-.1.129-.247.206-.424s.16-.389.24-.633a7.82,7.82,0,0,0,.355-1.834,5.3,5.3,0,0,1,.183-1.044,5.22,5.22,0,0,1,.219-.628c.02-.048.041-.095.062-.14a4.2,4.2,0,0,1,.707-1.1h0a2.416,2.416,0,0,0-1.033.72c-.051.057-.1.119-.154.186a3.946,3.946,0,0,0-.659,1.383q-.054.2-.1.382c-.065.245-.123.467-.178.673s-.108.4-.16.571a5.485,5.485,0,0,1-.463,1.148,4.2,4.2,0,0,1-.267.413,6.976,6.976,0,0,1-.79.888A6.444,6.444,0,0,0,42.7,328.38a7.222,7.222,0,0,0-.485,1.068A6.7,6.7,0,0,0,41.853,331h-.46a7.01,7.01,0,0,0-1.267-3.311,6.766,6.766,0,0,0-.811-.958c-.168-.163-.315-.316-.445-.463s-.245-.287-.345-.425a4.119,4.119,0,0,1-.377-.624c-.035-.071-.067-.143-.1-.217-.063-.147-.12-.3-.174-.465-.082-.247-.158-.518-.24-.826-.035-.13-.072-.27-.11-.415-.052-.2-.108-.409-.171-.64a4.59,4.59,0,0,0-.181-.528,3.824,3.824,0,0,0-.238-.488,3.427,3.427,0,0,0-.242-.367,3,3,0,0,0-.459-.482,2.161,2.161,0,0,0-.728-.424h0a3.464,3.464,0,0,1,.432.582,4.847,4.847,0,0,1,.309.589,5.121,5.121,0,0,1,.19.5c.029.091.057.184.082.281a5.287,5.287,0,0,1,.159.962q.028.364.081.69c.018.108.037.214.057.316a6.317,6.317,0,0,0,.787,2.1,10.266,10.266,0,0,1-.97-.393c-.082-.037-.166-.078-.253-.12-.175-.085-.36-.181-.551-.286-.1-.052-.192-.108-.29-.166a7.94,7.94,0,0,1-1.426-1.061,5.923,5.923,0,0,1-.545-.6,5.322,5.322,0,0,1-.4-.581,4.818,4.818,0,0,1-.386-.8,3.507,3.507,0,0,1-.25-1.258,7.582,7.582,0,0,0-.08.948c0,.078,0,.158,0,.24a3.533,3.533,0,0,0,.482,1.961,4.846,4.846,0,0,0,.384.46c.078.083.159.165.244.247.163.157.337.312.518.463l.162.131a16.551,16.551,0,0,0,1.524,1.069l.137.084c.86.531,1.544.871,1.545.871s-.25-.087-.644-.239l-.136-.053c-.332-.129-.743-.3-1.187-.49l-.192-.084c-.129-.058-.26-.117-.392-.178-.462-.215-.935-.453-1.368-.7-.124-.072-.245-.144-.362-.217l-.172-.11c-.112-.074-.219-.148-.32-.223-.041-.03-.079-.063-.119-.095a3.666,3.666,0,0,1-.294-.26,4.622,4.622,0,0,1-.426-.492,6.007,6.007,0,0,1-.5-.787c-.079-.149-.15-.3-.215-.442a8.446,8.446,0,0,1-.408-1.135.628.628,0,0,1-.022-.206.613.613,0,0,1,.043-.2.675.675,0,0,1,.044-.089.593.593,0,0,1,.128-.151.534.534,0,0,1,.082-.058,5.657,5.657,0,0,0,.762-.538,6.4,6.4,0,0,0,.9-.925,7.631,7.631,0,0,0,.924-1.493,6.147,6.147,0,0,0,.341-.867h0l0,0c-.092.129-.185.254-.277.375-.031.041-.062.079-.093.118-.063.08-.125.159-.188.235-.036.044-.072.086-.108.129-.058.067-.115.135-.172.2l-.11.123c-.057.062-.113.122-.17.181l-.106.11c-.059.06-.118.117-.176.174l-.091.088c-.072.067-.142.131-.211.192-.016.014-.031.029-.047.042q-.127.11-.247.207c-.023.018-.046.034-.068.052-.057.044-.114.088-.168.127l-.082.059-.139.1-.082.052c-.043.027-.084.052-.124.075l-.075.043c-.04.022-.079.042-.116.059-.021.011-.042.022-.063.031-.041.019-.08.034-.116.048l-.04.016a1.141,1.141,0,0,1-.132.037l-.024,0a.432.432,0,0,1-.08.007.214.214,0,0,1-.059-.012c-.009,0-.02,0-.029-.007a.105.105,0,0,1-.05-.052c-.075-.174-.046-.309.085-.606.044-.1.1-.219.168-.363l.049-.106c.037-.08.077-.167.12-.262.1-.23.225-.5.363-.844q.063-.154.111-.309a4.464,4.464,0,0,0,.2-1.191c0-.094,0-.186,0-.275s-.005-.176-.011-.261a5.168,5.168,0,0,0-.247-1.293,9.066,9.066,0,0,1-.178,1.531,5.916,5.916,0,0,1-.337,1.094c-.042.1-.086.193-.13.279a2.5,2.5,0,0,1-.824,1.022,3.187,3.187,0,0,0-.225-.835,1.925,1.925,0,0,0-.315-.527,3.135,3.135,0,0,1,.079,1,2.645,2.645,0,0,1-.289,1.037h-.025l-.016,0-.02,0-.022,0-.027-.006-.029-.007-.033-.01-.034-.012-.04-.015-.04-.016-.045-.022-.044-.022-.051-.03-.047-.029c-.018-.012-.037-.025-.056-.039l-.051-.037c-.02-.014-.04-.031-.06-.048l-.054-.046c-.021-.018-.043-.04-.064-.06s-.037-.035-.057-.055-.045-.048-.068-.074l-.057-.063c-.024-.028-.048-.06-.072-.091s-.038-.046-.057-.072-.052-.073-.078-.111-.037-.05-.054-.078c-.029-.044-.059-.093-.088-.142-.016-.026-.031-.05-.047-.077-.046-.078-.091-.161-.136-.25a2.289,2.289,0,0,1-.215-.659,3.762,3.762,0,0,1,.061-1.4c.031-.142.067-.28.108-.415.057-.193.119-.381.185-.553.037-.1.076-.191.114-.281.057-.134.113-.253.166-.362.157-.322.28-.526.28-.526h0a3.252,3.252,0,0,0-.723.568l-.012.014a4.013,4.013,0,0,0-.4.481,4.079,4.079,0,0,0-.412.712,4.581,4.581,0,0,0-.383,1.529,3.669,3.669,0,0,0,.021.824,3.138,3.138,0,0,0,.316.993,6.653,6.653,0,0,0,1.125,1.446c.129.141.253.28.364.421.055.071.108.142.155.214a2.077,2.077,0,0,1,.233.452c.057.159.115.33.179.512s.134.374.212.575.165.411.263.627a9.3,9.3,0,0,0,1.918,2.793,10.311,10.311,0,0,0,.787.71,5.831,5.831,0,0,0,.614.433q.16.1.326.187c.172.093.348.176.527.254a10.143,10.143,0,0,0,1.213.442,1.19,1.19,0,0,0-.147.185,1.389,1.389,0,0,0-.1.181,1.834,1.834,0,0,0-.123.417,2.765,2.765,0,0,0-.042.472c0,.082,0,.166,0,.251a6.451,6.451,0,0,0,.3,1.547,7.258,7.258,0,0,0,.341.884,3.836,3.836,0,0,0,1.108,1.347c.262.212.535.4.794.578.79.543,1.238.877,1.254,1.436a8.781,8.781,0,0,0,.415,2.288,10.894,10.894,0,0,1,.336,1.429,7.693,7.693,0,0,1,.083,1.063c0,.219,0,.471-.01.752s-.019.588-.031.918-.026.685-.036,1.044c-.016.54-.027,1.1-.023,1.668s.023,1.136.067,1.691c.014.185.031.368.052.55.041.362.094.715.163,1.054a5.76,5.76,0,0,0,.849,2.178,19.9,19.9,0,0,1,1.736,3.14c.506,1.1.93,2.184,1.248,2.992l.157.4q.055.138.121.271a4.223,4.223,0,0,0,.3.506,5.207,5.207,0,0,0,.549.668c.13.136.264.263.4.381a8.1,8.1,0,0,0,.942.71c.163.106.3.189.41.249a3.093,3.093,0,0,1,.237.552,6.69,6.69,0,0,1,.193.738c.035.168.067.347.1.533,0,.029.009.058.013.087a18.332,18.332,0,0,1,.168,2.821c0,.176,0,.352.007.526.014.347.044.689.084,1.022.1.834.273,1.622.431,2.349.04.183.079.363.116.539s.072.347.1.514.06.352.081.516c.018.138.032.271.039.394.015.283.04.549.068.8s.061.484.092.7c.027.188.051.366.072.538.01.086.019.171.027.254.015.168.025.331.026.495a3.994,3.994,0,0,1-.065.752,1.672,1.672,0,0,0-.027.4,1.418,1.418,0,0,0,.051.3c.007.023.014.046.022.068a1.358,1.358,0,0,0,.239.428,1.579,1.579,0,0,0,.708.475,2.5,2.5,0,0,0,.491.118,4.122,4.122,0,0,0,.587.04h.121a1.368,1.368,0,0,0,.215.437,1.407,1.407,0,0,0,.216.232,1.513,1.513,0,0,0,.253.175,1.833,1.833,0,0,0,.282.125,2.628,2.628,0,0,0,.456.113c.1.017.209.029.313.037s.208.014.311.017.2,0,.3,0h.264l.029,0a1.264,1.264,0,0,0,.975-.45c.525-.641.324-1.634.072-2.891-.078-.383-.157-.779-.214-1.161a8.566,8.566,0,0,1-.059-1.7,26.537,26.537,0,0,1,.361-2.863q.046-.28.087-.537c.069-.441.151-1.245.232-2.168.136-1.537.27-3.4.344-4.465.292.028.657.056,1.1.076s.963.034,1.563.034c.973,0,2.03-.036,3.143-.107.854-.054,1.669-.146,2.43-.26.191-.029.377-.058.561-.089q.551-.093,1.056-.2a29.6,29.6,0,0,0,2.868-.739c.2-.064.384-.123.54-.176l.122.264q.134.287.317.676c.123.26.263.555.422.889s.337.705.535,1.118l.314.651a11.309,11.309,0,0,1,1.208,4.5c.005.136.01.268.01.4a12.452,12.452,0,0,1-.118,1.713c-.014.108-.036.223-.061.343-.037.171-.082.35-.139.538-.1.318-.218.657-.356,1-.06.15-.124.3-.19.452a23.966,23.966,0,0,1-1.387,2.7l-.028.048a1.939,1.939,0,0,0-.3.9v0a1.139,1.139,0,0,0,.016.234,1.121,1.121,0,0,0,.471.736,1.4,1.4,0,0,0,.422.191,2.743,2.743,0,0,0,.747.081c.172,0,.346-.008.514-.015l.214-.009c.075,0,.146,0,.213,0a1.379,1.379,0,0,0,1.031-.419,1.939,1.939,0,0,0,.23-.286q.051-.078.1-.161a4.466,4.466,0,0,0,.314-.728c.066-.192.126-.388.184-.579a12.2,12.2,0,0,1,.582-1.621c.058-.126.126-.268.2-.416.144-.3.309-.631.483-.981a27.7,27.7,0,0,0,2.018-4.678c.033-.134.061-.261.08-.381a2.268,2.268,0,0,0,.024-.655c-.007-.057-.018-.116-.029-.179-.024-.125-.055-.26-.092-.4-.018-.072-.039-.146-.06-.221a7.646,7.646,0,0,1,1.731,3.189q.088.288.161.578t.133.58c.072.354.127.7.165,1.033.016.139.03.276.04.409.016.219.024.439.024.657s-.007.45-.022.668-.033.4-.057.6-.057.394-.093.578a5.823,5.823,0,0,1-.339,1.168,1.888,1.888,0,0,1-.25.439,1.932,1.932,0,0,0-.269.425,1.26,1.26,0,0,0-.108.373,1.021,1.021,0,0,0,.01.315,1.03,1.03,0,0,0,.176.408,1.633,1.633,0,0,0,1.27.555c.107.009.216.014.326.018.163,0,.328,0,.489,0H79a1.355,1.355,0,0,0,.866-.308c.043-.034.084-.071.126-.11a3.225,3.225,0,0,0,.711-1.185c.037-.1.074-.2.108-.309.027-.085.053-.172.078-.262.072-.255.132-.518.183-.781.077-.393.132-.784.169-1.14.013-.119.023-.233.031-.343.017-.219.027-.418.03-.587l0-.114c0-.115.005-.245.009-.4q.006-.314.013-.629c.008-.42.015-.841.021-1.259s.011-.831.014-1.236q0-.3,0-.6c0-.791,0-1.537-.024-2.2-.014-.5-.035-.943-.066-1.326q-.029-.362-.068-.64c0-.029-.008-.055-.013-.082-.012-.077-.025-.152-.038-.217-.009-.042-.02-.084-.033-.126a3.166,3.166,0,0,0-.352-.766c-.038-.063-.079-.127-.122-.191-.085-.128-.179-.26-.28-.394-.05-.067-.1-.135-.157-.2-.217-.273-.459-.558-.719-.853-.194-.221-.4-.448-.608-.681l-.384-.43c-.131-.146-.262-.295-.392-.444-.195-.225-.386-.452-.566-.674-.06-.074-.119-.148-.175-.221a8.015,8.015,0,0,1-.58-.836,2.234,2.234,0,0,1-.293-.7c-.238-1.336.755-4.127,1.2-5.187C77.779,350.832,77.9,350.678,78.041,350.5ZM33.249,318.711a2.651,2.651,0,0,1-.191.326,1.954,1.954,0,0,1-.148.206,2.582,2.582,0,0,1-.182.217c-.069.07-.134.15-.213.217s-.153.142-.236.206-.166.129-.25.188-.172.112-.255.165-.168.1-.248.136-.157.076-.23.106a3.412,3.412,0,0,1-.356.127l-.059.016c-.052.013-.081.018-.081.018l.125-.069c.08-.044.189-.112.319-.193s.279-.179.436-.287c.077-.057.157-.113.237-.173s.16-.121.237-.187c.159-.125.309-.262.448-.392.07-.063.133-.131.2-.193s.119-.121.17-.178c.106-.112.191-.207.248-.278s.1-.107.1-.107S33.292,318.63,33.249,318.711Zm-2.586-.544c.05-.081.088-.174.136-.261s.084-.185.125-.277.077-.189.11-.284.064-.19.095-.281.052-.183.077-.267.042-.168.061-.243c.041-.151.065-.278.084-.368s.034-.141.034-.141,0,.029,0,.083c0,.018,0,.038,0,.061a3.16,3.16,0,0,1-.011.382c-.007.079-.013.166-.028.255s-.033.185-.053.282-.051.2-.082.3-.072.2-.108.3a3.672,3.672,0,0,1-.294.553,2.437,2.437,0,0,1-.169.233,2.509,2.509,0,0,1-.17.194c-.056.057-.11.106-.159.148s-.094.076-.131.1a1.08,1.08,0,0,1-.123.078l.026-.027.071-.079c.031-.034.065-.077.1-.127s.08-.107.125-.17.091-.132.138-.207S30.616,318.251,30.663,318.167ZM29.375,319.3a3.8,3.8,0,0,0,.076-.407c.018-.131.033-.255.037-.362s.01-.2.012-.262l0-.076v-.027s.013.035.033.1a1.386,1.386,0,0,1,.063.263,1.043,1.043,0,0,1,.02.18c0,.032,0,.065,0,.1a.744.744,0,0,1,0,.1,1.688,1.688,0,0,1-.018.217c-.01.073-.022.147-.04.22a2.383,2.383,0,0,1-.318.754,1.479,1.479,0,0,1-.234.289s.058-.137.133-.339c.019-.051.038-.106.058-.164s.04-.119.061-.183C29.3,319.575,29.347,319.44,29.375,319.3Zm.055,3.759c-.083-.174-.162-.353-.238-.536s-.148-.37-.217-.559-.135-.383-.205-.572a2.3,2.3,0,0,0-.258-.526,9,9,0,0,0-.777-.918,6.176,6.176,0,0,1-.561-.7c-.055-.082-.107-.167-.154-.252a3.171,3.171,0,0,1-.236-.527,2.907,2.907,0,0,1-.127-.537,4.154,4.154,0,0,1,0-1,4.22,4.22,0,0,1,.437-1.419,3.515,3.515,0,0,1,.212-.358l.084-.121-.019.033-.056.093c-.025.042-.052.093-.084.155s-.066.133-.1.213-.076.172-.112.273-.072.21-.1.33a4.834,4.834,0,0,0-.148.811c-.007.076-.011.153-.014.232s0,.158,0,.239a3.725,3.725,0,0,0,.045.5c.014.084.033.169.056.254a3.214,3.214,0,0,0,.186.5c.039.082.081.165.127.246a3.96,3.96,0,0,0,.32.471c.119.153.249.3.384.448.2.221.418.439.614.681.065.08.129.163.189.251a2.837,2.837,0,0,1,.157.281l.061.14c.013.029.022.054.03.077s.015.047.025.072l.2.571c.067.189.137.374.21.555s.149.358.229.531a9.807,9.807,0,0,0,.51.967,8.382,8.382,0,0,0,.552.811c.187.24.364.455.533.637.081.094.161.177.238.253.037.038.074.074.11.108s.068.067.1.1l.3.281.108.1-.114-.091c-.037-.031-.084-.067-.138-.11s-.116-.093-.184-.151-.14-.127-.221-.2-.166-.151-.252-.242a7.4,7.4,0,0,1-.565-.619,8.6,8.6,0,0,1-.585-.8c-.1-.148-.191-.3-.282-.465S29.511,323.235,29.43,323.06Zm49.253,51.35c-.137.01-.268.018-.38.016s-.207-.008-.274-.012l-.1-.007.1.04c.062.024.15.065.261.1a3.772,3.772,0,0,0,.385.11c.068.015.14.028.213.04-.036.109-.072.208-.107.3a4.57,4.57,0,0,1-.272.6c-.1,0-.207,0-.305-.01s-.191-.013-.279-.024c-.3-.038-.527-.116-.576-.279a.262.262,0,0,1-.01-.075.75.75,0,0,1,.206-.418,5.135,5.135,0,0,0,.814-2.3c.017-.108.032-.218.046-.329.04-.332.065-.675.075-1.017s0-.685-.022-1.017a13.07,13.07,0,0,0-.431-2.422c-.03-.111-.063-.223-.1-.334-.067-.223-.142-.447-.223-.669-.041-.111-.083-.222-.127-.332a9.39,9.39,0,0,0-.617-1.27,10.139,10.139,0,0,1,1.32,1.595,7.15,7.15,0,0,1,1.183,3.225,10.674,10.674,0,0,1-.122,2.781,12.9,12.9,0,0,1-.354,1.668C78.882,374.383,78.781,374.4,78.683,374.41Zm-40.2-45.438a1.628,1.628,0,0,1,.484.272,2.62,2.62,0,0,1,.494.589,3.092,3.092,0,0,1,.29.621,3.659,3.659,0,0,1,.108.384,1.287,1.287,0,0,1-.155-.069.86.86,0,0,1-.133-.084.713.713,0,0,1-.194-.22,3.39,3.39,0,0,0-1.027-1.123c-.232-.166-.475-.311-.723-.458-.137-.081-.277-.165-.418-.253A8.509,8.509,0,0,1,38.482,328.972Zm32.107,45.007a3.228,3.228,0,0,1-.359.114,3.734,3.734,0,0,1-.422.07,3.632,3.632,0,0,1-.38.016c-.114,0-.207-.007-.274-.011l-.077-.005-.028,0,.1.039.112.046c.044.018.093.036.148.053a3.957,3.957,0,0,0,.386.111,3.87,3.87,0,0,0,.463.072l.075,0c-.149.276-.284.5-.394.679-.037.059-.071.112-.1.159-.137.005-.275.011-.4.011a2.986,2.986,0,0,1-.352-.018.865.865,0,0,1-.356-.109.351.351,0,0,1-.061-.048c-.143-.141-.138-.389.121-.818.236-.39.523-.9.813-1.473q.087-.171.174-.347c.173-.354.343-.722.5-1.093a14,14,0,0,0,.534-1.452,6.39,6.39,0,0,0,.22-.976,11.966,11.966,0,0,0,.059-2.954c-.033-.294-.079-.6-.141-.918s-.142-.648-.24-.99a13.852,13.852,0,0,0-.85-2.2q-.319-.66-.579-1.2c-.638-1.332-1.024-2.162-1.232-2.612l-.052-.114-.044-.1-.008-.025-.012-.038-.074-.215c-.033-.091-.075-.2-.126-.326-.025-.063-.053-.129-.083-.2s-.063-.142-.1-.217a5.964,5.964,0,0,0-.578-.994,2.838,2.838,0,0,0-.464-.5,1.693,1.693,0,0,0-.313-.205A1.325,1.325,0,0,0,66,355.12l-.077-.022-.1-.023a1.729,1.729,0,0,0-.715.019,4.233,4.233,0,0,0-.6.194c-.278.109-.536.208-.776.279-.08.023-.158.044-.234.06a3.2,3.2,0,0,1-.748.078l-.122,0c-.072,0-.121-.009-.147-.012l-.019,0s.1.029.285.06a3.279,3.279,0,0,0,.773.031,7.063,7.063,0,0,0,1.078-.195c.1-.022.192-.043.288-.06a2.621,2.621,0,0,1,.287-.038,1.27,1.27,0,0,1,.531.06l.054.021.071.031a1.07,1.07,0,0,1,.1.059,1.143,1.143,0,0,1,.189.165c.03.033.057.071.085.106-1.6-.536-3.729,1.026-6.982.911A10.508,10.508,0,0,1,55.3,356a6.962,6.962,0,0,1-1.586-.958c-.08-.065-.151-.127-.214-.185l-.09-.083c-.056-.054-.1-.1-.145-.146a2.491,2.491,0,0,1-.181-.209s.01.051.027.146c.029.158.076.437.127.8a10.6,10.6,0,0,1,.06,1.273,13.506,13.506,0,0,1-.393,2.928c-.4,1.691-.986,3.321-1.264,5.195a23.184,23.184,0,0,0-.19,4.316c.008.195.018.388.029.577.022.379.051.745.084,1.1.048.526.1,1.016.161,1.457s.114.834.163,1.165a5.066,5.066,0,0,1,.058.7l-.057.016a3.7,3.7,0,0,1-.421.07,3.652,3.652,0,0,1-.381.016c-.113,0-.207-.007-.273-.011l-.078-.005-.027,0,.1.039a2.768,2.768,0,0,0,.261.1,4,4,0,0,0,.385.111,3.914,3.914,0,0,0,.463.072h.02a2.737,2.737,0,0,1-.3,1.1c-.1-.005-.189-.014-.279-.025l-.131-.02a1.748,1.748,0,0,1-.242-.061c-.037-.013-.074-.027-.108-.042-.343-.156-.516-.462-.328-1.063a10.921,10.921,0,0,0-.283-3.486c-.228-1.4-.507-2.985-.643-4.376a13.141,13.141,0,0,1-.072-1.888c.018-.365.031-.694.037-.992s.007-.565,0-.805a10.226,10.226,0,0,0-.074-1.156,4.877,4.877,0,0,0-.332-1.266,1.783,1.783,0,0,0-1.106-1.131,2.846,2.846,0,0,0-.336-.106c-.217-.055-.459-.127-.775-.238-.126-.044-.264-.094-.417-.151l-.24-.091s-.031-.015-.084-.044-.132-.073-.228-.13a7.566,7.566,0,0,1-.945-.667,4.3,4.3,0,0,1-1.281-1.634,34.188,34.188,0,0,0-3.232-6.7,6.331,6.331,0,0,1-.873-2.877c-.029-.256-.05-.518-.067-.785-.042-.664-.051-1.35-.044-2.018.029.255.059.514.093.772.045.277.078.555.131.826s.095.539.159.794.11.5.181.734c.035.115.065.228.1.336s.061.213.1.313c.068.2.13.379.186.539s.121.294.166.407l.148.352-.067-.209-.05-.155c-.035-.116-.085-.255-.128-.418s-.087-.349-.137-.55-.084-.424-.131-.657-.075-.482-.114-.737-.057-.523-.087-.793c-.014-.134-.024-.271-.032-.408s-.015-.275-.025-.412c-.012-.275-.019-.55-.025-.822s0-.537,0-.8c0-.129.005-.255.01-.379s.009-.245.015-.363c.011-.236.025-.459.04-.664.007-.09.013-.176.02-.259s.014-.161.021-.235c.014-.149.027-.282.04-.4a2.951,2.951,0,0,0,.255.168,2.821,2.821,0,0,0,.278.144,3.542,3.542,0,0,0,3.156,2.076c.076.008.146.012.219.019.016.093.032.19.047.292s.034.23.048.352.028.249.044.379c.016.262.051.537.054.824,0,.144.01.29.015.438s0,.3,0,.449c0,.3-.022.61-.04.919s-.064.614-.094.918-.1.6-.144.885-.126.559-.183.821c-.027.131-.061.257-.1.379s-.072.237-.1.349c-.07.223-.121.435-.191.612l-.172.464-.151.406.052-.1.062-.121.083-.163c.063-.123.14-.272.227-.443s.168-.373.265-.589c.046-.109.1-.222.148-.34s.1-.24.142-.37c.089-.257.2-.525.284-.81s.181-.58.255-.886.157-.615.208-.931.121-.631.155-.945q.03-.236.059-.467t.039-.458c.029-.271.031-.535.042-.788,0,.023.01.044.014.067a11.834,11.834,0,0,1,.21,1.764q.014.322.01.658a11.452,11.452,0,0,1-.1,1.377c-.032.234-.073.468-.118.7s-.106.476-.158.715-.107.485-.155.73-.092.491-.133.732a14.338,14.338,0,0,0-.163,1.442,9.217,9.217,0,0,0,.011,1.361,6.968,6.968,0,0,0,.206,1.2c.046.183.108.353.158.517s.12.311.178.452.127.265.184.384c.03.059.06.114.089.166l.084.15c.052.1.1.177.15.248s.087.13.116.179l.1.149-.044-.091-.033-.069c-.012-.027-.026-.056-.042-.088-.046-.1-.106-.217-.164-.369-.04-.1-.091-.208-.136-.328s-.09-.253-.14-.394-.087-.294-.134-.454-.082-.331-.112-.51a7.608,7.608,0,0,1-.119-1.163,8.792,8.792,0,0,1,.073-1.3c.026-.225.061-.454.1-.685s.091-.463.142-.7c.111-.469.23-.933.372-1.408.069-.239.138-.479.207-.717s.123-.49.172-.735.092-.49.126-.734.06-.485.079-.723a11.892,11.892,0,0,0-.078-2.618q-.036-.256-.08-.49c-.029-.156-.059-.3-.091-.446.055.023.112.047.172.076.109.048.225.106.346.172s.244.142.375.217l.19.128c.064.044.128.089.191.137a4.735,4.735,0,0,1,.37.307l.178.164.163.176a3.342,3.342,0,0,1,.3.36,3.067,3.067,0,0,1,.247.365l.108.174.084.172c.026.056.052.108.078.159s.047.1.065.146l.048.132.04.113.077.215-.03-.127-.022-.094-.028-.118-.033-.139c-.026-.1-.069-.2-.11-.324l-.066-.185-.09-.19a3.146,3.146,0,0,0-.211-.4,3.517,3.517,0,0,0-.268-.409l-.151-.2-.167-.193c-.054-.066-.112-.128-.172-.188s-.121-.119-.181-.179c-.121-.116-.25-.221-.373-.326s-.24-.189-.36-.267c.357-.054.706-.12,1.076-.185.123-.022.249-.044.378-.065a16.892,16.892,0,0,1,1.771-.2c.268-.008.544-.014.83-.014.341,0,.693.007,1.053.022a19.445,19.445,0,0,1,3.333.412l.072.009.208.025.337.039c.132.016.285.01.456.019.34.022.755,0,1.231-.016l.367-.029c.379-.029.789-.063,1.227-.112.583-.061,1.214-.14,1.882-.224s1.372-.181,2.1-.266c.365-.045.736-.089,1.113-.129l.569-.063.576-.051c.385-.037.775-.063,1.167-.085s.787-.036,1.182-.048c.2-.007.394-.006.593,0l.593.014c.1,0,.2.01.3.018s.2.018.295.026c.2.021.392.023.587.06s.39.061.58.1c.569.107,1.114.242,1.655.359a31.645,31.645,0,0,1,3.456.937c.145.052.287.1.426.159a7.886,7.886,0,0,1,1.127.536c.111.065.217.132.317.2a3.413,3.413,0,0,1,.9.866,2.126,2.126,0,0,1,.131.209,2.18,2.18,0,0,1,.2.518.858.858,0,0,1,.029.118c.007.035.011.064.016.087l.01.053,0,.018a3.3,3.3,0,0,1-.191,1.82,6.058,6.058,0,0,1-.847,1.437l.016-.057c.044-.173.1-.362.159-.563.029-.1.06-.2.089-.311a5.855,5.855,0,0,0,.282-1.9,3.033,3.033,0,0,0-.078-.533q-.021-.088-.049-.176a3.025,3.025,0,0,0-1.574-1.738,4.06,4.06,0,0,0-.423-.187c-.228-.089-.512-.189-.829-.3l-.393-.131c-.338-.11-.7-.223-1.054-.334q-.334-.079-.68-.154a4.135,4.135,0,0,1,2.436,2.536,3.6,3.6,0,0,1,.093.38,5.664,5.664,0,0,1-.226,2.695c-.028.095-.059.193-.091.3-.129.409-.29.875-.464,1.386-.131.383-.27.792-.411,1.219h0a29.893,29.893,0,0,0-1.5,4.37,14.44,14.44,0,0,0-.409,3.207c-.047-.253-.088-.507-.119-.76a14.774,14.774,0,0,1-.11-1.725q0-.422.015-.83A18.938,18.938,0,0,1,72.7,353.7a20.082,20.082,0,0,1,.471-2.147c.054-.192.1-.352.141-.478l.036-.114c.044-.136.07-.207.07-.207s-.07.156-.183.445c-.037.1-.079.208-.125.334-.091.251-.2.558-.305.913s-.223.761-.331,1.207a19.427,19.427,0,0,0-.409,2.261q-.049.414-.079.848a13.983,13.983,0,0,0,.2,3.642c.016.076.032.157.048.235s.033.156.052.228l.113.449c.074.286.14.573.2.858a15.934,15.934,0,0,1,.246,1.691,17.024,17.024,0,0,1,0,3.012c-.028.329-.064.636-.1.917-.027.187-.055.363-.084.527-.044.245-.088.461-.129.646-.018.083-.036.157-.053.226-.087.176-.175.349-.262.525s-.173.352-.255.534a7.478,7.478,0,0,0-.426,1.18A14.044,14.044,0,0,1,70.589,373.978Zm-22.213-1.767c-.057-.725-.217-1.449-.266-2.377a9.019,9.019,0,0,0-.171-1.219q-.033-.165-.069-.335c-.048-.227-.1-.461-.151-.7-.026-.121-.052-.243-.078-.366-.052-.247-.1-.5-.151-.757-.072-.386-.134-.785-.177-1.191a10.509,10.509,0,0,1-.063-1.241c.008-.664-.013-1.321-.063-1.942-.034-.413-.081-.811-.142-1.182a8.019,8.019,0,0,0-.366-1.475,4.566,4.566,0,0,0,.7.255c.106.029.205.052.3.071s.178.032.255.042a14.493,14.493,0,0,1,.353,3.391c-.021,1.148-.006,2,.054,2.77.009.11.018.218.029.324.02.214.045.422.074.631.085.627.205,1.255.364,2.015.033.156.065.318.1.485.063.334.125.686.185,1.045.029.179.058.36.087.54.112.723.211,1.442.292,2.054-.029.011-.058.023-.088.031-.051.015-.1.026-.155.039l-.157.023a2.1,2.1,0,0,1-.287.008,1.667,1.667,0,0,1-.207-.018l-.08-.01.071.037a1.679,1.679,0,0,0,.193.093,2.4,2.4,0,0,0,.292.1l.175.038c.061.007.123.017.187.022.034,0,.069,0,.1,0,.014.111.027.217.04.316.037.3.067.546.087.719h-.025a3.257,3.257,0,0,1-.5-.035,2.069,2.069,0,0,1-.235-.052.661.661,0,0,1-.555-.8,4.7,4.7,0,0,0,.078-.912C48.394,372.5,48.387,372.356,48.376,372.211Zm-9.77-37.688.068-.015c.029-.007.065-.016.1-.027a.312.312,0,0,1,.063-.01c.022,0,.045,0,.068-.008a.5.5,0,0,1,.144,0,.6.6,0,0,0-.057.43,1.771,1.771,0,0,0,.049.23c.3,1.079.892.174.968.052l.076.095.11.136a1.186,1.186,0,0,0-.068-.349,1.528,1.528,0,0,0-.159-.332,1.332,1.332,0,0,0-.129-.17,1.047,1.047,0,0,0-.369-.27.791.791,0,0,0-.225-.052c-.038,0-.075-.005-.111,0a.626.626,0,0,0-.1.018l-.095.022a.631.631,0,0,0-.08.039.676.676,0,0,0-.13.078c-.034.029-.061.057-.084.079l-.048.05a2.093,2.093,0,0,0-.129-.2,3.483,3.483,0,0,0-.719-.688c-.069-.052-.141-.1-.213-.155-.217-.154-.444-.305-.666-.463-.074-.053-.147-.107-.219-.161a5.256,5.256,0,0,1-.417-.347,2.8,2.8,0,0,1-.646-.856c-.07-.151-.134-.307-.193-.465a3.992,3.992,0,0,0,.454.564,3.056,3.056,0,0,0,.334.3l-.049-.107c-.033-.068-.076-.172-.133-.3-.028-.063-.057-.135-.086-.213s-.059-.163-.09-.252a5.7,5.7,0,0,1-.169-.6,4.346,4.346,0,0,1-.1-.708,2.773,2.773,0,0,1,.027-.554,1.5,1.5,0,0,1,.038-.172.881.881,0,0,1,.054-.152.513.513,0,0,1,.067-.111c.048-.061.071-.055.072-.048a.583.583,0,0,1,.083.028.432.432,0,0,1,.056.031.99.99,0,0,1,.128.091c.045.037.091.079.137.123s.091.095.136.146.089.106.131.162.087.112.125.168l.131.188a5.685,5.685,0,0,0,.634.759,6.722,6.722,0,0,0,.676.6,7.872,7.872,0,0,0,.657.456,6.328,6.328,0,0,0,.587.328c.177.092.337.163.471.217a3.606,3.606,0,0,0,.427.153s-.111-.125-.306-.33l-.161-.172-.191-.2a2.328,2.328,0,0,0,.26.087.125.125,0,0,0,.031.039,1.36,1.36,0,0,0,.612.2c.049.007.1.014.152.018.448.044.833-.006.9-.111h.425c.065.1.45.155.9.111a1.422,1.422,0,0,0,.78-.235c.059-.015.122-.033.187-.052l-.165.176-.142.151-.128.136c-.075.08-.127.138-.153.167l-.02.022a3.582,3.582,0,0,0,.422-.151c.131-.053.289-.123.465-.213s.373-.194.58-.322a7.548,7.548,0,0,0,.649-.448,6.983,6.983,0,0,0,.67-.586,5.68,5.68,0,0,0,.631-.742l.07-.1.065-.1c.042-.061.079-.112.123-.17.087-.113.172-.225.264-.327.045-.05.091-.1.138-.145a2,2,0,0,1,.281-.235.916.916,0,0,1,.132-.075.4.4,0,0,1,.183-.048.152.152,0,0,1,.058.01.16.16,0,0,1,.033.018.261.261,0,0,1,.037.031.468.468,0,0,1,.075.1,1.335,1.335,0,0,1,.148.458,3.139,3.139,0,0,1,.02.686,5.478,5.478,0,0,1-.082.611c-.018.092-.036.178-.054.259s-.035.155-.054.221l-.116.424a3.222,3.222,0,0,0,.284-.344c.057-.078.121-.171.187-.278a3.947,3.947,0,0,0,.2-.365c-.035.123-.075.241-.119.355s-.091.224-.141.329a3.974,3.974,0,0,1-.714,1.046c-.065.068-.132.132-.2.19s-.134.112-.2.161c-.219.16-.486.318-.76.488-.164.1-.332.207-.493.319a2.7,2.7,0,0,0-1.005,1.088l-.042-.039a.7.7,0,0,0-.13-.078.631.631,0,0,0-.08-.039l-.095-.022a.639.639,0,0,0-.1-.018c-.036,0-.073,0-.111,0a.8.8,0,0,0-.226.052c-.034.017-.069.034-.1.053a.638.638,0,0,0-.1.064,1.047,1.047,0,0,0-.166.153.671.671,0,0,0-.069.084c-.02.029-.039.059-.059.086a1.5,1.5,0,0,0-.159.332c-.017.051-.03.1-.04.14a.992.992,0,0,0-.029.209l.185-.231c.076.122.67,1.027.968-.052a.81.81,0,0,0-.007-.659.505.505,0,0,1,.144,0c.046.009.093.007.131.018l.057.014a1.475,1.475,0,0,0-.054.189c-.025.119-.053.242-.084.369s-.064.259-.1.394a2.953,2.953,0,0,1-.3.712c-.039.073-.078.148-.118.23a3.253,3.253,0,0,0-.168.429,5.307,5.307,0,0,0-.2,1.162,6.026,6.026,0,0,1-.258,1.655c-.042.059-.085.117-.133.173a1.958,1.958,0,0,1-1.569.7,2.725,2.725,0,0,1-2.488-2.2c-.03-.13-.061-.256-.093-.379-.129-.492-.274-.937-.38-1.424a6.52,6.52,0,0,1-.123-.771c-.014-.137-.023-.279-.027-.428A1.711,1.711,0,0,0,38.606,334.523Zm1.039.123a.085.085,0,0,1-.017.05.246.246,0,0,1-.2.079.3.3,0,0,1-.132-.03c0,.034-.049.061-.106.061a.123.123,0,0,1-.1-.04.043.043,0,0,1-.008-.025c0-.035.048-.064.108-.064a.209.209,0,0,1,.036,0,.088.088,0,0,1-.012-.035c0-.072.1-.129.215-.129a.246.246,0,0,1,.2.078A.088.088,0,0,1,39.645,334.646Zm3.963-4.473a2.22,2.22,0,0,1,.561-.756,1.3,1.3,0,0,1,.265-.174A3.336,3.336,0,0,1,45,329.03c.144-.043.3-.083.466-.122l.256-.059a8.943,8.943,0,0,0-1.914,1.77l-.128.16-.023.029-.023.029-.1.029-.1.029A2.336,2.336,0,0,1,43.608,330.173Zm.75,4.381a.113.113,0,0,1,.063.091.088.088,0,0,1-.012.035.2.2,0,0,1,.036,0,.152.152,0,0,1,.076.018.057.057,0,0,1,.031.046c0,.036-.048.065-.108.065s-.1-.027-.106-.061a.306.306,0,0,1-.133.03.246.246,0,0,1-.2-.079.085.085,0,0,1-.017-.05.113.113,0,0,1,.063-.091.325.325,0,0,1,.3,0Zm11.208-15.809.1-.195.093-.211a3.252,3.252,0,0,0,.136-.458,2.23,2.23,0,0,0,.044-.243c.011-.082.018-.165.024-.248s.009-.166.009-.249,0-.166-.009-.248c-.011-.164-.031-.326-.054-.482a6.16,6.16,0,0,0-.2-.842c-.08-.243-.149-.444-.208-.582-.028-.07-.051-.123-.067-.16l-.018-.042-.006-.014s.05.069.127.2a4.859,4.859,0,0,1,.278.561c.048.12.1.252.144.394a4.488,4.488,0,0,1,.123.454c.015.08.031.162.044.245s.024.168.029.254a3.834,3.834,0,0,1,.007.524,3.156,3.156,0,0,1-.078.52,2.127,2.127,0,0,1-.071.249c-.029.08-.06.159-.091.235s-.072.149-.109.218l-.125.2-.132.176-.136.154a2.447,2.447,0,0,1-.26.243c-.085.063-.155.123-.219.163l-.085.055-.063.04-.052.032.046-.041.131-.115c.057-.048.119-.115.193-.187l.11-.123q.056-.065.116-.139l.117-.157C55.491,318.866,55.527,318.806,55.566,318.746Zm-2.24.783a2.14,2.14,0,0,1,.016-.223c.007-.072.017-.141.029-.206s.027-.126.042-.183a1.546,1.546,0,0,1,.139-.359l0,.028c0,.053-.016.181-.025.349,0,.056,0,.117-.006.18,0,.192,0,.414,0,.636,0,.148.016.3.025.435s.024.27.034.381.019.208.025.273l0,.078v.027l-.044-.1c-.013-.031-.03-.069-.047-.112s-.035-.093-.051-.148a3.028,3.028,0,0,1-.1-.382,3.863,3.863,0,0,1-.05-.449C53.325,319.681,53.325,319.6,53.327,319.528Zm-1.095-1.089c.032.082.063.163.091.238s.062.146.09.211.051.127.077.179l.063.137c.035.076.053.122.053.122l-.022-.027c-.014-.018-.034-.044-.059-.078a2.779,2.779,0,0,1-.2-.289c-.036-.063-.08-.128-.116-.2s-.08-.151-.116-.234a4.529,4.529,0,0,1-.2-.534,4.173,4.173,0,0,1-.12-.558,3.832,3.832,0,0,1-.035-.495,2.245,2.245,0,0,1,.044-.481l.009.131c0,.042.008.092.016.15s.016.123.025.193c.018.141.049.3.087.476.016.087.04.175.061.266s.049.18.074.27C52.11,318.1,52.173,318.273,52.232,318.44Zm-.127,2.854-.058-.031a3.454,3.454,0,0,1-.347-.211c-.072-.046-.142-.1-.218-.162s-.153-.125-.232-.195-.157-.144-.235-.223-.155-.16-.23-.242-.146-.17-.215-.255-.136-.171-.2-.255c-.124-.169-.232-.332-.318-.475s-.151-.268-.2-.354c-.012-.021-.021-.041-.029-.058-.025-.051-.037-.08-.037-.08l.354.427c.106.127.23.276.363.433s.277.323.423.486c.074.081.145.165.221.242s.144.159.218.23.14.146.209.21.13.13.191.184c.122.111.221.209.3.268s.114.1.114.1S52.156,321.32,52.105,321.293Zm-5.852,6.522c.174-.071.4-.171.668-.289l.281-.123.3-.136q.157-.071.324-.149l.34-.161.356-.17A16.542,16.542,0,0,0,49.994,326a7.708,7.708,0,0,0,.7-.467,3.774,3.774,0,0,0,.582-.558,5.583,5.583,0,0,0,.455-.608,6.65,6.65,0,0,0,.343-.593c.094-.191.181-.366.249-.526s.125-.3.169-.417c.022-.058.042-.11.058-.156.05-.137.076-.213.076-.213s-.016.079-.053.22c-.012.048-.027.1-.044.162a7.509,7.509,0,0,1-.354.977,6.62,6.62,0,0,1-.321.621,4.443,4.443,0,0,1-.446.643,3.912,3.912,0,0,1-.6.593c-.114.091-.23.174-.347.254s-.238.157-.363.236a16.308,16.308,0,0,1-1.5.778c-.487.227-.955.408-1.355.563s-.741.266-.978.346c-.119.039-.213.067-.277.087l-.1.029.095-.04Zm-.269-1.171.131-.06c.1-.045.206-.1.329-.158l.193-.1c.067-.033.136-.068.208-.106s.145-.076.22-.117c.151-.081.306-.174.467-.266s.323-.2.488-.3.327-.219.484-.339.311-.236.46-.366.29-.253.416-.39a5.1,5.1,0,0,0,.627-.791c.119-.189.216-.359.289-.5.025-.046.046-.09.065-.129l.051-.106.061-.126.008-.017s-.007.025-.02.07-.035.111-.064.194a4.484,4.484,0,0,1-.888,1.522,4.681,4.681,0,0,1-.416.414c-.147.13-.308.264-.47.383s-.332.232-.5.341-.339.2-.505.293c-.083.045-.166.087-.247.128-.245.121-.479.223-.687.311-.139.059-.268.107-.384.147l-.163.055-.138.045c-.168.053-.266.076-.266.076Zm-3.835,3.91c.012-.078.033-.189.063-.331s.076-.313.136-.507c.03-.1.064-.2.1-.307s.083-.218.133-.333a7.434,7.434,0,0,1,.36-.724,5.87,5.87,0,0,1,.507-.749c.1-.124.2-.245.313-.366l.338-.347a7.188,7.188,0,0,0,.634-.737,4.07,4.07,0,0,0,.477-.838c.063-.147.118-.3.168-.446s.1-.3.139-.448l.249-.858c.08-.274.151-.532.228-.771a5.309,5.309,0,0,1,.5-1.1,2.431,2.431,0,0,1,.2-.274c.05-.06.078-.09.078-.09a1.732,1.732,0,0,0-.15.214c-.03.048-.062.1-.1.167a5.365,5.365,0,0,0-.435,1.108c-.068.236-.127.5-.2.775s-.135.569-.216.869a7.883,7.883,0,0,1-.3.918,4.378,4.378,0,0,1-.216.454,4.243,4.243,0,0,1-.27.428,4.791,4.791,0,0,1-.317.392c-.112.125-.228.245-.343.361l-.343.342c-.106.115-.209.23-.305.349a8.166,8.166,0,0,0-.516.717,7.068,7.068,0,0,0-.384.695c-.106.222-.193.431-.267.618-.036.094-.068.183-.1.264s-.052.159-.073.228c-.083.277-.121.439-.121.439Zm-5.529-8.573c-.034-.113-.069-.217-.1-.307a2.128,2.128,0,0,0-.1-.23c-.016-.031-.031-.059-.044-.082a1.157,1.157,0,0,0-.067-.108,1.053,1.053,0,0,1,.144.17,2.569,2.569,0,0,1,.275.52,4.424,4.424,0,0,1,.228.8c.027.15.052.306.065.465s.03.316.044.476.038.31.068.463.057.3.094.446.073.283.112.413c.02.065.04.129.06.189s.041.119.063.175l.061.159c.02.051.04.1.058.144.037.09.072.168.1.23.061.126.1.2.1.2s-.014-.015-.037-.045-.057-.074-.1-.133l-.063-.1a3.748,3.748,0,0,1-.228-.41c-.051-.11-.1-.23-.157-.36s-.1-.269-.143-.416c-.021-.073-.043-.148-.062-.223s-.037-.154-.052-.232c-.033-.157-.055-.32-.077-.482s-.025-.319-.037-.476-.026-.308-.047-.454A5.191,5.191,0,0,0,36.62,321.981Zm-1.375,4.1c-.065-.037-.131-.077-.2-.121s-.134-.089-.2-.136c-.135-.094-.279-.186-.411-.3s-.277-.213-.405-.334-.262-.236-.379-.365c-.06-.063-.119-.126-.177-.188l-.16-.2a4.171,4.171,0,0,1-.279-.388c-.038-.066-.076-.129-.112-.191a1.986,1.986,0,0,1-.1-.183,2.46,2.46,0,0,1-.138-.335c-.016-.052-.03-.1-.042-.145s-.022-.087-.029-.125a1.143,1.143,0,0,1-.022-.178c0-.02,0-.036,0-.046v-.016l0,.016a1.47,1.47,0,0,0,.058.215,2.36,2.36,0,0,0,.1.252c.024.047.049.1.076.148s.058.106.091.161c.061.113.146.225.229.346s.185.24.294.358l.162.183.177.178c.114.125.247.235.374.351s.262.223.392.332.264.209.394.306.252.2.377.277l.345.24c.106.076.209.137.3.2l.124.082.106.07.146.1.052.035-.217-.1-.248-.121a3.527,3.527,0,0,1-.317-.166Z" transform="translate(-4.261)" fill="#616161"/>
    <path id="Path_28" data-name="Path 28" d="M58.476,379.459c.084.172.127.276.127.276a1.873,1.873,0,0,0-.014-.309,3.42,3.42,0,0,0-.057-.351l-.052-.213c-.02-.075-.047-.152-.073-.233s-.061-.163-.093-.25-.078-.17-.119-.26l-.142-.267c-.052-.09-.112-.177-.17-.268a4.611,4.611,0,0,0-.421-.518,4.514,4.514,0,0,0-.512-.46l-.258-.2-.123-.093-.115-.1a4.945,4.945,0,0,1-.431-.411c-.067-.07-.131-.14-.191-.212s-.121-.141-.173-.213-.106-.142-.153-.213a2.436,2.436,0,0,1-.137-.205c-.042-.067-.081-.133-.117-.2s-.069-.124-.1-.182c-.059-.116-.11-.22-.148-.308-.077-.174-.113-.281-.113-.281s0,.028-.006.08a2.024,2.024,0,0,0,.005.229,2.554,2.554,0,0,0,.049.354,2.819,2.819,0,0,0,.124.449c.027.082.059.165.1.251s.079.172.127.258.1.176.152.265.116.176.183.262c.031.045.065.088.1.13s.073.084.11.125a2.74,2.74,0,0,0,.236.243,2.647,2.647,0,0,0,.258.228l.257.205a5.693,5.693,0,0,1,.47.4l.213.213.2.219.183.222.168.221c.1.148.2.291.284.426s.156.264.22.38l.084.165Z" transform="translate(-13.354 -19.176)" fill="#616161"/>
    <path id="Path_29" data-name="Path 29" d="M77,371.511c-.059-.069-.1-.169-.163-.267a1.067,1.067,0,0,1-.086-.17l-.089-.19c-.032-.066-.052-.141-.08-.215s-.061-.147-.08-.23c-.048-.161-.1-.331-.132-.51a2.364,2.364,0,0,1-.054-.273c-.014-.093-.028-.188-.047-.282-.02-.192-.053-.385-.059-.581s-.025-.392-.029-.586,0-.384,0-.569c.007-.092.011-.183.014-.272s.009-.176.019-.261c.015-.169.029-.33.051-.477.008-.074.018-.146.028-.213s.021-.131.032-.191c.02-.121.035-.227.057-.313.028-.13.044-.22.051-.258l0-.018s-.052.087-.138.247a2.462,2.462,0,0,0-.136.294c-.024.059-.05.121-.077.185s-.044.138-.069.211-.046.152-.072.232l-.057.252a5.033,5.033,0,0,0-.1.552c-.014.1-.018.195-.028.294a2.8,2.8,0,0,0-.016.3c0,.1,0,.205,0,.309s.006.208.014.311.018.207.033.31.031.206.044.307a5.335,5.335,0,0,0,.147.586,2.636,2.636,0,0,0,.093.274c.035.089.073.174.109.256s.077.16.119.234.084.144.126.21a2.737,2.737,0,0,0,.263.341,1.975,1.975,0,0,0,.237.228l.1.071c.084.061.131.094.131.094l-.011-.016C77.138,371.692,77.085,371.618,77,371.511Z" transform="translate(-20.008 -16.51)" fill="#616161"/>
    <path id="Path_30" data-name="Path 30" d="M63.881,362.35c-.038.082-.076.17-.112.261s-.072.187-.1.287-.062.2-.095.309c-.016.053-.029.107-.041.161s-.023.111-.036.167a3.286,3.286,0,0,0-.061.343c-.016.116-.038.235-.044.354s-.017.241-.025.362l0,.364c0,.122.007.243.014.364s.018.24.031.359.028.236.046.351.037.228.061.339c.037.223.1.433.153.633s.119.384.175.554.124.323.179.458.112.248.157.342c.023.047.044.089.062.125l.048.092c.026.05.041.076.041.076s-.01-.121-.038-.328c-.007-.051-.015-.108-.024-.169-.017-.123-.037-.266-.059-.426-.012-.08-.023-.163-.035-.251-.02-.175-.046-.362-.072-.561s-.048-.407-.065-.623q-.015-.161-.031-.327c-.008-.111-.015-.223-.022-.336s-.01-.226-.016-.339-.012-.228-.009-.342v-.342c0-.113.007-.225.012-.338.014-.223.024-.443.05-.655s.05-.417.082-.612c.011-.1.04-.189.054-.281.01-.046.017-.091.025-.136a1.267,1.267,0,0,1,.029-.129c.022-.083.041-.165.059-.242s.037-.151.058-.219c.043-.136.068-.26.1-.356.065-.2.1-.314.1-.314s-.043.051-.117.148c-.025.033-.053.07-.084.113a3.176,3.176,0,0,0-.207.319A4.1,4.1,0,0,0,63.881,362.35Z" transform="translate(-16.055 -15.138)" fill="#616161"/>
    <path id="Path_31" data-name="Path 31" d="M48.6,351.463a1.7,1.7,0,0,0,.768-.146.813.813,0,0,0,.191-.132.724.724,0,0,0,.133-.168,1.217,1.217,0,0,0,.088-.81c-.119-.719-.612-.627-1.1-.582s-.881-.23-1.18.46a.943.943,0,0,0,.059.947A1.229,1.229,0,0,0,48.6,351.463Z" transform="translate(-10.966 -11.396)" fill="#616161"/>
    <path id="Path_32" data-name="Path 32" d="M42.928,340.773c.022-.267.225-.362.42-.405s.379-.033.363-.09a.053.053,0,0,0-.009-.018.3.3,0,0,0-.052-.046l-.044-.031c-.1-.067-.285-.166-.578-.317-1.567-.809-2.507-3.893-2.375-2.221S42.928,340.773,42.928,340.773Z" transform="translate(-8.812 -7.431)" fill="#616161"/>
    <path id="Path_33" data-name="Path 33" d="M53.353,339.743c-.674.242-.8.311-.709.357a.135.135,0,0,0,.025.011,1.117,1.117,0,0,0,.108.031c.058.015.125.033.193.057a.688.688,0,0,1,.237.134.379.379,0,0,1,.07.084.4.4,0,0,1,.057.238,7.156,7.156,0,0,0,.751-.455c.142-.1.295-.208.451-.332s.313-.261.467-.409c.076-.074.151-.151.223-.231A3.059,3.059,0,0,0,56,337.849C56.347,336.209,55.012,339.145,53.353,339.743Z" transform="translate(-12.631 -7.495)" fill="#616161"/>
  </g>
</svg>
