<svg xmlns="http://www.w3.org/2000/svg" width="104.263" height="62.536" viewBox="0 0 104.263 62.536">
  <g id="features-icon03" transform="translate(-321.84 -47.317)">
    <path id="Path_4" data-name="Path 4" d="M351.054,99.359c.022-.179.036-.319.046-.415s.013-.146.013-.146-.052.105-.14.294c-.029.062-.062.134-.1.215s-.074.17-.121.265-.1.2-.158.3a7.534,7.534,0,0,1-.394.708c-.142.259-.333.515-.518.791a4.809,4.809,0,0,1-.315.4c-.056.067-.109.137-.164.207a2.244,2.244,0,0,1-.176.2l-.372.4q-.207.189-.407.39c-.131.137-.288.251-.432.378a4.839,4.839,0,0,1-.454.359c-.3.246-.624.459-.942.674-.333.193-.64.419-.969.589-.16.09-.319.18-.475.266s-.31.169-.462.247c-.3.163-.594.3-.861.439l-.391.189-.925.449c-.321.156-.5.253-.5.253s.115-.013.322-.042l.236-.034c.176-.029.391-.057.633-.117s.525-.107.818-.2c.147-.044.3-.086.462-.134s.323-.1.488-.167.338-.121.511-.19.348-.144.523-.23a11.549,11.549,0,0,0,1.068-.552c.174-.11.35-.22.524-.335s.346-.235.512-.364a5.341,5.341,0,0,0,.485-.4c.154-.144.319-.272.459-.426s.287-.3.422-.452l.372-.477a7.249,7.249,0,0,0,.607-.963,6.376,6.376,0,0,0,.41-.928c.051-.148.108-.287.149-.423s.066-.269.1-.392A4.1,4.1,0,0,0,351.054,99.359Z" fill="#616161"/>
    <g id="Group_3" data-name="Group 3">
      <path id="Path_5" data-name="Path 5" d="M329.575,66.677a.906.906,0,0,0,1.233.648.863.863,0,0,0,.207-.111.727.727,0,0,0,.126-1.027.679.679,0,0,0-.13-.127l.033,0,.349-.052c.087-.016.14-.029.14-.029a1.371,1.371,0,0,0-.123-.073,1.48,1.48,0,0,0-.344-.142,1.058,1.058,0,0,0-.246-.054,1.127,1.127,0,0,0-.288-.016,1.292,1.292,0,0,0-.315.041,1.526,1.526,0,0,0-.314.117,1.782,1.782,0,0,0-.494.393,4.4,4.4,0,0,0-.306.394c-.043.057-.081.108-.114.155s-.065.087-.094.122c-.058.068-.089.111-.089.111s.052-.006.14-.023a1.329,1.329,0,0,0,.351-.143A2.814,2.814,0,0,0,329.575,66.677Z" fill="#616161"/>
      <g id="Group_2" data-name="Group 2">
        <path id="Path_6" data-name="Path 6" d="M405.058,87.821s.161-.227.43-.632c.135-.2.3-.448.462-.745s.371-.623.554-1,.4-.776.584-1.219c.2-.436.385-.91.565-1.4.091-.247.167-.5.253-.76.044-.128.086-.258.126-.389s.075-.264.106-.4c.148-.533.266-1.083.377-1.635.043-.278.088-.556.128-.833s.073-.555.094-.832.05-.55.059-.821.012-.54.019-.8c0-.528-.018-1.037-.067-1.518a13.255,13.255,0,0,0-.174-1.346c-.03-.208-.067-.4-.107-.592s-.083-.363-.125-.528-.077-.32-.116-.462-.079-.271-.118-.387c-.15-.465-.243-.726-.243-.726s.016.28.06.762c.028.239.043.532.062.867.012.167.023.344.032.531s.016.383.02.588c.02.409.012.852.011,1.319,0,.233-.009.473-.021.717s-.028.494-.037.747c-.037.507-.088,1.028-.153,1.556-.05.53-.153,1.061-.244,1.594-.048.266-.1.532-.152.795s-.113.526-.179.785-.124.516-.191.769-.134.5-.2.749c-.155.485-.277.964-.432,1.407s-.288.867-.426,1.254c-.066.195-.133.38-.2.556s-.128.342-.185.5c-.114.314-.216.591-.307.817C405.15,87.558,405.058,87.821,405.058,87.821Z" fill="#616161"/>
        <g id="Group_1" data-name="Group 1">
          <path id="Path_7" data-name="Path 7" d="M424.105,89.059a19.831,19.831,0,0,0-1.567-2.268q-.225-.288-.459-.576c-.468-.577-.957-1.155-1.44-1.726-.284-.335-.575-.679-.863-1.025a23.668,23.668,0,0,1-2.194-2.954,3.982,3.982,0,0,1-.451-1.036,1.442,1.442,0,0,1,0-.484,14.958,14.958,0,0,1,.644-2.287c.232-.695.493-1.479.726-2.349.058-.218.114-.44.168-.668a18.8,18.8,0,0,0,.385-2.194,16.123,16.123,0,0,0-.809-7.176,13,13,0,0,0-1-2.188c-2.566-4.516-7.955-8.366-13.958-11.02a48.561,48.561,0,0,0-9.667-3.12q-.818-.169-1.611-.3a29.59,29.59,0,0,0-4.641-.375,34.665,34.665,0,0,0-8.116,1.08l-1.042.244a47.312,47.312,0,0,1-5.3,1.036q-.471.057-.931.1c-.921.085-1.817.126-2.715.126-.784,0-1.517-.032-2.218-.078s-1.371-.11-2.03-.171l-.955-.087c-.949-.082-1.887-.146-2.9-.146h0c-.412,0-.815.011-1.215.033s-.8.054-1.194.1a16.23,16.23,0,0,0-4.782,1.419c-.363.153-.728.307-1.106.457a17.581,17.581,0,0,1-4.674,1.191c-.2.024-.4.045-.616.064-.423.037-.871.065-1.348.082a5,5,0,0,0-3.534-1.454h0a5.423,5.423,0,0,0-1.132.122,6.339,6.339,0,0,0-1.147.364c-.139-.022-.291-.041-.453-.055s-.334-.022-.513-.022a4.861,4.861,0,0,0-1.04.118,3.752,3.752,0,0,0-1.462.634,3.371,3.371,0,0,0-.9.995,3.651,3.651,0,0,0-.4.953c-1.856,1.02-5.86,3.494-7.241,6.506a5.7,5.7,0,0,0-.239.61c-.294.9-.485,1.644-.654,2.3-.118.461-.22.859-.336,1.225-.057.183-.119.358-.187.529-.034.085-.07.17-.108.253a5.541,5.541,0,0,1-.26.5,9.435,9.435,0,0,1-1.657,1.965c-.627.6-1.177,1.14-1.634,1.642a4.248,4.248,0,0,0-1.485,3.113,3.087,3.087,0,0,0,1.217,2.141c.175.146.339.264.468.357.111.079.232.178.36.288s.264.23.4.355.273.244.42.371a9.99,9.99,0,0,0,1.422,1.052c.132.079.267.155.408.226a5.575,5.575,0,0,0,2.545.612c.171,0,.344-.008.518-.024a6.448,6.448,0,0,0,1.057-.187q.267-.07.536-.163a2.446,2.446,0,0,1,.771-.164.661.661,0,0,1,.151.015.676.676,0,0,1,.152.056c.027.014.056.03.088.049.063.037.135.085.225.148l.147.1c.138.1.292.207.467.317.117.073.245.145.38.215a4.17,4.17,0,0,0,.547.239,3.757,3.757,0,0,0,1.239.207,4.273,4.273,0,0,0,.66-.053c.086-.014.183-.028.29-.042.205-.027.449-.053.722-.078.3-.028.647-.053,1.021-.073.519-.027,1.1-.045,1.71-.045a22.265,22.265,0,0,1,3.613.254c.148.025.289.051.421.078a4.061,4.061,0,0,1,1.911.726c.071.911.085,1.8.069,2.693s-.061,1.786-.108,2.705c-.054,1.067-.11,2.171-.12,3.318a34.045,34.045,0,0,1-1.089,8.029c-.043.166-.087.331-.131.492q-.134.485-.274.935c-.7,2.251-1.5,3.825-2.039,4.168-.608.19-1.291.348-1.947.488l-.643.134c-.4.083-.785.163-1.149.248-.121.028-.24.057-.356.087a8.614,8.614,0,0,0-.971.3,4.016,4.016,0,0,0-.8.408,2.551,2.551,0,0,0-.422.355,2.143,2.143,0,0,0-.173.208,2.215,2.215,0,0,0-.357.774,4.869,4.869,0,0,0-.1.526,3.423,3.423,0,0,0,.154,1.657,2.954,2.954,0,0,0,.284.574c.052.082.106.158.16.227a3.113,3.113,0,0,0,.416.44c.075.065.153.126.232.183a4.109,4.109,0,0,0,1.33.607,8.964,8.964,0,0,0,2.31.248q.366,0,.774-.017t.859-.051c.6-.046,1.268-.115,2-.207a15.017,15.017,0,0,0,6.986-2.753,17.928,17.928,0,0,0,1.77-1.453q.431-.4.849-.84a24.29,24.29,0,0,0,1.959-2.358q.46-.625.907-1.3.378-.578.747-1.193c.342-.572.679-1.16,1.007-1.782l.2-.382c.36-.681.725-1.369,1.09-2.055.434-.814.867-1.625,1.292-2.416.707-1.318,1.39-2.583,2.005-3.719.246-.455.482-.889.7-1.3.333-.614.636-1.17.9-1.653l.341.276q.176.141.361.287c.371.293.768.6,1.183.909q.209.154.421.309c.283.206.573.411.866.612a25.59,25.59,0,0,0,2.209,1.371,13.017,13.017,0,0,0,1.267.608,5.567,5.567,0,0,1,1.882,1.779,24.636,24.636,0,0,1,2.106,3.4q.225.432.442.878.107.222.212.447a26.4,26.4,0,0,1,1.522,4.046c.04.144.077.286.112.427s.067.28.1.418c-.407.06-.772.129-1.1.2s-.618.156-.875.241a6.353,6.353,0,0,0-.678.264,4.34,4.34,0,0,0-.508.273,2.367,2.367,0,0,0-.894.934,3.548,3.548,0,0,0-.491,1.7,2.683,2.683,0,0,0,.364,1.384,3.134,3.134,0,0,0,1.781,1.355,6.124,6.124,0,0,0,.814.214,12.534,12.534,0,0,0,1.856.2c.659.028,1.349.028,2.049.028h.142q.334,0,.655-.013c2.781-.107,4.791-.974,5.524-4.1a11.31,11.31,0,0,0,.246-1.611q.031-.372.082-.724c.066-.471.154-.921.25-1.372.049-.226.1-.452.151-.682.057-.257.116-.519.173-.788s.113-.545.166-.831.1-.584.143-.894a18.384,18.384,0,0,0,.17-2.618,24.336,24.336,0,0,0-.271-3.394c-.028-.191-.057-.378-.085-.561-.033-.211-.067-.414-.1-.613-.055-.321-.111-.63-.168-.924-.031-.158-.062-.313-.093-.464-.093-.453-.189-.871-.284-1.256a18.1,18.1,0,0,0,2.906.469c.342.025.688.038,1.036.038a11.439,11.439,0,0,0,2.64-.293c.2.633.438,1.374.72,2.165s.6,1.633.96,2.465c.09.208.181.416.274.622.187.412.383.818.586,1.211a17.528,17.528,0,0,0,.962,1.657,10.468,10.468,0,0,0,.693.933,7.44,7.44,0,0,1,.995,1.509,5.969,5.969,0,0,1,.389,1.018,4.769,4.769,0,0,1,.128.6,2.931,2.931,0,0,1-.064,1.383c-.089.03-.2.06-.333.091-.388.092-.911.183-1.3.252a13.017,13.017,0,0,0-3.46.953,3.807,3.807,0,0,0-1.355,1.059,2.73,2.73,0,0,0-.411.758,3.1,3.1,0,0,0-.168.943,2.95,2.95,0,0,0,.042.581,2.882,2.882,0,0,0,.592,1.306,2.951,2.951,0,0,0,.2.223,3.564,3.564,0,0,0,.812.616,4.4,4.4,0,0,0,.394.2c.1.044.2.085.3.124a8.523,8.523,0,0,0,1.88.436,19.818,19.818,0,0,0,2.53.14c.962,0,2.041-.047,3.218-.141.392-.031.8-.068,1.209-.109.2-.02.4-.033.6-.049.569-.045,1.147-.082,1.717-.114a26.974,26.974,0,0,0,3.685-.372,9.149,9.149,0,0,0,1.116-.29c.176-.06.348-.125.513-.2a3.551,3.551,0,0,0,2.269-2.724,8.585,8.585,0,0,0,.02-3.021c-.039-.295-.079-.594-.1-.938q-.012-.171-.018-.36c0-.126,0-.258,0-.4v-.016a13.275,13.275,0,0,1,.118-1.5q.069-.54.117-1.037c.031-.332.056-.648.075-.95a20.45,20.45,0,0,0,2.008,1.1,4.154,4.154,0,0,1,2.049,1.873,7.471,7.471,0,0,1,.56,1.637l0,.009v0c-.068.16-.2.41-.3.588a6.647,6.647,0,0,0-.64,1.476c-.019.07-.036.142-.05.215a2.906,2.906,0,0,0-.056.676,2.489,2.489,0,0,0,.06.471,2.669,2.669,0,0,0,.5,1.061,2.759,2.759,0,0,0,.489.476,3.87,3.87,0,0,0,1.4.639,3.817,3.817,0,0,0,.944.12h0a3.985,3.985,0,0,0,1.623-.354c.1-.046.2-.095.3-.148a5.364,5.364,0,0,0,.582-.359,10.025,10.025,0,0,0,3.067-4.04,12.19,12.19,0,0,0,.682-1.919,7.785,7.785,0,0,0,.21-1.114,21.992,21.992,0,0,0-.091-5.091A15.509,15.509,0,0,0,424.105,89.059Zm-5.056,16.675c-.785-.2-1.046-.539-1.043-.95a1.536,1.536,0,0,1,.113-.524c.034-.092.074-.185.119-.28.067-.143.144-.289.223-.435l.08-.148c.053-.1.106-.2.157-.3.077-.147.149-.295.21-.44a2.209,2.209,0,0,0,.162-.566,1.042,1.042,0,0,0-.021-.4,6.444,6.444,0,0,0-3.683-4.97c-.229-.108-.458-.223-.684-.344-.678-.36-1.331-.766-1.909-1.152-.021-.128-.043-.258-.068-.4-.037-.2-.041-.353-.067-.551s-.044-.4-.07-.613c-.013-.108-.025-.221-.034-.338s-.016-.24-.017-.369c-.024-.5-.058-1.055-.04-1.646,0-.434.018-.9.042-1.372a14.385,14.385,0,0,0,1.7,1.428c.643.474,1.346.95,2.058,1.434l.713.487c.237.164.473.328.707.494.234.269.473.541.7.831l.387.475.363.5c.131.16.248.329.361.5s.222.342.337.508c.206.346.41.687.606,1.017.157.348.343.672.487.994.065.164.129.324.19.479s.122.3.179.447c.041.148.082.29.124.426s.082.265.121.387a2.477,2.477,0,0,1,.085.346c.02.108.035.209.057.3.037.181.069.325.091.424s.035.152.035.152.007-.053.018-.152.026-.247.042-.435c0-.094.017-.2.026-.315a1.826,1.826,0,0,0,0-.37c-.009-.132-.02-.273-.032-.421s-.027-.306-.046-.47-.064-.328-.1-.5-.084-.35-.13-.534c-.108-.361-.252-.731-.4-1.116-.121-.239-.241-.49-.368-.739q.148.182.279.366a4.853,4.853,0,0,1,.619,1.143C423.406,102.6,422.014,105.932,419.049,105.734Zm-13.4-6.54c.042.713.1,1.395.1,2.03,0,.159,0,.315-.007.467s-.014.3-.026.447a5.156,5.156,0,0,1-.127.823,3.813,3.813,0,0,1-.249.711,3.232,3.232,0,0,1-.355.588,4.607,4.607,0,0,1-.824.813c-.266.195-.481.345-.638.438l-.238.143c-3.069,1.176-10.261,1.709-10.119.2a1.162,1.162,0,0,1,.443-.748,4.807,4.807,0,0,1,1.941-.78c.175-.04.354-.077.535-.112.451-.088.912-.165,1.347-.244.175-.031.345-.063.509-.1.083-.016.163-.033.242-.05a2.277,2.277,0,0,0,2.109-2.914,6.491,6.491,0,0,0-.23-1.483,8.661,8.661,0,0,0-1.763-3.28c-.135-.161-.268-.335-.4-.52a19.965,19.965,0,0,1-1.966-3.774c-.157-.378-.307-.758-.448-1.133q-.143-.375-.274-.741c-.218-.608-.414-1.19-.583-1.715-.135-.42-.253-.8-.352-1.135-.025-.083-.049-.163-.071-.239-.09-.3-.16-.553-.209-.729-.02-.088-.041-.175-.062-.27-.03-.131-.06-.267-.09-.41-.061-.284-.121-.59-.181-.912-.118-.643-.233-1.348-.335-2.069q-.039-.27-.075-.543c-.1-.725-.179-1.455-.249-2.141s-.127-1.328-.168-1.879c-.084-1.1-.127-1.842-.127-1.842s-.015.1-.04.29-.061.457-.1.792c-.015.112-.03.231-.046.357s-.032.257-.049.4c-.045.362-.091.765-.136,1.2-.015.143-.031.29-.045.439-.03.3-.059.606-.087.921s-.054.637-.079.962q-.542.179-1.079.337-1.611.477-3.164.789c.437-.144.844-.275,1.2-.433.438-.2.814-.379,1.123-.526l.218-.106q.309-.151.494-.245c.163-.083.248-.128.248-.128s-.151.031-.426.092l-.387.088-.235.055c-.33.08-.731.173-1.183.294-.342.085-.726.139-1.134.211-.135.023-.274.049-.414.078l-.88.163c-.152.025-.308.044-.467.062s-.319.036-.482.056c-.653.067-1.332.184-2.046.2-.712.036-1.444.1-2.193.082l-1.127,0c-.377.005-.756-.043-1.134-.06s-.759-.028-1.135-.06l-1.123-.124c-.186-.016-.371-.037-.555-.061-.368-.047-.731-.1-1.089-.159-.179-.028-.357-.055-.534-.079-.7-.141-1.385-.247-2.025-.394s-1.25-.278-1.8-.432c-1.117-.286-2.039-.573-2.685-.781l-.43-.144-.174-.058-.144-.049-.264-.1.231.159c.153.1.378.253.675.423.148.087.313.181.495.279s.38.2.594.31c.431.206.915.451,1.464.662.065.028.138.054.2.082-1.241-.35-2.3-.72-3.151-1.052-.638-.25-1.159-.478-1.551-.66-.13-.061-.247-.117-.348-.166.044-.216.085-.43.122-.64.083-.4.141-.8.189-1.174s.1-.725.123-1.054.051-.624.072-.889l.01-.372c0-.114.005-.22.008-.315l.006-.252,0-.187,0-.155-.154.575c-.048.181-.108.4-.175.654-.083.249-.175.529-.276.834s-.22.63-.357.97-.274.7-.444,1.06c-.08.182-.162.366-.249.55s-.178.37-.274.555c-.182.373-.381.746-.589,1.112s-.421.729-.633,1.083-.442.69-.651,1.019c-.275.4-.54.78-.795,1.128-.172.164-.348.329-.529.5-.541.509-1.123,1.053-1.749,1.677a39.2,39.2,0,0,0-2.748,3.031,12.328,12.328,0,0,1,.952-1.44c.218-.28.441-.556.662-.833s.441-.553.649-.832.416-.548.613-.816.386-.534.567-.795c.365-.519.694-1.021.987-1.49a18.429,18.429,0,0,0,1.275-2.349,5.792,5.792,0,0,0,.352-.95l-.007.016c-.014.031-.049.107-.108.222l-.068.126-.083.151c-.06.109-.131.232-.211.37-.16.277-.371.6-.618.972s-.535.778-.866,1.214-.692.9-1.094,1.382-.833.982-1.29,1.484-.95,1.008-1.444,1.552c-.252.279-.49.572-.717.875s-.441.615-.645.933a22.53,22.53,0,0,0-1.568,2.954c-.147.33-.286.659-.417.984-.524,1.3-.932,2.546-1.245,3.621-.079.269-.151.527-.218.774-.2.738-.354,1.369-.462,1.849-.057.252-.1.462-.135.627-.074.216-.152.43-.236.64a9.522,9.522,0,0,1-.59,1.232,8,8,0,0,1-1.643,2.007,10.2,10.2,0,0,1-1.037.806c-3.923,2.676-10.663,3.418-11,1.692a1.575,1.575,0,0,1-.026-.2,2.334,2.334,0,0,1,.081-.695c.128-.508,1.6-.76,3.286-1.115.766-.161,1.577-.344,2.326-.581a1.919,1.919,0,0,0,.671-.4,3.858,3.858,0,0,0,.44-.463c.073-.089.145-.185.217-.285a14.869,14.869,0,0,0,1.776-3.868q.174-.536.334-1.1t.3-1.164q.072-.3.141-.6a36.662,36.662,0,0,0,.91-7.491c.006-.583.023-1.157.046-1.723s.053-1.128.081-1.685c.056-1.116.109-2.221.106-3.347q.01-.393.031-.893.009-.225.021-.468c.017-.324.037-.669.061-1.03.012-.181.025-.365.039-.553.057-.751.132-1.551.229-2.35s.21-1.6.342-2.34c.068-.371.125-.734.2-1.071.037-.17.07-.335.1-.5s.066-.315.1-.462c.071-.295.137-.565.2-.8.031-.12.061-.231.09-.334s.056-.2.083-.282l.066-.228.09-.309-.065.131-.185.369c-.041.08-.086.168-.133.265-.094.193-.2.42-.314.675-.058.127-.117.262-.179.4s-.125.287-.187.441-.125.312-.193.475-.134.331-.2.5-.129.351-.2.531c-.043.115-.084.24-.126.359a11.322,11.322,0,0,0-5.166-.162l.131-.139c.161-.2.323-.395.477-.6a6.156,6.156,0,0,0,.429-.636,5.863,5.863,0,0,0,.383-.658c.116-.224.223-.451.337-.671.088-.232.185-.457.275-.681.046-.112.089-.224.129-.335s.076-.224.107-.337A12.65,12.65,0,0,0,345,69.046c.047-.207.095-.408.137-.6s.078-.383.1-.567c.057-.364.109-.7.155-.994.03-.3.055-.556.077-.77s.037-.38.048-.494l.018-.175-.14.658c-.044.209-.1.462-.16.752-.039.144-.08.3-.124.457l-.138.505c-.086.355-.223.725-.359,1.117a12.442,12.442,0,0,1-.484,1.209c-.165.419-.415.812-.625,1.229-.13.194-.254.393-.384.589-.064.1-.131.195-.2.289s-.142.187-.218.276a8.913,8.913,0,0,1-.936,1.018l-.512.435q-.271.189-.534.375a2.285,2.285,0,0,1-.269.169c-.092.051-.185.1-.272.152a4.29,4.29,0,0,1-.537.271c-.029.015-.057.024-.086.037-2.3.643-3.308,1.275-5.306.343-1.25-.583-2.472-.019-3.953.265.019-.011.041-.019.06-.03a3.922,3.922,0,0,0,.416-.282c.062-.049.122-.1.177-.148s.108-.1.156-.151a3.045,3.045,0,0,0,.252-.278,2.563,2.563,0,0,0,.169-.238c.088-.137.131-.22.131-.22l-.017.005c-.034.008-.115.031-.229.068-.074.025-.166.054-.263.1s-.218.069-.335.117-.252.083-.385.134-.276.091-.418.143c-.289.1-.592.19-.906.273s-.634.172-.949.272c-.158.05-.311.1-.458.165-.038.015-.069.036-.106.053-.183-.045-.371-.1-.562-.166a7.976,7.976,0,0,1-1.85-.954,2.9,2.9,0,0,0,.2-.434,2.156,2.156,0,0,0,.126-.689,1.9,1.9,0,0,0-.257-.972c-.038-.066-.081-.134-.129-.2a3.123,3.123,0,0,0-.581-.6c-.024-.02-.047-.035-.071-.053.206-.241.456-.508.753-.811.149-.152.31-.312.483-.483s.359-.35.559-.541c.372-.359.692-.692.968-1.008,1.934-2.212,1.743-3.568,2.715-6.535a6.239,6.239,0,0,1,1.355-2.154c.089-.1.18-.194.273-.29a14.761,14.761,0,0,1,1.209-1.1c.212-.174.428-.342.644-.505.324-.243.65-.473.968-.688a27.787,27.787,0,0,1,2.976-1.753c.261-.134.493-.255.7-.365.1-.056.2-.108.294-.159.185-.1.349-.191.5-.275s.279-.16.4-.231c.24-.143.433-.264.622-.382.236-.148.464-.29.763-.459a5.467,5.467,0,0,1,.566-.266,3.941,3.941,0,0,1,1.481-.31,3.176,3.176,0,0,1,.456.033,3.028,3.028,0,0,1,.412.09,3.236,3.236,0,0,1,.371.135,3.354,3.354,0,0,1,.328.168l.138.124c.143.13.3.284.494.483a3.846,3.846,0,0,1,.683.941,1.043,1.043,0,0,1,.112.5,1.057,1.057,0,0,1-.205.538,3.077,3.077,0,0,1-.221.28c-.245.276-.55.542-.825.8-.093.088-.185.176-.273.263a6.352,6.352,0,0,0-.685.777,3.852,3.852,0,0,0-.49.866,2.516,2.516,0,0,0-.093.26l-.023.068-.007.024.047-.085c.016-.027.034-.062.056-.1a1.35,1.35,0,0,1,.082-.133,3.412,3.412,0,0,1,.418-.529c.062-.065.129-.132.2-.2a7.209,7.209,0,0,1,1.085-.8c.105-.069.214-.136.325-.2s.224-.14.338-.216a4.766,4.766,0,0,0,.687-.541,1.969,1.969,0,0,0,.533-.867,1.754,1.754,0,0,0,.054-.267,2.062,2.062,0,0,0-.045-.762c-.018-.075-.042-.14-.064-.211a20.331,20.331,0,0,0,6.253-1.182c-.084.1-.171.187-.251.287-.171.191-.331.392-.488.6s-.311.412-.466.618c-.295.423-.59.845-.853,1.277-.132.215-.262.429-.387.642s-.243.427-.354.64c-.237.416-.427.84-.621,1.233s-.345.78-.489,1.133-.266.682-.355.979-.18.551-.234.766c-.106.431-.166.677-.166.677l.134-.377.1-.278c.037-.1.085-.216.138-.338s.111-.254.17-.4.129-.289.206-.443.159-.316.241-.485c.177-.333.374-.691.592-1.062.114-.183.228-.373.348-.565s.244-.386.38-.577c.258-.392.547-.781.845-1.171s.622-.769.945-1.145c.169-.181.335-.365.5-.544s.341-.354.52-.518c.34-.345.708-.644,1.058-.939.178-.141.357-.276.533-.4s.352-.248.524-.361c.089-.051.175-.1.26-.155.17-.1.334-.2.5-.291a2.667,2.667,0,0,1,.244-.114l.454-.213a1.38,1.38,0,0,1,.207-.079c.067-.02.13-.038.192-.061s.121-.039.177-.059a2.408,2.408,0,0,1,.494-.135l.02,0,.421-.079c.19-.032.383-.061.585-.083a19.856,19.856,0,0,1,2.2-.12c.643,0,1.265.029,1.883.072v0l.076,0c1.255.09,2.5.237,3.881.327.505.058,1.038.124,1.594.2.513.072,1.044.149,1.582.233s1.085.175,1.63.276,1.09.2,1.624.315,1.06.223,1.566.345c.254.056.5.115.746.175s.481.122.711.184c.462.121.9.232,1.3.356l.574.169.518.152.833.278.434.144.1.035.19.063-.047-.02-.655-.289-.37-.163-.436-.192-.5-.2-.558-.223c-.388-.162-.815-.314-1.267-.479s-.929-.336-1.428-.5-1.013-.337-1.542-.493c-.47-.149-.953-.286-1.435-.421.315-.029.636-.062.97-.1a41.521,41.521,0,0,0,4.367-.806c1.125-.259,2.237-.533,3.378-.777.856-.184,1.729-.35,2.636-.48a26.871,26.871,0,0,1,3.858-.284,28.739,28.739,0,0,1,5.873.632c1.115.23,2.268.52,3.439.864q.879.26,1.767.558A46.205,46.205,0,0,1,407.1,55.16c-.194-.1-.387-.207-.58-.31s-.387-.2-.585-.295c-.415-.184-.828-.368-1.239-.549s-.828-.329-1.238-.485-.813-.309-1.219-.437c-.816-.234-1.591-.5-2.349-.68s-1.462-.373-2.128-.495l-.487-.092-1.325-.251c-.27-.045-.524-.082-.759-.115s-.451-.062-.645-.091l-.52-.073-.7-.1.02,0,.16.033.136.029.894.186c.384.084.852.171,1.384.3l1.3.334.478.123c.163.041.328.087.495.136.335.1.68.211,1.036.324.178.056.359.113.543.168.736.221,1.483.538,2.269.82.389.151.772.336,1.166.505s.8.336,1.176.551l1.166.61c.386.212.753.459,1.13.686l.561.349.53.389c.345.266.72.493,1.034.788l.961.836.855.893a5.542,5.542,0,0,1,.574.687c.059.078.119.155.181.229q.18.228.354.451.15.238.3.472c.139.237.3.456.428.683.043.075.083.152.118.23l.433.891a3.783,3.783,0,0,1,.173.43c.049.143.094.284.146.418a5.753,5.753,0,0,1,.248.768q.084.361.157.673c.027.119.055.229.078.339.139,1.026.228,2.116.277,3.274q.025.579.038,1.181.01.534.014,1.053.008,1.038-.017,2.018-.011.491-.029.966a56.271,56.271,0,0,1-1.076,9.246c0-.086.005-.173.008-.258.02-.365,0-.734-.005-1.1,0-.181-.006-.36-.013-.537s-.019-.355-.039-.53q-.048-.523-.094-1.028c-.055-.332-.108-.657-.161-.973-.026-.157-.052-.312-.078-.464s-.075-.3-.111-.445c-.072-.29-.143-.569-.21-.838-.143-.532-.332-1-.468-1.427a5.4,5.4,0,0,0-.219-.583c-.038-.088-.076-.173-.112-.253s-.07-.158-.1-.231l-.09-.207-.308-.707.059.253.116.5.051.219a11.165,11.165,0,0,1,.227,1.111c.028.218.066.447.1.689s.072.494.094.761.034.542.052.829c.009.143.019.288.028.435l-.007.449c-.006.3-.011.613-.017.929-.028.316-.058.638-.088.966a9.857,9.857,0,0,1-.133.99c-.018.106-.034.214-.051.321-.149.309-.306.61-.468.9-.324.588-.671,1.152-1.022,1.712s-.707,1.117-1.051,1.692a18.625,18.625,0,0,0-1.4,2.782c.079-.268.159-.534.25-.788.108-.3.219-.6.329-.879s.223-.557.335-.82.222-.513.327-.752l.3-.684c.186-.431.346-.81.469-1.125.065-.156.118-.3.162-.422.022-.063.042-.12.06-.173s.035-.1.05-.143l.04-.113.052-.149-.088.13-.152.224-.1.151-.253.373c-.186.28-.419.616-.68,1.006-.13.195-.268.4-.411.627s-.29.458-.44.708-.306.512-.457.791-.3.573-.443.88a14.937,14.937,0,0,0-.767,2,14.313,14.313,0,0,0-.482,2.248,19.215,19.215,0,0,0-.168,2.347c0,.8.031,1.559.063,2.324S405.6,98.482,405.645,99.194ZM374.4,105.733a1.165,1.165,0,0,1,.019-.171,1.947,1.947,0,0,1,.228-.595,1.241,1.241,0,0,1,.607-.447,5.113,5.113,0,0,1,.669-.228,19.67,19.67,0,0,1,3.253-.488,15.6,15.6,0,0,0-.823-4.01c-.286-.886-.636-1.8-1.032-2.708s-.836-1.805-1.3-2.655a21.731,21.731,0,0,0-2.487-3.685q.3.125.6.258c2.432,1.071,5.156,2.611,6.7,4.591a6.775,6.775,0,0,1,.669,1.026,5.368,5.368,0,0,1,.248.541,14.8,14.8,0,0,1,.837,2.947q.06.358.1.708a8.332,8.332,0,0,1-.015,1.976,5.8,5.8,0,0,1-.112.6,3.62,3.62,0,0,1-2.478,2.792C377.824,106.889,374.482,106.8,374.4,105.733Zm-36.421-52.8a2.688,2.688,0,0,1,.331-.185,1.869,1.869,0,0,1,.347-.123,1.413,1.413,0,0,1,.337-.062,1.15,1.15,0,0,1,.3-.007,1.849,1.849,0,0,1,.6.129s-.061.017-.164.04l-.181.037c-.069.016-.146.035-.228.061a2.351,2.351,0,0,0-.258.08c-.09.032-.182.07-.274.111a3.093,3.093,0,0,0-.554.307,4.4,4.4,0,0,0-.508.393c-.155.139-.3.278-.417.4-.06.062-.115.12-.164.173-.147.157-.239.261-.239.261a1.8,1.8,0,0,1,.183-.585,2.512,2.512,0,0,1,.34-.534A2.581,2.581,0,0,1,337.978,52.936Z" fill="#616161"/>
          <path id="Path_8" data-name="Path 8" d="M394.934,64.591c.189-.409.375-.827.6-1.228.2-.413.435-.806.657-1.2.123-.19.237-.383.352-.574s.229-.378.353-.556c.236-.362.47-.711.7-1.039.112-.165.225-.323.335-.476s.218-.3.317-.445l.569-.775.438-.6c.062-.084.116-.159.163-.224.142-.2.217-.307.217-.307s-.19.143-.513.4c-.08.066-.17.137-.266.217s-.2.168-.3.267c-.212.2-.463.412-.711.668s-.53.523-.792.838-.558.633-.822,1c-.138.177-.274.361-.407.55s-.265.383-.395.581-.246.406-.369.612-.241.415-.35.63c-.227.426-.412.873-.6,1.308a13.162,13.162,0,0,0-.446,1.321c-.036.107-.066.215-.094.323-.056.214-.1.428-.141.636-.021.105-.041.207-.063.308-.032.2-.065.4-.091.595s-.048.378-.058.558a8.611,8.611,0,0,0-.044.977,7.447,7.447,0,0,0,.02.752c.008.105.015.2.022.278.02.242.035.374.035.374s.013-.059.036-.168c.011-.054.025-.122.04-.2s.033-.17.052-.271c.04-.2.089-.447.149-.726s.133-.59.22-.927c.038-.17.087-.344.14-.523s.109-.365.158-.556c.128-.375.246-.774.4-1.174C394.576,65.409,394.767,65.008,394.934,64.591Z" fill="#616161"/>
          <path id="Path_9" data-name="Path 9" d="M369.449,69.214c-.016-.465-.033-.929-.049-1.386s-.08-.905-.117-1.338-.116-.849-.175-1.243-.143-.763-.212-1.1a16.587,16.587,0,0,0-.42-1.629c-.088-.291-.153-.488-.18-.568l-.013-.04s0,.058,0,.167,0,.269.01.472c0,.1.007.213.012.334s.011.253.02.393c.02.279.018.6.038.94s.032.713.05,1.106c.006.2.012.4.019.6s.017.415.029.628c.013.427.011.869.036,1.315.006.448.011.9.017,1.356s.015.909,0,1.357,0,.888-.018,1.313-.022.839-.032,1.231-.031.762-.044,1.1c-.033.685-.068,1.259-.1,1.662s-.044.635-.044.635l.017-.04c.022-.052.064-.154.119-.3.027-.074.058-.16.092-.256s.066-.2.1-.321c.072-.235.15-.51.227-.819.038-.154.076-.317.112-.488s.073-.349.109-.533.069-.377.1-.574.062-.4.09-.609.054-.421.071-.638.044-.438.06-.662.029-.45.038-.679C369.436,70.144,369.444,69.679,369.449,69.214Z" fill="#616161"/>
          <path id="Path_10" data-name="Path 10" d="M340.445,57.3a1.2,1.2,0,0,0,2.269.676c.036-.06.073-.118.111-.176.075-.114.155-.223.238-.328.041-.052.083-.1.125-.153a10.648,10.648,0,0,1,.767-.792,4.819,4.819,0,0,0,.687-.747.949.949,0,0,0,.133-.3.605.605,0,0,0,.013-.2.625.625,0,0,0-.059-.2,1,1,0,0,0-.14-.214,1.475,1.475,0,0,0-.1-.111,3.034,3.034,0,0,0-.456-.358c-.127-.084-.272-.171-.437-.262C341.519,52.99,340.525,55.869,340.445,57.3Z" fill="#616161"/>
          <path id="Path_11" data-name="Path 11" d="M362.723,74.987c.09-.378.143-.731.2-1.042.029-.154.052-.3.071-.435s.035-.26.05-.372c.007-.056.013-.11.019-.16.025-.2.041-.351.05-.443.007-.069.011-.105.011-.105l-.071.173-.082.208c-.031.082-.068.176-.108.281l-.13.349c-.1.253-.206.548-.329.877-.062.165-.127.337-.194.518l-.214.558q-.109.29-.228.6c-.081.2-.164.412-.248.625s-.172.43-.26.652c-.178.441-.381.888-.578,1.345s-.415.912-.643,1.362-.445.9-.693,1.334c-.121.217-.241.432-.362.643s-.242.418-.366.62c-.256.4-.487.795-.734,1.153s-.471.706-.7,1.013c-.332.467-.629.87-.874,1.194q-.123.162-.228.3l-.184.24-.134.179-.11.15.148-.113.176-.138.236-.188c.088-.07.185-.15.289-.239s.214-.188.328-.3c.236-.213.5-.457.765-.743s.558-.593.844-.938.578-.718.863-1.117.57-.819.823-1.267.509-.905.749-1.369.441-.947.636-1.422c.1-.236.191-.474.276-.711s.164-.472.243-.7c.156-.462.289-.915.4-1.346S362.641,75.367,362.723,74.987Z" fill="#616161"/>
          <path id="Path_12" data-name="Path 12" d="M398.684,60.46c-.216.276-.39.573-.572.851q-.129.213-.245.423a10.4,10.4,0,0,0-.573,1.189c-.051.122-.1.239-.141.352a8.828,8.828,0,0,0-.278.851c-.081.3-.119.469-.119.469s.109-.139.286-.39l.72-1.025.482-.671c.083-.12.174-.239.267-.361s.188-.244.279-.373c.39-.5.811-1.019,1.259-1.514.226-.245.449-.494.685-.723s.462-.46.692-.674c.12-.1.234-.2.347-.307s.223-.2.336-.292.22-.182.326-.269.209-.171.31-.248c.3-.237.57-.443.79-.606.073-.054.141-.1.2-.148.245-.18.385-.292.385-.292l-.031.008c-.042.01-.123.03-.239.062-.058.015-.124.034-.2.055a4.578,4.578,0,0,0-.527.179,5.777,5.777,0,0,0-.666.285c-.121.055-.246.116-.372.183a10.478,10.478,0,0,0-1.187.754c-.131.1-.267.206-.4.313s-.268.22-.4.342-.259.238-.384.365-.245.258-.368.387C399.12,59.9,398.888,60.175,398.684,60.46Z" fill="#616161"/>
          <path id="Path_13" data-name="Path 13" d="M347.208,66.884c.054-.413.114-.833.146-1.256s.035-.847.048-1.264-.019-.827-.053-1.223-.08-.776-.131-1.136c-.027-.179-.058-.354-.091-.521s-.068-.329-.1-.484-.073-.3-.111-.44c-.076-.279-.155-.526-.228-.736-.036-.1-.071-.2-.1-.287-.136-.344-.222-.535-.222-.535s.009.212.041.576c.021.18.021.4.045.654s.023.536.047.842.022.642.03.993c0,.176.006.356.007.54s0,.372,0,.563,0,.386-.01.582-.018.4-.017.6-.02.4-.031.6-.025.405-.046.607c-.02.406-.067.81-.108,1.208-.059.4-.086.79-.152,1.165-.03.189-.058.375-.086.557s-.057.36-.091.532-.061.341-.092.5-.064.319-.094.471-.06.3-.091.432-.061.267-.086.39-.052.238-.077.346-.049.206-.073.295c-.086.356-.128.563-.128.563l.021-.032.059-.1c.052-.084.127-.208.22-.366a5.813,5.813,0,0,0,.311-.586c.11-.232.248-.494.356-.79s.249-.613.35-.962a11.205,11.205,0,0,0,.308-1.1C347.062,67.7,347.143,67.3,347.208,66.884Z" fill="#616161"/>
          <path id="Path_14" data-name="Path 14" d="M352.028,59.483c.1-.171.2-.34.31-.5s.209-.32.313-.474.207-.3.312-.447c.2-.294.414-.554.6-.806s.377-.465.533-.669c.079-.1.155-.193.226-.278s.138-.163.2-.233c.24-.282.374-.451.374-.451s-.1.06-.287.177l-.21.135a5.737,5.737,0,0,0-.551.392c-.2.165-.448.334-.677.56a9.2,9.2,0,0,0-.745.73l-.387.42c-.127.149-.244.309-.371.468s-.249.325-.369.5-.235.349-.351.528c-.213.37-.441.74-.627,1.134-.1.194-.185.393-.268.593s-.162.4-.243.6-.138.4-.2.6-.116.4-.162.6a10.4,10.4,0,0,0-.225,1.15,9.854,9.854,0,0,0-.087,1.044,7.673,7.673,0,0,0,.013.884,6.061,6.061,0,0,0,.067.674c.016.092.03.174.043.246.038.214.062.332.062.332s.035-.212.08-.582c.008-.093.025-.194.044-.3s.042-.227.06-.352.043-.257.072-.4.062-.285.09-.437.07-.309.111-.471.086-.328.126-.5.1-.343.157-.52.111-.357.175-.538c.11-.368.279-.728.414-1.107.082-.183.161-.37.243-.556s.169-.37.266-.55c.167-.373.372-.727.564-1.082C351.831,59.829,351.929,59.654,352.028,59.483Z" fill="#616161"/>
          <path id="Path_15" data-name="Path 15" d="M367.782,57.224c.06.2.123.412.192.623s.14.425.218.641c.154.43.312.874.473,1.325s.321.9.471,1.361.3.914.417,1.371c.065.227.123.454.178.678s.107.448.159.666c.037.222.083.439.127.651s.086.421.112.626c.051.41.136.8.166,1.156s.078.691.111.984.041.556.057.769c.039.428.061.672.061.672l.02-.175c.013-.115.033-.282.058-.495s.052-.471.071-.769.014-.639.022-1.009-.025-.77-.048-1.2-.092-.868-.152-1.328c-.089-.455-.156-.932-.287-1.4-.058-.237-.122-.474-.19-.711s-.14-.473-.216-.708c-.317-.935-.679-1.848-1.033-2.687l-.251-.62-.24-.593c-.077-.192-.147-.381-.213-.564s-.128-.361-.189-.531-.1-.337-.154-.494-.095-.308-.126-.451-.07-.277-.1-.4a2.846,2.846,0,0,1-.075-.344l-.055-.28c-.049-.244-.075-.379-.075-.379l-.009.675a7.064,7.064,0,0,0,.052.776,4.542,4.542,0,0,0,.06.477c.029.167.063.341.1.524C367.569,56.425,367.654,56.821,367.782,57.224Z" fill="#616161"/>
          <path id="Path_16" data-name="Path 16" d="M341.459,63.635c-.012-.136-.023-.275-.036-.418s-.053-.286-.081-.433a4.12,4.12,0,0,0-.1-.447c-.043-.149-.093-.3-.145-.45s-.124-.3-.187-.443l-.221-.43c-.164-.275-.336-.539-.505-.79-.082-.125-.166-.246-.246-.366s-.158-.237-.229-.355-.134-.236-.2-.352a3.7,3.7,0,0,1-.17-.347c-.113-.226-.183-.457-.265-.666-.036-.1-.066-.208-.093-.306s-.054-.192-.082-.281c-.057-.175-.08-.343-.114-.473-.047-.2-.082-.332-.1-.387l-.007-.028s-.017.156-.035.427a3.538,3.538,0,0,0-.013.49c.007.1.01.2.016.308a2.987,2.987,0,0,0,.035.341c.032.176.056.367.106.562.017.065.036.13.06.195a4.785,4.785,0,0,0,.316.812c.069.134.14.268.214.4s.152.265.235.394c.162.255.319.51.463.767l.209.384c.059.132.119.263.178.393a8.4,8.4,0,0,1,.28.8c.038.133.072.265.113.393s.057.26.085.386.056.248.079.367.043.237.06.349c.033.225.085.43.106.616.013.093.026.18.037.26l.032.221c.043.267.074.421.074.421s.016-.085.04-.242c.008-.053.016-.113.026-.18l.027-.225c.01-.081.021-.17.032-.264a6.2,6.2,0,0,0,.028-.639c.005-.118.007-.24,0-.368S341.475,63.77,341.459,63.635Z" fill="#616161"/>
        </g>
        <path id="Path_17" data-name="Path 17" d="M408.825,58.867c.115.166.277.406.467.707.127.2.266.427.412.677.075.124.148.255.223.392s.151.277.233.42c.148.3.313.6.463.924l.233.492c.069.171.14.343.218.513.163.338.276.7.415,1.056s.246.721.369,1.075c.105.361.207.716.307,1.06.043.174.084.346.125.514l.12.493c.087.321.125.631.192.915.051.286.126.547.154.782s.075.44.1.61.06.3.079.395.031.141.031.141.033-.2.076-.541c.02-.172.047-.383.067-.625a3.351,3.351,0,0,0,.024-.386c0-.136,0-.279,0-.429,0-.075,0-.151,0-.229,0-.157,0-.319-.009-.486-.005-.083-.012-.168-.025-.253-.019-.17-.035-.346-.055-.526s-.042-.364-.075-.549-.075-.372-.113-.562-.079-.383-.131-.574c-.119-.377-.221-.767-.359-1.145-.079-.186-.151-.374-.226-.56s-.153-.37-.244-.546a9.863,9.863,0,0,0-.55-1.025,5.273,5.273,0,0,0-.294-.471c-.1-.15-.208-.293-.305-.435-.206-.277-.409-.533-.612-.756a7.758,7.758,0,0,0-.57-.589c-.171-.172-.342-.3-.474-.415-.069-.054-.131-.1-.186-.142-.11-.08-.189-.132-.23-.158l-.031-.019S408.711,58.7,408.825,58.867Z" fill="#616161"/>
      </g>
      <path id="Path_18" data-name="Path 18" d="M402.577,105.259c.129-.057.257-.117.383-.175s.249-.134.367-.207.233-.152.344-.235a2.959,2.959,0,0,0,.575-.551,1.844,1.844,0,0,0,.215-.3,1.741,1.741,0,0,0,.157-.306,2.986,2.986,0,0,0,.185-.559c.03-.17.053-.318.065-.439,0-.061.006-.115.008-.163s0-.087.005-.12c0-.065,0-.1,0-.1l-.011.024c-.021.046-.071.159-.139.324-.051.107-.112.236-.183.384-.043.068-.084.143-.129.22a2.1,2.1,0,0,1-.154.23,1.324,1.324,0,0,1-.186.229c-.034.037-.067.077-.1.114a.986.986,0,0,1-.115.108,2.416,2.416,0,0,1-.255.207c-.091.066-.188.128-.287.191a3.015,3.015,0,0,1-.317.176c-.11.054-.224.107-.336.165-.237.1-.475.205-.727.29-.49.195-1.006.35-1.482.518s-.93.312-1.315.45c-.1.034-.188.068-.276.1-.263.1-.484.186-.652.255-.222.093-.349.151-.349.151l.1,0c.065,0,.16-.006.28-.014l.2-.014c.145-.012.313-.028.5-.049.094-.011.191-.024.293-.038.2-.026.426-.059.658-.1s.477-.09.729-.146c.125-.032.253-.061.382-.092s.261-.064.391-.1l.394-.123c.132-.041.264-.085.4-.135S402.449,105.317,402.577,105.259Z" fill="#616161"/>
    </g>
  </g>
</svg>
