<svg xmlns="http://www.w3.org/2000/svg" width="77.084" height="62.536" viewBox="0 0 77.084 62.536">
  <g id="features-icon02" transform="translate(-17.984 -162.176)">
    <path id="Path_1" data-name="Path 1" d="M91.866,174.852l.13-.1.147-.118c.051-.043.106-.087.164-.132.173-.137.371-.29.578-.476l.941-.815.282-.261.282-.261a1.732,1.732,0,0,0,.193-.21,1.629,1.629,0,0,0,.328-.778q.054-.407.094-.8t.061-.781a.469.469,0,0,0-.014-.136.294.294,0,0,0-.009-.033.446.446,0,0,0-.043-.1.167.167,0,0,1-.009-.016.471.471,0,0,0-.08-.092l-.023-.019a.54.54,0,0,0-.084-.053l-.023-.012a.5.5,0,0,0-.115-.035l-.026,0a.48.48,0,0,0-.055-.005.386.386,0,0,0-.05,0l-.022,0a.461.461,0,0,0-.119.035l-.023.012a.491.491,0,0,0-.114.078l-.008.008c-.425.388-.828.768-1.222,1.116l-.578.5-.541.47-.255.208-.462.376-.253.206c-.142.12-.28.226-.409.323s-.249.183-.354.265l-.35.263-.09.068-.13.1-.1.075.611-.573c.048-.046.1-.094.153-.144.107-.1.226-.208.35-.329.062-.06.125-.124.189-.191l.872-.886,1-1.079c.176-.193.353-.394.533-.6s.363-.418.551-.631.368-.432.553-.654a2.519,2.519,0,0,0,.564-1.269,2.443,2.443,0,0,0,.022-.28,2.351,2.351,0,0,0-.055-.562c-.036-.169-.078-.333-.123-.493h0a.581.581,0,0,0-.08-.168.555.555,0,0,0-.038-.044.575.575,0,0,0-.083-.083.529.529,0,0,0-.053-.036.556.556,0,0,0-.1-.048.592.592,0,0,0-.06-.02.632.632,0,0,0-.109-.017c-.014,0-.028-.006-.042-.006l-.023,0a.371.371,0,0,0-.048,0,.525.525,0,0,0-.093.019l-.05.017a.538.538,0,0,0-.09.047c-.014.009-.027.016-.041.026a.579.579,0,0,0-.112.109l-.051.066c-.753.968-1.524,1.92-2.266,2.8-.377.433-.733.858-1.085,1.249l-1,1.093-.459.472-.413.425c-.063.068-.127.132-.189.193-.186.184-.36.339-.5.479l-.137.131-.121.115-.191.181-.159.151.142-.167.4-.473c.168-.206.388-.443.61-.74l.363-.465.4-.516.419-.574.449-.613c.152-.212.3-.433.46-.658s.313-.457.475-.69c.477-.708.965-1.458,1.447-2.225.161-.255.322-.513.48-.771.071-.115.141-.23.211-.346a1.6,1.6,0,0,0,.213-.58,1.625,1.625,0,0,0-.018-.6,1.583,1.583,0,0,0-.43-.784,1.538,1.538,0,0,0-.244-.2q-.138-.09-.275-.166a4.648,4.648,0,0,0-.793-.351,1.625,1.625,0,0,0-.242-.06l-.068-.01a1.574,1.574,0,0,0-.191-.016c-.014,0-.027,0-.041,0h-.019a1.7,1.7,0,0,0-.217.016,1.683,1.683,0,0,0-.231.051,1.666,1.666,0,0,0-.311.121,1.7,1.7,0,0,0-.7.659c-.028.05-1.231,2.1-3.172,4.938q-.224.327-.461.667-.474.681-1,1.405-.261.362-.533.731c-.544.739-1.119,1.5-1.722,2.267-.4.511-.815,1.025-1.239,1.538q-.318.384-.644.768T80,176.1q-.333.379-.672.753-.678.748-1.378,1.466c-.117.12-.233.238-.351.356a37.528,37.528,0,0,1-3.242,2.92c-1.453,1.15-2.9,2.416-4.305,3.724q-.6.56-1.191,1.13t-1.163,1.14q-.286.285-.569.57c-3.763,3.8-6.911,7.506-8.458,9.384a57.758,57.758,0,0,1-6.846-5.792,23.476,23.476,0,0,1-2.1-2.426,33.642,33.642,0,0,0-4.6-4.914,43.18,43.18,0,0,0-6.083-4.519,39.471,39.471,0,0,0-3.66-1.989c-.125-.06-.242-.111-.354-.157l-.062-.026c-.1-.043-.2-.08-.3-.111l-.054-.017c-.094-.03-.184-.056-.267-.075h-.008c-.081-.018-.156-.031-.227-.04l-.039,0a1.6,1.6,0,0,0-.16-.009h-.028l-.046,0a1.058,1.058,0,0,0-.133.016l-.036.007a.706.706,0,0,0-.137.046l-.023.011a.738.738,0,0,0-.1.057l-.027.02a.722.722,0,0,0-.092.088h0a.881.881,0,0,0-.075.1l-.017.029a1.028,1.028,0,0,0-.052.1l-.009.017c-.018.041-.033.083-.048.126l-.011.032q-.017.052-.032.107l-.009.031c-.012.044-.023.089-.034.134l-.014.06-.024.1c-.011.046-.022.092-.034.137-.062.233-.124.46-.183.68s-.1.436-.142.642c-.088.413-.177.79-.243,1.128-.042.255-.08.484-.114.686-.011.068-.021.132-.031.193l-.054.326-.065.39-.009.051.006-.115c.006-.126.016-.352.031-.661.009-.186.018-.4.03-.644l.011-.251c.026-.344.07-.731.11-1.156.021-.212.044-.433.067-.662s.062-.464.1-.705q.045-.269.076-.491c.011-.075.02-.145.028-.212.016-.134.026-.254.032-.361a1.466,1.466,0,0,0-.06-.6.553.553,0,0,0-.361-.329l-.176-.065-.179-.063c-.122-.042-.247-.084-.381-.127-.2-.065-.426-.134-.69-.211l-.277-.081a.526.526,0,0,0-.139-.019l-.011,0a.5.5,0,0,0-.074.007l-.024,0a.546.546,0,0,0-.107.032c-.009,0-.017.009-.026.013a.6.6,0,0,0-.073.039c-.011.007-.021.016-.031.024a.548.548,0,0,0-.054.046c-.01.01-.019.021-.028.031a.529.529,0,0,0-.042.056c-.008.012-.016.023-.023.036a.561.561,0,0,0-.031.07c0,.012-.01.023-.014.035a.6.6,0,0,0-.022.115h0v.006c-.055.55-.073,1.091-.1,1.616s-.026,1.034-.026,1.517c0,.242,0,.477,0,.7s.02.447.028.657.019.413.028.605.018.376.03.547.032.331.047.479l.04.407.076.774-.068-.307c-.026-.12-.059-.272-.1-.453-.053-.242-.117-.536-.191-.874-.016-.085-.032-.172-.048-.263l-.046-.279c-.031-.191-.064-.393-.1-.6s-.07-.43-.107-.657c-.014-.115-.028-.236-.042-.354s-.027-.233-.041-.354c-.029-.243-.06-.492-.087-.748s-.052-.517-.067-.784c-.039-.533-.086-1.086-.1-1.648v-.009a1.139,1.139,0,0,0-.277-.7,1.172,1.172,0,0,0-.134-.132,1.155,1.155,0,0,0-.516-.245q-.554-.108-1.115-.2a.771.771,0,0,0-.114-.009l-.031,0c-.023,0-.046,0-.068.008a.689.689,0,0,0-.088.017l-.065.021a.738.738,0,0,0-.08.036.567.567,0,0,0-.058.033.734.734,0,0,0-.07.053c-.016.014-.033.028-.048.043a.762.762,0,0,0-.058.068c-.013.017-.026.033-.038.051a.7.7,0,0,0-.044.083c-.009.018-.018.036-.026.055a.791.791,0,0,0-.027.1c0,.017-.009.033-.011.052a.723.723,0,0,0,0,.162v0c.009.088.018.174.028.262s.018.175.028.262c.026.279.058.556.094.832s.075.551.117.823c.03.237.068.47.107.7.052.3.107.6.161.895.086.519.2,1.013.312,1.484.054.235.106.465.157.686s.118.431.174.634c.029.1.057.2.084.3.054.195.1.381.154.557.026.088.051.173.075.255l.221.659.062.185.183.545.065.193-.191-.4-.141-.3-.083-.177-.092-.194-.15-.318-.056-.12c-.139-.317-.282-.679-.445-1.073-.08-.2-.164-.4-.25-.617s-.157-.441-.24-.671-.168-.467-.252-.71-.166-.493-.24-.75c-.158-.511-.327-1.039-.463-1.584-.074-.271-.149-.545-.218-.821s-.137-.555-.194-.835c-.023-.111-.044-.213-.065-.312-.007-.031-.014-.06-.02-.09-.015-.068-.029-.134-.043-.2l-.021-.09c-.016-.065-.031-.127-.046-.186,0-.018-.009-.038-.014-.057-.02-.073-.039-.141-.059-.2l-.015-.044c-.016-.046-.031-.091-.048-.132l-.021-.052c-.016-.036-.032-.07-.048-.1-.006-.014-.014-.028-.021-.041a.944.944,0,0,0-.074-.115l0,0a.645.645,0,0,0-.079-.085l-.028-.023a.511.511,0,0,0-.068-.048l-.033-.018a.558.558,0,0,0-.087-.037l-.023-.009a.807.807,0,0,0-.125-.028l-.036,0c-.035,0-.071-.008-.109-.009l-.052,0h-.043l-.066,0-.074,0-.123.008-.078.006-.159.016-.065.006-.247.027h0c-.045.005-.09.006-.136.007a1.221,1.221,0,0,0-.134.009,1.7,1.7,0,0,0-.831.361,1.711,1.711,0,0,0-.435.525,1.7,1.7,0,0,0-.176,1.088c0,.028.017.1.037.2.089.475.334,1.69.785,3.287.1.355.211.729.332,1.118s.253.793.4,1.208c.359,1.038.788,2.145,1.3,3.26q.153.334.314.669a20.464,20.464,0,0,0,4.841,6.659c1.046.894,2.145,1.768,3.223,2.619l.462.365q.778.613,1.54,1.22c1.015.811,2,1.621,2.925,2.448q.693.62,1.336,1.256a23.469,23.469,0,0,1,1.779,1.961,16.894,16.894,0,0,1,1,1.379,13.165,13.165,0,0,1,1.162,2.21,14.64,14.64,0,0,1-1.9.606,14.924,14.924,0,0,1-1.48.286h0c-.274.038-.548.067-.822.09l-.117.011c-.262.02-.523.031-.785.037l-.144,0c-.2,0-.408,0-.61-.009-.091,0-.182,0-.272-.007-.28-.014-.559-.034-.837-.064l-.585-.063-.169-.018-.459-.048-.153-.016-.551-.055-.107-.01-.431-.039-.151-.013q-.229-.019-.452-.035l-.061-.005c-.164-.011-.324-.021-.482-.029l-.128-.006c-.122-.006-.243-.011-.362-.014l-.124,0c-.151,0-.3-.006-.446-.006h-.034q-.407,0-.79.023l-.069,0c-.263.017-.521.042-.773.077h0a8.107,8.107,0,0,0-1.641.4,10.071,10.071,0,0,0-4.367,3.492,5.828,5.828,0,0,1-.665.555c-.132.1-.286.2-.46.319q-.13.085-.277.175c-.294.179-.635.37-1.029.563a15.782,15.782,0,0,1-1.849.765,1.851,1.851,0,0,0-.556.308,1.753,1.753,0,0,0-.293.3,1.6,1.6,0,0,0-.208.364,1.526,1.526,0,0,0-.067.2,1.787,1.787,0,0,0-.053.553,1.7,1.7,0,0,0,.112.511,1.746,1.746,0,0,0,.155.3c.031.048.064.093.1.138a1.706,1.706,0,0,0,1.009.612l.065.012.028,0,.085.013.053.008.108.014.075.009.137.014.092.009.176.015.1.008.264.016.058,0c.115.006.238.01.368.014h.11c.1,0,.2,0,.305,0h.05l.21,0h.121c.136,0,.276-.006.423-.011l.08,0c.123,0,.248-.01.378-.017l.166-.011.331-.022.195-.016.342-.03.208-.021.387-.042.192-.022c.194-.023.393-.049.6-.078h.011l.383-.056.057-.009c.071.028.15.057.232.085l.071.024c.069.023.142.046.219.069L26.1,217c.1.028.2.055.308.08l.077.018c.089.02.182.04.278.058l.1.02c.125.023.254.044.391.063l.029,0c.128.018.263.033.4.046l.129.011c.126.011.256.02.391.026l.1.006q.248.011.514.011h.044l.119,0c.106,0,.213,0,.324-.006l.195-.007c.11-.005.222-.011.336-.018l.2-.014c.124-.009.253-.021.382-.033l.187-.019c.194-.021.393-.046.6-.075.33-.046.672-.1,1.015-.167.135-.026.271-.048.408-.067.228-.032.46-.055.7-.071.08-.006.163,0,.243-.009.159-.006.317-.015.479-.015.229,0,.462.006.7.019.068,0,.139.01.208.015.17.011.341.024.514.042.091.009.184.021.277.032.156.019.312.038.471.06.1.014.2.031.3.046q.235.037.472.08c.1.018.208.038.312.058q.247.048.5.1l.306.066c.183.041.368.086.554.131l.27.065q.38.1.771.2l.074.019c.287.079.58.162.875.248l.282.084c.2.061.409.122.618.186l.358.112.572.18.383.124.578.189.392.129.605.2.386.129.679.23.332.113.819.28.184.063.675.231,1.158.394q.478.162.943.328c.93.33,1.822.667,2.691,1l.021.009.731.275.24.09.546.2.283.1q.263.1.525.189l.272.1c.217.076.435.152.653.225l.133.046q.387.129.778.251l.232.07q.281.085.564.166l.287.08q.267.074.537.143l.287.073c.206.051.415.1.625.144.067.015.133.031.2.046q.412.086.832.161l.216.034c.212.036.425.068.642.1l.3.038q.292.036.591.065l.314.029c.218.018.438.031.659.043.085.005.169.011.254.014.3.012.594.019.9.019h.036l.152,0c.263,0,.53-.009.8-.021.1,0,.2-.01.306-.016.235-.013.474-.031.714-.051.1-.009.2-.016.3-.026.336-.033.675-.072,1.023-.121h0q.47-.066.953-.152c.964-.17,1.964-.4,2.984-.679l.886-.241q1.307-.351,2.481-.644h0c.093.048.193.092.3.134l.078.031c.105.04.213.078.325.111h0c.114.034.233.064.354.092l.091.02c.244.053.5.094.765.125l.1.011c.133.014.267.027.4.036h0c.137.01.275.016.414.021l.1,0c.139,0,.277.006.416.006h0c.119,0,.238,0,.356,0l.112,0,.249-.009.123-.006.247-.014.107-.007c.231-.016.457-.037.677-.06l.1-.012.225-.027.108-.014.216-.031.09-.013c.2-.031.383-.063.556-.1l.078-.016.172-.037.08-.018c.054-.012.105-.025.155-.038l.065-.016c.135-.036.254-.072.353-.107l.043-.016.09-.037.038-.018c.025-.012.046-.023.065-.035l.026-.016a.254.254,0,0,0,.055-.048.387.387,0,0,0,.061-.142,1.354,1.354,0,0,0-.794-1.271c.217-.038.423-.075.62-.107s.382-.063.557-.092q.526-.083.921-.139l.046-.006c.457-.063.806-.105,1.04-.13s.366-.036.369-.036c.037,0,.074-.006.111-.011a1.706,1.706,0,0,0,1.468-1.7,1.723,1.723,0,0,0-.043-.366,5.918,5.918,0,0,0-2.309-3.2,6.668,6.668,0,0,0-.88-.53,8.669,8.669,0,0,0-3.324-.857.732.732,0,0,1-.326-.117,2.968,2.968,0,0,1-.576-.506c-.143-.153-.3-.332-.469-.535q-.127-.152-.266-.321c-.378-.457-.808-.98-1.326-1.5a10.31,10.31,0,0,0-1.85-1.5c.049-.112.1-.23.155-.354.163-.371.35-.792.561-1.254s.444-.968.7-1.509q.127-.27.262-.552.27-.562.566-1.167c.4-.8.827-1.658,1.29-2.543q.347-.664.718-1.35c.248-.456.5-.918.764-1.384.785-1.4,1.634-2.826,2.535-4.227q.45-.7.918-1.391c.934-1.377,1.917-2.708,2.935-3.933a31.915,31.915,0,0,0,1.986-2.669A42.267,42.267,0,0,0,94.5,174.021c.021-.088.036-.165.05-.237,0-.017.007-.035.01-.051.011-.068.021-.13.024-.183v-.015a.662.662,0,0,0,0-.121.165.165,0,0,0,0-.026.181.181,0,0,0-.031-.08l-.009-.008a.1.1,0,0,0-.055-.029l-.016,0-.011,0a.3.3,0,0,0-.085.016l-.022.009a.752.752,0,0,0-.109.051l-.039.021c-.051.029-.1.063-.166.1l-.384.265-.645.446c-.3.217-.585.379-.807.526l-.422.268-.286.181.1-.078ZM77.6,182.984q-.332.327-.649.65c-.373.4-.743.773-1.075,1.147s-.656.716-.936,1.048c-.429.491-.8.925-1.09,1.277q-.146.176-.266.324l-.474.571-.034.041.237-.217.35-.319c.37-.344.906-.827,1.559-1.393.161-.144.332-.29.511-.44s.364-.3.552-.462c.376-.32.79-.637,1.207-.974.3-.235.616-.47.936-.706s.647-.471.98-.7a8.065,8.065,0,0,1,.35.736c.055.132.107.267.157.408a7.663,7.663,0,0,1,.425,2.965,8.426,8.426,0,0,1-.147,1.175q-.06.305-.145.621a11.213,11.213,0,0,1-1.147,2.692q-.482.833-.916,1.616-.217.392-.422.771-.411.759-.775,1.471c-.73,1.425-1.327,2.713-1.813,3.883q-.242.585-.449,1.13c-.275.729-.5,1.406-.692,2.04s-.336,1.223-.449,1.774a15.357,15.357,0,0,0-.275,1.89c-.009.115-.016.228-.023.339-.018.334-.021.65-.013.952,0,.1.007.2.012.3s.012.193.019.287l-.229-.041-.243-.041c-.407-.068-.866-.137-1.357-.2-.819-.107-1.728-.2-2.639-.253-.728-.048-1.457-.07-2.139-.068-.341,0-.671,0-.983.014-.157,0-.308.009-.455.015s-.289.013-.425.025c-.544.03-.995.073-1.309.112l-.365.04-.129.014h.5c.317,0,.768,0,1.308.032.27.008.561.031.869.058s.634.051.968.092c.67.072,1.381.174,2.087.3.177.031.353.062.528.1.351.065.7.136,1.034.209s.664.149.977.226c.47.115.906.23,1.292.34l-.449-.053-.479-.054q-.353-.039-.733-.078t-.785-.078c-.809-.077-1.685-.151-2.594-.213s-1.851-.116-2.794-.152c-1.257-.049-2.515-.079-3.693-.068-.589,0-1.158,0-1.7.026s-1.049.024-1.52.057l-.674.038-.608.034-.985.085-.857.075h1.848l.295.009.985.028c.469.007.975.043,1.511.072s1.1.067,1.683.117c1.166.089,2.407.223,3.644.378.928.115,1.853.246,2.743.384.594.092,1.172.189,1.725.285s1.081.192,1.576.286q.37.07.714.139l.452.09c.728.147,1.333.279,1.773.379l.445.1q.242.125.465.263a8.142,8.142,0,0,1,1.2.9c.238.215.459.436.667.659q.156.167.3.335c.2.224.383.447.563.664s.354.428.526.628.341.389.514.563a4.259,4.259,0,0,0,.8.654c-2.315-.013-4.869,1.277-8.2,2.334.641-.274,1.215-.554,1.715-.82q.376-.2.694-.387c.106-.062.208-.122.3-.181s.188-.115.274-.17a11.878,11.878,0,0,0,1.083-.759s-.108.054-.312.147c-.1.046-.228.1-.377.167-.223.1-.5.212-.818.339-.213.085-.447.175-.7.269l-.393.143c-.408.145-.857.3-1.341.449-.162.05-.327.1-.5.151-.508.151-1.052.294-1.623.433q-.286.068-.581.136t-.6.126q-.3.06-.615.114-.624.109-1.274.2c-.216.031-.435.058-.656.082s-.442.045-.667.063c-.447.036-.9.063-1.357.084a22.934,22.934,0,0,1-2.768-.043c-.458-.038-.9-.066-1.385-.131l-.354-.043-.329-.052L57.841,218c-.113-.018-.226-.037-.337-.061a20.311,20.311,0,0,1-2.587-.642,17.809,17.809,0,0,1-1.754-.686q-.276-.127-.539-.262c-.349-.184-.682-.376-1-.576s-.609-.405-.884-.616a11.373,11.373,0,0,1-1.4-1.28c-.094-.105-.184-.21-.269-.312s-.165-.2-.24-.3c-.152-.195-.283-.381-.4-.553a7.635,7.635,0,0,1-.481-.832c-.1-.2-.139-.314-.139-.314s0,.03.015.087.029.142.056.252a6.044,6.044,0,0,0,.317.931c.064.15.139.312.227.482q.066.128.141.263a9.134,9.134,0,0,0,1.005,1.44,17.09,17.09,0,0,1-3.45-4.226c-.22-.386-.4-.749-.559-1.082-.038-.083-.075-.164-.11-.244a9.232,9.232,0,0,1-.62-1.828,13.083,13.083,0,0,0-.64-1.827,14.576,14.576,0,0,0-.88-1.705l-.016-.02-.228-.293c-.08-.1-.176-.228-.292-.375s-.251-.312-.409-.492c-.075-.093-.157-.189-.244-.288s-.18-.2-.277-.307-.2-.216-.306-.329l-.329-.351c-.117-.117-.238-.238-.364-.361s-.257-.249-.391-.378q-.4-.384-.859-.795c-.613-.539-1.286-1.11-2.017-1.7-.364-.3-.743-.591-1.133-.892s-.791-.608-1.2-.923c-.811-.628-1.672-1.255-2.522-1.927-.636-.5-1.293-1.017-1.934-1.54q-.321-.262-.635-.526c-.213-.188-.422-.385-.629-.585s-.411-.4-.614-.6c-.181-.22-.369-.433-.553-.649-.092-.107-.183-.216-.271-.326s-.174-.221-.255-.334a19.277,19.277,0,0,1-1.336-2.074q-.2-.351-.376-.7l-.181-.349c-.178-.348-.348-.694-.49-1.045q-.149-.348-.3-.687l-.262-.68c-.174-.447-.336-.882-.469-1.313-.072-.213-.139-.424-.2-.631s-.123-.411-.178-.613c-.12-.4-.222-.783-.312-1.152-.046-.184-.088-.364-.127-.539s-.077-.345-.112-.51c-.112-.493-.194-.943-.26-1.338-.022-.132-.043-.258-.062-.377-.149-.955-.19-1.507-.19-1.507s.057.208.171.588c.068.228.157.518.265.862s.237.741.387,1.185q.076.222.157.458c.105.317.227.65.359,1,.064.176.129.355.2.539s.141.37.218.56.149.385.23.581.166.4.255.6l.26.618q.143.308.289.626l.3.642.332.642c.217.437.455.871.708,1.308.152.272.315.541.484.808q.074.124.16.262c.058.092.12.19.189.292.156.245.351.5.556.785.049.064.1.131.154.2l.164.224c.078.105.159.208.241.308.166.2.342.395.515.591.087.1.173.2.257.3.178.169.352.337.529.5.2.2.41.4.618.607.337.3.667.608,1.017.9s.7.58,1.055.839c.18.13.356.263.53.391s.348.255.523.372l.515.342.494.329.479.288.447.27c.284.177.552.326.791.454s.45.236.62.331l.32.171.217.116-.281-.21-.208-.155q-.115-.09-.258-.193c-.282-.208-.634-.463-1.012-.788l-.822-.681-.431-.391-.45-.408c-.3-.277-.6-.588-.9-.888s-.583-.63-.877-.944c.122.091.243.183.364.272s.243.178.368.26c.285.189.556.383.832.552l.406.246.388.236.728.4c.222.126.432.23.619.321l.263.124c.081.038.156.074.222.107l.419.2-.208-.17-.154-.125c-.226-.191-.563-.442-.933-.788l-.6-.545-.641-.635c-.11-.11-.218-.226-.327-.345s-.216-.238-.327-.357c-.157-.169-.3-.349-.452-.529a20.469,20.469,0,0,1,7.736,1.076,17.2,17.2,0,0,1,4.232,2.428q.418.313.83.644t.812.674q.4.343.79.694c.389.351.768.706,1.134,1.059.488.472.953.941,1.39,1.4.328.341.639.674.931.992.585.637,1.093,1.219,1.5,1.7-.139-.146-.284-.3-.44-.456-.553-.565-1.206-1.214-1.927-1.889s-1.5-1.383-2.312-2.052c-.2-.172-.4-.338-.608-.5s-.411-.324-.615-.484-.407-.316-.613-.465-.412-.293-.609-.44c-.4-.29-.808-.537-1.182-.788-.19-.122-.38-.233-.565-.338s-.364-.2-.534-.3c-.085-.05-.17-.1-.254-.139s-.167-.083-.248-.121c-.162-.077-.318-.147-.46-.218a5.512,5.512,0,0,0-.763-.318l-.287-.1-.288-.1-.089-.033-.011,0,.265.12.39.176a5.574,5.574,0,0,1,.731.373c.2.124.435.243.673.388.08.048.16.1.24.156.161.112.33.223.5.341s.352.24.531.375c.351.277.733.549,1.1.865.184.16.374.317.566.478s.383.327.568.5c.376.346.762.692,1.128,1.061s.739.728,1.093,1.1.7.737,1.025,1.094c.164.179.324.357.48.531.312.349.605.686.878,1.005q.2.239.391.462c.53.633.947,1.155,1.226,1.511-.351.262-.7.524-1.068.762-.194.137-.392.263-.59.386s-.394.243-.586.364l-.579.336c-.189.11-.376.215-.561.312-.366.2-.717.385-1.044.548-.653.33-1.206.592-1.595.77l-.138.063-.474.217.1-.029.275-.083.274-.083c.41-.123.995-.308,1.692-.549.174-.059.356-.122.543-.189s.381-.139.578-.216.4-.152.608-.237l.632-.259c.423-.191.867-.376,1.3-.6.221-.105.441-.218.66-.336s.439-.238.659-.359c.43-.259.867-.51,1.274-.8.419-.27.8-.575,1.187-.862.272-.232.549-.45.8-.675q.127-.112.245-.228l.467-.442.415-.437c.27-.273.5-.555.708-.806l.29-.35.213-.285.227-.3.2-.248c.145-.177.309-.376.489-.593l.283-.34s.062-.087.176-.243l.132-.179c.149-.2.351-.475.6-.807l.267-.352c.763-1,1.874-2.408,3.28-4.041q.524-.616,1.1-1.268t1.21-1.333q.315-.339.641-.686c.651-.694,1.334-1.406,2.06-2.111.482-.474.974-.953,1.48-1.429s1.028-.952,1.568-1.418l.816-.7.824-.678c.424-.347.817-.687,1.217-1.027.133-.113.267-.227.4-.341.266-.23.526-.468.784-.709s.514-.482.773-.718c.5-.492.99-1,1.482-1.491l1.413-1.517,1.341-1.521q.643-.766,1.263-1.5t1.189-1.461c.756-.963,1.473-1.875,2.119-2.728q.482-.642.921-1.231t.823-1.117l1.32-1.832.258-.362.226-.32c.422-.6.65-.93.65-.93s-.046.09-.133.261l-.1.2c-.118.223-.272.528-.472.9q-.1.185-.215.39c-.076.137-.156.282-.241.434s-.174.309-.267.475c-.188.329-.394.682-.62,1.057q-.168.282-.348.581c-.24.4-.5.816-.775,1.251q-.208.327-.429.666t-.451.691q-.233.351-.477.712-.49.722-1.03,1.478l-.555.76-.568.778c-.394.519-.8,1.042-1.223,1.572l-1.315,1.588q-.349.4-.7.8t-.722.8l-.051.052c-.36.336-.746.685-1.152,1.041L77.13,182l-.657.559c-.661.567-1.309,1.152-1.919,1.73-.2.192-.4.384-.6.574-.381.388-.759.753-1.1,1.118-.17.182-.337.356-.5.526s-.315.335-.459.5c-.293.32-.558.615-.792.879s-.435.5-.6.687c-.33.381-.52.6-.52.6l.33-.315.114-.11.129-.124c.271-.264.634-.608,1.068-1.009q.217-.2.457-.419c.314-.3.672-.6,1.041-.926s.776-.655,1.186-1c.627-.509,1.3-1.026,1.986-1.532q.345-.254.7-.5c.425-.3.856-.6,1.281-.9C78.049,182.547,77.822,182.766,77.6,182.984Zm-5.111,38.635-.345.1c-.477.14-1.014.3-1.6.457-.446.11-.914.253-1.411.374q-.25.061-.509.111l-1.061.218c-.407.08-.832.109-1.259.178l-.438.053-.591.037c-.4.018-.795.068-1.2.054s-.813.006-1.222-.015l-1.081-.08-.319-.044-.728-.1-.319-.044-1.2-.247-1.161-.3c-.382-.1-.752-.228-1.119-.338-.731-.236-1.426-.489-2.081-.741s-1.269-.5-1.838-.721c-.71-.281-1.342-.54-1.879-.757-.322-.13-.61-.245-.86-.34l-.235-.092-.386-.151-.422-.165s.5.145,1.338.418l.294.1c.51.168,1.123.375,1.812.618l.423.15c.576.2,1.2.43,1.859.653s1.362.45,2.085.68c.365.1.733.221,1.111.321l1.148.282,1.177.229,1.117.155,1.283.109c.2.013.4.017.6.02s.4,0,.6.009c.408.02.81-.028,1.209-.039l.6-.034.522-.061c.376-.046.746-.081,1.108-.135l1.055-.177c.172-.026.341-.058.507-.092.332-.068.65-.146.958-.218.154-.036.306-.071.455-.1l.437-.1,2.439-.567.247-.055.406-.09.279-.063.09-.02.073-.016-1.073.324-.27.078Zm-33.384-8.2a5.5,5.5,0,0,1-.207.711,3.128,3.128,0,0,1-.127.329c-.047.106-.1.208-.142.307a4.93,4.93,0,0,1-.307.536,4.505,4.505,0,0,1-.3.421,3.15,3.15,0,0,1-.528.53s.186-.472.391-1.158c.056-.169.1-.361.156-.553l.143-.618c.046-.214.085-.435.115-.662s.063-.455.086-.684c.009-.057.016-.115.02-.171.009-.115.011-.23.016-.345,0-.057.006-.115.013-.171.009-.228,0-.452.009-.672,0-.109-.008-.216-.013-.322s-.011-.209-.014-.311c0-.2-.036-.393-.047-.573-.011-.089-.016-.176-.021-.259a1.8,1.8,0,0,0-.025-.234c-.024-.145-.036-.276-.049-.384s-.018-.194-.023-.254-.006-.092-.006-.092.041.058.11.165c.023.036.05.078.078.125.057.094.129.208.2.344a3.26,3.26,0,0,1,.21.473,3.537,3.537,0,0,1,.2.583c.025.106.055.215.082.327a2.743,2.743,0,0,1,.065.347c.021.238.071.486.069.738,0,.19,0,.383-.008.576,0,.064-.01.128-.019.192-.014.127-.029.255-.048.382A3.693,3.693,0,0,1,39.105,213.419Zm-7.653-4.055c-.119,0-.239,0-.359.009s-.242.015-.364.026-.246.016-.37.029-.247.028-.372.045a4.188,4.188,0,0,0-.558.1c-.062.014-.124.026-.187.038l-.364.11c-.064.018-.128.036-.191.058.023,0,.041-.007.065-.006a.694.694,0,0,1,.279.06.608.608,0,0,1,.147.092.508.508,0,0,1,.124.156.566.566,0,0,1,.038.106.272.272,0,0,1,.01.036c0,.016,0,.036.007.061a.521.521,0,0,1-.029.218.832.832,0,0,1-.211.323,1.141,1.141,0,0,1-1.179.218.59.59,0,0,1-.259-.2.346.346,0,0,1-.039-.072.338.338,0,0,1-.026-.144.355.355,0,0,0,.094.093.543.543,0,0,0,.294.089,1.216,1.216,0,0,0,.825-.292.434.434,0,0,0,.117-.152c.009-.022.016-.052.02-.062s0,0,0-.007l0-.035s0-.016,0-.026a.257.257,0,0,0-.089-.125.565.565,0,0,0-.077-.054.55.55,0,0,0-.088-.043,1.314,1.314,0,0,0-.323-.08l-.063-.007a4.631,4.631,0,0,0-.595.3c-.193.115-.381.24-.566.369a9.7,9.7,0,0,0-1.192,1.059c-.091.1-.184.194-.275.29s-.182.193-.268.294l-.262.3-.13.147a2.392,2.392,0,0,1-.172.171l-.033.028c.007.112.018.221.033.329a3.774,3.774,0,0,0,.245.889,4.09,4.09,0,0,0,.255.512,4.414,4.414,0,0,0,.3.447c-.282.048-.56.091-.822.128a17.449,17.449,0,0,1-5.154.147l.4-.2.138-.068.156-.078c.109-.058.229-.119.36-.187s.271-.142.419-.225.306-.169.47-.264.334-.2.51-.306c.352-.218.722-.469,1.1-.746.186-.14.376-.29.561-.447s.367-.324.539-.5l.1-.111.127-.159.255-.322c.165-.221.359-.426.551-.635s.4-.413.61-.61q.161-.147.33-.29t.343-.279c.247-.165.5-.328.76-.472a4.711,4.711,0,0,1,.815-.363,3.759,3.759,0,0,1,.63-.186c.07-.016.141-.033.211-.051s.141-.02.211-.031a4.911,4.911,0,0,1,.623-.078,6.636,6.636,0,0,1,.8-.028c.13,0,.259,0,.386.007s.25.012.373.023c.245.011.482.033.709.06s.447.057.657.084.41.06.6.09c.285.046.548.093.784.137l.436.085.191.038c.362.075.607.131.706.154l.051.012s-.282.006-.774,0l-.194,0-1.529-.025-.309,0C32.375,209.359,31.923,209.35,31.452,209.364Z" fill="#616161"/>
    <path id="Path_2" data-name="Path 2" d="M62.149,219.446l.79-.2.23-.059c.243-.066.525-.139.839-.228.105-.029.213-.06.325-.093l.342-.121q.352-.125.743-.267l.4-.148.417-.155.419-.191.876-.411a8.688,8.688,0,0,0,.906-.479l.927-.541.911-.637c.076-.055.154-.108.231-.162s.155-.11.23-.168l.437-.371a16.131,16.131,0,0,0,1.283-1.18c.138-.137.275-.276.413-.414l.76-.884c.126-.147.245-.3.361-.451s.232-.305.35-.455c.24-.3.449-.61.661-.915s.42-.607.618-.907c.4-.6.773-1.178,1.128-1.729.184-.269.357-.536.525-.793.084-.129.167-.255.25-.378s.165-.243.248-.358l.238-.344c.156-.224.305-.437.451-.635q.109-.149.216-.286c.208-.278.393-.534.566-.749.057-.072.113-.14.167-.2.421-.521.661-.819.661-.819l-.785.7c-.064.055-.129.115-.2.179-.2.192-.423.42-.662.678-.159.171-.336.349-.511.546l-.534.632c-.19.218-.378.453-.568.7-.1.122-.191.248-.288.376l-.3.388L75,209.577c-.417.581-.862,1.162-1.315,1.75-.117.144-.23.292-.346.438s-.232.292-.356.432l-.742.842c-.391.4-.778.807-1.187,1.183-.137.125-.275.247-.418.364l-.412.363c-.139.117-.287.222-.43.333l-.851.647-.87.563c-.141.1-.28.189-.421.277s-.282.171-.426.245l-.825.458-.391.223-.391.186-.376.182-1.02.494-1.113.467-.41.179Z" transform="translate(-12.745 -11.987)" fill="#616161"/>
    <path id="Path_3" data-name="Path 3" d="M80.809,210.031l.173-.236.069-.1c.105-.147.162-.23.162-.23s-.185.17-.5.482c-.041.038-.082.08-.123.125s-.085.092-.129.142l-.137.158-.147.169c-.21.228-.415.509-.642.815q-.166.232-.339.486c-.343.509-.7,1.081-1.072,1.675-.25.393-.519.793-.8,1.188-.067.1-.139.2-.213.3s-.151.191-.226.288a6.112,6.112,0,0,1-.471.561A12.946,12.946,0,0,1,75.4,216.9l-.548.462-.269.228c-.1.068-.19.135-.284.2l-.551.4c-.09.066-.183.125-.275.183s-.186.112-.275.171c-.361.227-.7.445-1.031.615s-.62.355-.892.5l-.712.352c-.394.2-.615.318-.615.318s.137-.039.382-.115l.132-.041.149-.047.346-.114.408-.134c.29-.1.612-.239.963-.387.174-.077.362-.147.546-.238l.564-.3c.192-.105.4-.2.593-.322l.593-.383.3-.2.292-.226.3-.229c.1-.078.2-.156.294-.238l.278-.261c.186-.175.371-.352.549-.539.089-.093.176-.189.258-.287s.172-.192.253-.292.159-.2.234-.305.155-.2.231-.305.149-.2.217-.311.142-.207.209-.312.132-.209.2-.314c.127-.21.248-.42.368-.624.464-.827.867-1.6,1.236-2.251.049-.08.1-.158.141-.235.135-.231.258-.45.385-.638C80.535,210.432,80.671,210.2,80.809,210.031Z" transform="translate(-14.997 -13.648)" fill="#616161"/>
  </g>
</svg>
