<svg xmlns="http://www.w3.org/2000/svg" viewBox="0 0 98.49 102.37"><g><g><path d="M58.88 23.92v.21l.09.06.22.17a4.79 4.79 0 0 1 .47.45 4.42 4.42 0 0 1 .78 1.11 1.9 1.9 0 0 1 .09.24v.06h.21v.14a.89.89 0 0 0 .16.46 1.48 1.48 0 0 1 .1.18 2 2 0 0 1 .11.48v.08h.08v.6c0 .08 0 .08.08.08s0 .07 0 .12v.19c.09 0 .24.08.22.2a.16.16 0 0 1-.1.11v.1c0 .03 0 .32.07.48s0 .18 0 .27v.09h.17l-.1 1h.1v1.6c0 .28-.05.47-.09.7a1.43 1.43 0 0 0 0 .43l.07.61h-.1v.48c0 .06 0 0-.07 0s0 0 0 .08v.4c0 .06 0 0-.07 0s0 0 0 .08v.34l-.14.07s-.07 0-.08.07V36.34s-.07 0-.07.08v.23h-.1v.31L61 37v.27h-.1v.21h-.1v.72h-.08l-.06.23v.11c0 .06-.06 0-.11 0l-.06.23c0 .06 0 .17-.08.21s-.17.06-.17.12v.1c0 .07 0 .07-.06.11l-.19.12s-.06 0-.06.08v.19l-.1.05s-.07 0-.07.07v.14c0 .13-.31.15-.31.28v.19l-.1.05c-.06 0-.07 0-.07.1v.1c0 .05 0 .05-.06.08l-.18.15-.18.15-.09.07v.23l-.1.05a.47.47 0 0 0-.17.16l-.5.33-.07.1h-.22l-.06.09-.12.19h-.21l-.15.22-.06.09h-.21l-.07.09-.32.4c0 .05-.13 0-.19 0s-.1.12-.12.17-.15.06-.22.07l-.28.06c-.06 0 0 0 0 .08s0 0-.07 0h-.1c-.05 0 0 0 0 .07s0 0-.08 0h-.23v.1H54.93v.08l-.18.06a8.13 8.13 0 0 1-1.15.23 2.83 2.83 0 0 1-1.11 0v-.07c0-.07 0 0-.08 0H52V44h-.72v-.07h-.17s0-.07-.08-.07h-.23v-.1h-.31v-.07h-.14c-.06 0-.09-.12-.12-.17s-.13 0-.19 0-.13-.1-.17-.15l-.19-.21-.4-.45-.11-.12H49c-.07 0-.07 0-.1-.07l-.07-.14h-.1V42c0-.07 0-.07-.06-.11l-.13-.08-.12-.08-.08-.14-.16-.29L48 41c0-.06-.1-.25-.18-.25h-.14c-.06 0 0-.06-.06-.11a1.24 1.24 0 0 0-.09-.24 2.74 2.74 0 0 0-.23-.4l-.13-.18v-.12l.07-.14h-.1v-.21H47v-.23-.08s-.07 0-.07-.08v-.23h-.1v-.23-.08h-.07V38h-.11v-.3-.08s-.07 0-.07-.08v-.36-.08h-.07v-.4a1.64 1.64 0 0 0 0-.38c0-.09 0-.19-.06-.28a6.48 6.48 0 0 1-.06-.65 11 11 0 0 1 0-1.44c0-.28.06-.56.11-.83 0-.11 0-.22.07-.33a2.25 2.25 0 0 0 0-.56V32h.11v-.5h.11v-.3c0-.08 0-.08.07-.08s0-.06 0-.11v-.3h.1v-.38H47l-.11-.31H47v-.23-.08h.07v-.1-.07s.07 0 .07-.08v-.23h.11v-.12l.17-.51h.1v-.11l.06-.23s0-.07.05-.09l.1-.05s.06 0 .08-.07l.05-.16.08-.23c0-.07 0-.18.1-.21s.17-.06.17-.12v-.1c0-.07 0-.07.07-.07s0 0 0-.07v-.1c0-.05 0 0 .07 0s0 0 0-.07v-.1c0-.05 0 0 .07 0s0 0 0-.07v-.14l.19-.13.09-.06V26s0-.06.06-.09l.21-.18.36-.31.09-.08v-.21l.12-.1.37-.29a.57.57 0 0 0 .12-.2c0-.06.16 0 .22 0l.13-.19.06-.09h.19s.05 0 .08-.06l.49-.2.15-.18s0-.06.08-.06h.19v-.1s0-.07.07-.07h.14c.06 0 .09-.12.12-.17s.13 0 .19 0 0 0 0-.07 0 0 .07 0h.1c.06 0 0-.06 0-.1H52.73v-.07h.23c.06 0 0-.05 0-.1h.31v-.07a1.45 1.45 0 0 0 .43 0 6 6 0 0 1 .61-.16 3.78 3.78 0 0 1 .78-.09 3 3 0 0 1 .82.15l.88.24.44.12.24.07c.07 0 .1.12.13.18s.1 0 .16 0h.09v.17h.21v.1a1.36 1.36 0 0 0 .52.31M33.11 22.77l1 .05H35c.08 0 .08 0 .08.07s.19 0 .24 0 .17-.13.17 0v.07h.23c.06 0 0 0 0 .07s.14.08.2.1l.27.09h.12c.05 0 0 0 0 .08s0 0 .07 0h.1c.05 0 0 0 0 .07s0 0 .08.05l.26.07s.07 0 .09.05l.05.11s0 .07.07.07h.19l.06.09c0 .06.09.19.16.19h.19l.13.19.06.09h.11l.26.07c.07 0 .12.11.16.16l.15.18.15.18h.2v.09l.09.06.19.12v.21l.22.15.09.06V26l.09.08.4.34.1.08v.2l.06.08.19.12s.06 0 .06.08v.14c0 .06.12.09.17.12s0 .13 0 .19.12.09.17.12.07.18.08.26v.24c0 .06 0 0 .08 0s0 0 .06.08l.17.51.08.23v.12h.1l.06.23v.11c0 .07 0 .08.09.08s0 0 0 .08v.23l.1.05.1.05V30h.1v.17h.07v.34c0 .06 0 0 .07 0s0 .07.05.12l.08.47c0 .06 0 0 .08 0a.22.22 0 0 1 0 .1.31.31 0 0 0-.07.22v.06h.07v.38h.1v.48c0 .06 0 0 .07 0s0 .07 0 .12v.61h.1v1.29a1.06 1.06 0 0 0 0 .3 3.52 3.52 0 0 1 .07.35 1.52 1.52 0 0 1 0 .36.85.85 0 0 1 0 .16h-.08c-.08 0 0 .07 0 .12v1.23h-.07v1.09h-.08a.24.24 0 0 0 0 .08.26.26 0 0 0 0 .13c0 .05.09.1.07.17h-.1v.62h-.1v.12l-.17.51H42v.21l-.1.05-.1.05v.21h-.11v.17h-.07v.17h-.07v.1c0 .07 0 .07-.07.1l-.1.05-.06.1-.08.23h-.1v.23c0 .07 0 .08-.06.13l-.37.31-.19.16c0 .06-.07.21-.14.21h-.2l-.16.18-.34.39-.08.09h-.19c-.05 0 0 0 0 .07s-.14.08-.19.1l-.27.09h-.12c-.06 0 0 0 0 .08s0 0-.08.05h-.12l-.51.11-.23.05v.1H37.48v.08a3.23 3.23 0 0 1-1.16 0A8.85 8.85 0 0 1 35 44a2.48 2.48 0 0 1-.37-.12v-.07c0-.02 0 0-.07-.05l-.23-.06h-.11v-.1h-.38c-.06 0 0 0 0-.07s0 0-.08-.05h-.11l-.23-.06c0-.07-.07-.2-.14-.22l-.34-.2c-.07 0-.12-.11-.16-.17l-.14-.19s0-.06-.08-.06h-.14c-.13 0-.15-.31-.28-.31h-.19l-.15-.22s0-.06-.08-.06h-.19l-.08-.09-.34-.4a.49.49 0 0 0-.18-.15l-.1-.05v-.21l-.09-.09-.22-.15v-.21l-.21-.1-.08-.23s0-.07-.06-.1l-.13-.1-.19-.11s-.06 0-.06-.08v-.1-.09l-.1-.05s-.07 0-.07-.07v-.14c0-.13-.31-.15-.31-.28V39v-.07h-.08v-.15l-.06-.23H29v-.34-.08s-.07 0-.09-.08l-.06-.23v-.11h-.1v-.21-.08s-.07 0-.09-.07l-.06-.23v-.11h-.1v-.23-.08s-.07 0-.09-.07l-.06-.23v-.11H28l-.09-.51v-.12h-.1v-.24l-.11-.52c0-.07-.09-.25 0-.3a.29.29 0 0 0 .09-.23v-.06h-.07v-.5-.08s-.07 0-.07-.08v-1c0-.1-.09 0-.11-.06v-.08a2.11 2.11 0 0 1 0-.22 5.14 5.14 0 0 1 0-.55c0-.42.05-.84.11-1.26a5.46 5.46 0 0 1 .15-.87 1 1 0 0 0 0-.22v-.37c0-.06 0 0 .07 0s0-.09 0-.14a.2.2 0 0 0-.07-.06v-.09l.08-.51c0-.06 0 0 .08 0s0 0 0-.08v-.23h.1v-.11l.07-.27c0-.05 0 0 .08 0s0 0 0-.07v-.1c0-.06 0 0 .07 0s0 0 0-.08v-.23l.14-.07s.06 0 .08-.07v-.24c0-.06 0 0 .08 0s.08-.14.1-.19l.09-.27v-.12c0-.05 0-.05.08-.07l.1-.05v-.19c0-.06 0 0 .07 0s0 0 0-.07v-.14l.38-.29c.05 0 0-.13 0-.2s.15-.11.21-.14l.21-.1.16-.18.34-.39.1-.12h.23l.06-.09.1-.15c0-.07.06-.06.15-.06h.07c.05 0 0 0 .07-.07s0-.13.11-.15l.2-.06 1.53-.45M68 39.5a5.47 5.47 0 0 1 1.59.19l.33.1a1.52 1.52 0 0 0 .47 0l.83.56a.5.5 0 0 1 .16.16l.12.19c0 .05.13 0 .2 0s.14.13.18.18l.15.18a.53.53 0 0 0 .16.17c.05 0 .17.06.17.12v.1c0 .07 0 .07.06.11l.19.13s.06 0 .06.08v.19l.1.07.22.17s.06 0 .07.09v.11l.06.23c0 .07.12.09.18.12s0 .16 0 .23h.1v.72h.1v.3c0 .06 0 0 .07 0s0 0 0 .08v.34h.11v.34c0 .06 0 0 .07 0s0 0 0 .08v.54h.1v.09a1.62 1.62 0 0 1 0 .24 7.57 7.57 0 0 1 0 1.24c0 .19 0 .38-.06.57s-.06.27-.07.4q0 .45-.06.9v.61h-.07v.38h-.07l-.06.43v.32c0 .04 0 0-.08 0s0 0 0 .08v.23h-.1l.1.31h-.1v.21h-.1l-.17.51-.08.23c0 .07 0 .18-.1.21s-.17.06-.17.12v.1c0 .07 0 .07-.07.07s0 0 0 .07v.1c0 .06 0 0-.07 0s0 0 0 .07v.1c0 .05 0 0-.07 0s0 0 0 .07v.14h-.1v.21l-.1.05-.1.05V54h-.1v.17h-.07v.17h-.07v.1c0 .07 0 .07-.06.11l-.19.13s-.06 0-.06.08V55.1l-.09.08-.21.18-.36.31c-.05 0 0 .13 0 .2s-.13.15-.18.19a4.94 4.94 0 0 0-.74.69l-.14.19-.07.1h-.21l-.05.1-.05.1h-.23l-.06.09-.12.19h-.21l-.14.22-.06.09h-.21l-.05.1-.05.1h-.11l-.26.07c-.06 0 0 0 0 .08s0 0-.07.05l-.23.06h-.11v.11h-.26a.59.59 0 0 0-.2 0l-.15.05-.35.12c-.25.08-.51.15-.77.21A4.1 4.1 0 0 1 64 59h-.19a.77.77 0 0 0-.22 0h-.36v-.1H63c-.06 0 0 0 0-.07s0 0-.08 0a1.38 1.38 0 0 1-.5 0 3.69 3.69 0 0 1-1.21-1 5.83 5.83 0 0 0-.53-.56l-.37-.31-.19-.16c-.06-.05 0-.18 0-.26v-.08h-.07v-.1-.07h-.07V56v-.07s-.07 0-.07-.07v-.1c0-.06 0 0-.07 0s-.08-.14-.1-.2l-.08-.23v-.12c0-.07 0-.08-.1-.08s-.06-.1-.07-.16v-.19l-.1-.43c0-.06 0-.14-.07-.17l-.44-.18v-.31h-.11l.11-.52h-.07c-.06 0 0 0 0-.08v-.69l-.06-.89h.1v-1c0-.07.05 0 .11 0l-.06-.4v-.28c0-.06 0-.05.06-.08s.14 0 .14-.11v-.48h.1l-.1-.41h.1v-.11l.06-.23s0-.08.05-.08h.08c.01 0 0-.19 0-.28v-.36c0-.06 0 0 .08 0s0 0 0-.08v-.12-.27-.12c0-.04 0 0 .07 0s0 0 0-.07v-.1c0-.05 0 0 .07 0s0 0 0-.08v-.12-.12h.07v-.1-.07h.08l.17-.51.16-.47.08-.23c.06 0 .21-.07.21-.14v-.19l.19-.12.09-.06v-.21h.12l.08-.23c0-.07.12-.09.19-.12s0-.13 0-.19.13-.12.18-.16l.1-.06v-.33l.41-.34a7.34 7.34 0 0 0 .72-.73l.33-.37.17-.18.08-.09c0-.05.05-.06.12-.06h.1c.06 0 0 0 0-.07s0 0 .07 0h.1c.06 0 .09-.12.12-.17s.17-.07.24-.09.18 0 .21-.08.06-.17.12-.17h.19l.15-.22s0-.06.08-.07h.11l.23-.06c.05 0 0 0 0-.08s0 0 .07 0h.1c.06 0 .06-.06.09-.1l.05-.1h.12L66 40h.23c.06 0 0 0 0-.08s.05 0 .11 0h.1v-.1h.12a1.56 1.56 0 0 1 .32 0 6 6 0 0 0 .69 0 .73.73 0 0 0 .43-.32M29.27 58.3h-.21a1.13 1.13 0 0 1-.11.16 1.25 1.25 0 0 1-.29.25l-.31.18-.17.1s-.06 0-.06.07 0 .07-.08.1l-.23.08-.12.19a.44.44 0 0 1-.18.18 3.34 3.34 0 0 1-.43.18 6.64 6.64 0 0 1-1.27.31 3.93 3.93 0 0 1-.65 0h-.46V60h-.34c-.06 0 0 0 0-.07s0 0-.08 0h-.39v-.07h-.23c-.06 0 0 0 0-.07s0 0-.07 0h-.1c-.07 0-.11-.15-.14-.21l-.48-.1c-.06 0 0 0 0-.08s0 0-.08-.06l-.27-.09-.38-.25c-.05 0 0 0 0-.08s0 0-.07 0h-.1c-.05 0 0 0 0-.07s0 0-.07 0h-.14v-.1h-.21v-.1h-.33l-.08-.12c0-.05-.08-.16-.14-.16h-.19l-.12-.19-.15-.18H20.3l-.08-.09-.16-.19-.35-.4-.08-.09h-.2c-.05 0 0 0-.07-.07l-.05-.1h-.09c-.09 0 0 0 0-.07v-.14l-.36-.31-.18-.16c-.05 0-.18-.12-.18-.19v-.2l-.19-.16-.41-.34v-.23-.09l-.2-.17s-.06 0-.08-.07v-.11l-.07-.27-.21-.1v-.21h-.1V54h-.11v-.1-.07h-.07v-.1-.09l-.1-.05s-.07 0-.07-.07v-.14c0-.06-.12-.09-.17-.12s0-.13 0-.19 0 0-.07 0 0 0 0-.07v-.1c0-.06-.06 0-.1 0v-.23-.08h-.07v-.1-.07h-.07V52h-.1v-.11a.16.16 0 0 0 .1-.17h-.08c-.08 0 0 0 0-.08v-.48L16 51c0-.06-.05 0-.11 0v-.48c0-.06 0 0-.07 0s0 0 0-.08v-.54h-.11c-.01 0 0-.09 0-.13v-.39A17.66 17.66 0 0 1 15.5 47a3.7 3.7 0 0 1 0-.41c0-.05 0-.12.06-.12h.07v-.65c0-.06 0 0 .07 0s0-.06 0-.11v-.23-.08s.07 0 .07-.08v-.42h.1v-.34c0-.06-.05 0-.1 0l.08-.23s0-.08.06-.08h.17a.9.9 0 0 1 0-.1 1.7 1.7 0 0 1 .05-.23 2.41 2.41 0 0 1 .36-.72 3.13 3.13 0 0 1 .49-.55 1.17 1.17 0 0 0 .4-.45v-.1h.1l.16-.08a2.49 2.49 0 0 0 .27-.23l.07-.06v-.09c0-.09 0 0 .08 0h.23v-.1l.27-.07h.11c.05 0 0 0 0-.08s0 0 .08 0h.23v-.1h.27c.06 0 0 0 0-.07s0 0 .08 0h.23v-.1h.38c.06 0 0 0 0-.07s0 0 .08 0h.97V41a.14.14 0 0 1 .09-.05h.08v.1h.85c.07 0 0 0 0 .1H22.43v.07h.23c.06 0 0 .05 0 .1h.31v.08l.23.06h.11c.06 0 0 .06 0 .11h.44c.03 0 .06.17.12.18l.27.07h.11l.05.1.05.1h.21l.07.1.17.22.07.1h.12c.07 0 .18 0 .21.1s.06.17.12.17H26c.07 0 .07 0 .1.07l.05.1h.19s.05 0 .08.06l.32.4a2.92 2.92 0 0 0 .35.34l.4.36.18.16s.15.1.15.17v.19l.22.15s.06 0 .07.08v.24c0 .05 0 .05.08.07l.1.05v.19c0 .06.05 0 .1 0l.08.23s0 .07.06.1l.1.05s.07 0 .07.07v.19l.13.1.19.14s.06 0 .08.09v.12l.17.51.08.23c0 .05 0 0 .08 0s0 0 0 .07v.1c0 .06 0 0 .07 0s0 0 0 .08v.24h.07v.17h.08v.12l.06.28c0 .08 0 .08.09.08s0 .07 0 .12v.16c0 .09.09 0 .11.08l.05.31v.24c0 .05 0 .05.08.07l.14.07v.16l.07.36.07.36c0 .06.05.13 0 .18a.28.28 0 0 0-.08.12.41.41 0 0 0 0 .1c0 .08 0 .06.11.06v.48c0 .07.08.08.14.11s.07 0 .06.12 0 .11 0 .16v.37c0 .25 0 .49-.06.74H31c.06 0 0 0 0 .08v1.23c0 .06 0 0-.07 0s0 0 0 .08v.55h-.07c-.06 0 0 0 0 .08v.44h-.1v.31h-.07V55.74c0 .03-.17.06-.17.13v.27h-.07v.17h-.1v.21h-.1L30 57l-.07.2c0 .07 0 .18-.1.21l-.17.09v.21l-.17.09c-.06 0 0 .13 0 .19s0 0-.07 0 0 0-.06.08l-.08.23M63.45 67.44h.17v.1a1 1 0 0 0 .07.28 1.26 1.26 0 0 0 .11.2c0 .07.12.15.12.23v.17h.1v.31h.1V69c0 .05 0 0 .07 0s0 0 .05.08v.44h.1v.27c0 .06 0 0 .07 0v.28h.07v.17h.1v.17c0 .06 0 0 .07 0s0 0 0 .08v.2c0 .06 0 0 .07 0s0 0 0 .08V71c0 .06 0 0 .07 0s0 0 0 .08v.19c0 .06 0 0 .07 0s0 0 0 .08v.12l.07.43h-.1v.27c0 .06 0 0 .1 0v.57c0 .4 0 .8.07 1.19h-.1v.09a1.82 1.82 0 0 0 0 .19 3.1 3.1 0 0 0 0 .39 4.45 4.45 0 0 0 .07.68h-.21v.48c0 .07 0 .22-.06.26a2 2 0 0 0-.44.62 1.22 1.22 0 0 1-.34.3l-.1.07v.19c0 .06-.05.08-.09.11l-.78.65-.37.31-.23.06h-.12c-.07 0-.07 0-.07.09s0 0-.08 0h-.16v.07h-.27v.11h-.24l-.49.08a10.29 10.29 0 0 1-2 .12 2 2 0 0 1-.33 0v-.08c0-.08 0 0 0 0h-.54c-.1 0 0-.1-.08-.1H57.49v-.07H57v-.1h-.31v-.11l-.31.11v-.07c0-.05 0 0-.07 0h-.14v-.07h-.31v-.07c0-.05 0 0-.08-.05h-.19c-.05 0-.15 0-.15-.07v-.07h-.31l-.13.04-.13-.09a.82.82 0 0 0-.18-.09h-.13c-.05 0-.14 0-.14-.06v-.17l-.2-.06-.39-.13-.39-.13-.19-.07h-.08v-.1l-.4-.19h-.2c-.09 0 0-.11-.07-.11h-.17v-.07c0-.05 0 0-.08-.05l-.44-.09v.1h-.11v-.1h-.2v-.1h-.62v-.1l-.51-.08h-.12l-.05-.1-.05-.1h-.31v-.07h-.38v-.1h-.48c-.07 0 0 0 0-.1h-.48c-.06 0 0 0 0-.07s0 0-.08 0h-1c-.06 0 0 0 0-.07s-.07 0-.12 0h-.71v.1h-1.12v.07h-.93v.07c0 .06 0 0-.08 0h-.39a.82.82 0 0 0-.31.05L43.3 76l-.31.06h-.07c-.06 0 0 0 0 .07v.14a4.14 4.14 0 0 0-1.32.31l-.6.26-.26.12a.15.15 0 0 1-.15 0l-.23-.08V77H40v.08h-.59v.07h-.17v.07h-.27v.1h-.31v.07h-.19l-.07.14c0 .06-.15 0-.21 0h-.12v.1h-.21V78h-.52v.1h-.31s0 .07-.08.07h-.34v.1l-.51.09h-.12v.11a.14.14 0 0 1-.09 0 .51.51 0 0 0-.22-.1h-.08v.08c0 .08 0 0-.08 0H34.3c-.06 0 0 0 0 .07s0 0-.08 0h-.4a1.37 1.37 0 0 0-.31 0h-.21A7.85 7.85 0 0 1 32 79a2.2 2.2 0 0 1-.52 0c-.06 0 0-.06 0-.12H31.06v-.07h-.38v-.1h-.31v-.07H30v-.1h-.21v-.1h-.23c-.08 0-.08 0-.11-.07l-.05-.1h-.2s-.06 0-.09-.06l-.36-.4-.33-.37-.17-.18c0-.05-.16 0-.23 0V77l-.09-.06-.19-.12c-.05 0 0-.13 0-.19s-.13-.12-.19-.16l-.09-.06v-.33h-.1v-.21h-.11l-.06-.23v-.11c0-.06 0 0-.08 0s0 0 0-.08v-.23H27c-.01 0-.09-.26-.12-.39a10.4 10.4 0 0 1-.26-1.23 4.9 4.9 0 0 1-.06-.64 2 2 0 0 1 0-.27 1 1 0 0 1 0-.1c0-.08 0-.06.12-.06l-.1-.52h.1v-.42c.06 0 .21-.07.21-.14v-.27h.1V70.74l.1-.56.1-.56v-.12c0-.07 0-.08.08-.08s0 0 0-.08v-.56c0-.08 0-.08.08-.08s0 0 .05-.08v-.16l.06-.28h-.1V68h.1v-.23-.08h.07v-.14c0-.05 0 0 .07 0s0 0 0-.08v-.23h.1v-.21h.11v-.19c0-.03.17-.06.18-.12l.15-.5.14-.46c0-.06 0 0 .08 0s0 0 .06-.08l.09-.27.08-.23c0-.06 0 0 .08 0s0 0 0-.07v-.1c0-.05 0 0 .07 0s0 0 0-.08v-.16-.08h.08c.01 0 0-.15.06-.22v-.11c0-.05 0 0 .08 0s0 0 0-.07v-.14h.1v-.12-.21c0-.03.17-.06.18-.12l.07-.27v-.11l.09-.06.18-.12c.06 0 .08-.15.1-.22l.09-.27v-.12l.08-.07.1-.05v-.19c0-.05 0 0 .07 0s0 0 0-.07v-.14h.1v-.12-.21c0-.03.17-.06.17-.12v-.1c0-.07 0-.07.07-.1l.11-.05v-.19l.06-.07.19-.13s.06 0 .06-.08v-.14c0-.06.11-.12.16-.15l.86-.55s.06 0 .06-.08v-.1-.09l.14-.07c.06 0 0-.13 0-.19s.12-.09.17-.12.08-.15.1-.21v-.12h.11l.06-.23v-.11s0-.06.07-.09l.19-.14.1-.07c.06 0 .06 0 .06-.12v-.1s0-.06.06-.09l.19-.15.19-.16c.05 0 .18-.12.18-.19v-.2l.19-.16.41-.34v-.21h.1l.06-.09.13-.19c0-.06.16 0 .23 0l.1-.21h.21l.35-.39.32-.36.16-.18h.23l.12-.19.06-.09H36.48l.05-.1c0-.06 0-.07.1-.07h.1c.05 0 0 0 .07-.07l.05-.1h.19c.05 0 0 0 .07-.07l.05-.1c0-.05.08-.06.13-.07l.47-.16c.07 0 .1-.11.14-.17l.06-.09a.14.14 0 0 1 .12-.08l.23-.06h.11l.05-.1.05-.1h.21v-.11l.23-.06h.11c.05 0 0 0 0-.08s0 0 .08 0h.23v-.1H40c.06 0 0 0 0-.07s0 0 .08 0h.51c.06 0 0 0 0-.08s0 0 .08-.05h.12l.52-.1h.24s.08 0 .08-.05v-.08l.52-.09.48-.08h.2V52H43a14 14 0 0 1 3.48-.15h.92v.07h.6v.1h.38c.06 0 0 0 .07.07l.05.11.1.05.52.12.47.11.24.05c.06 0 0 0 0 .08s.06 0 .1 0H50v.1h.48c.06 0 0 0 0 .08s.07 0 .12 0h.23L51 53v.07h.17v.07h.14c.06 0 .09.12.12.17s.14.07.21.08l.23.06.15.22.06.09h.21l.06.09.13.19c0 .06.16 0 .23 0l.1.21.23.08.24.08h.12c.06 0 .08.06.11.11l.14.19.07.1H54V55l.19.21.69.77h.21l.12.19.06.09h.26c.04 0 .21.38.35.55a3.69 3.69 0 0 0 .33.31l.39.37.76.7.06.23c0 .07 0 .17.08.21l.4.35.37.32c.05 0 0 .13 0 .2s.15.11.21.14v.11l.09.06.19.13c.06 0 .06.14.08.21s0 .21.09.24.17.06.17.12v.19l.19.13.09.06v.23l.09.07.19.14.09.07v.24c0 .07 0 .08.1.11l.1.05v.32l.19.12.09.06s.05.08.07.14 0 .19.1.19h.08v.11l.06.23c0 .05 0 0 .08 0s.06.07.07.12 0 .18.1.21.17.06.17.12v.19l.22.15s.06 0 .06.08v.19l.1.05s.07 0 .07.07v.19l.12.08.16.1v.21l.17.09c.06 0 .06.15.08.22v.32l.1.05.1.05v.11l.06.23v.08l.1.05a.33.33 0 0 1 .16.13 4 4 0 0 1 .2.37 3.42 3.42 0 0 1 .27.8" fill="#f0b968"/><path d="M.76 32.9C23.71-2.56 58.64 7.73 70.23 15.62c12.07 8.21 20.1 23.11 18.54 39.06v.6c-3.3 21.61-22 35.4-29.3 37.44C40.46 98 16.93 91.32 3 75.33l-.35.35c7.3 17 32.22 32.8 59.45 24.34 18.25-5.67 31.11-22 34.77-37.9 4.62-20.06-1-37.37-14.51-49.54C72.26 3.46 58.35.07 46 0 34.23-.07 7.6 5.55 0 33.28z" fill="#0081cc"/></g></g></svg>