<svg xmlns="http://www.w3.org/2000/svg" width="41.814" height="44.913" viewBox="0 0 41.814 44.913">
  <g id="qotes-icon" transform="translate(-2.983 -0.833)">
    <path id="Path_9" data-name="Path 9" d="M37.748,23.279c-.566-.056-1.814-.056-1.814-.85,0-1.076,1.587-2.494,4.137-4.023.793-.51,2.437-1.3,2.437-2.381,0-.85-.623-1.474-1.927-1.3-1.247.17-3.174,1.02-5.724,3.173C32.193,20.1,29.7,23.788,29.7,27.416c0,3.683,2.494,7.368,6.517,7.368A5.855,5.855,0,0,0,42.224,29C42.224,26.452,40.468,23.505,37.748,23.279Z" transform="translate(-7.466 -3.873)" fill="maroon"/>
    <path id="Path_10" data-name="Path 10" d="M26.1,20.893a4,4,0,0,0-1.527-.448c-.566-.056-1.814-.056-1.814-.85,0-1.076,1.587-2.494,4.137-4.023.793-.51,2.437-1.3,2.437-2.381,0-.85-.623-1.474-1.927-1.3-1.247.17-3.174,1.02-5.724,3.173-2.664,2.211-5.157,5.894-5.157,9.521,0,3.683,2.494,7.368,6.517,7.368a6.268,6.268,0,0,0,2.662-.59,9.874,9.874,0,0,1-1.217-4.735A12,12,0,0,1,26.1,20.893Z" transform="translate(-3.784 -3.081)" fill="maroon"/>
    <path id="Path_11" data-name="Path 11" d="M40.231.833H7.55A4.57,4.57,0,0,0,2.983,5.4V34.053A4.57,4.57,0,0,0,7.55,38.62h8.965l.349.415,4.742,5.648a2.986,2.986,0,0,0,4.568,0l4.742-5.648.349-.415H40.23A4.57,4.57,0,0,0,44.8,34.053V5.4A4.569,4.569,0,0,0,40.231.833Zm-.353,32.955H30.1a2.833,2.833,0,0,0-2.234,1.09l-.27.347-.3.365-3.405,4.049L20.486,35.59l-.675-.8a2.832,2.832,0,0,0-2.164-1H7.9V5.667H39.878Z" fill="maroon"/>
  </g>
</svg>
